HelveticaNeue-Thin.ufo
<glyph name="greater" format="2">
  <advance width="530"/>
  <unicode hex="0021"/>
  <outline>
    <contour>
      <point x="217" y="1462" type="line"/>
      <point x="217" y="969" type="line"/>
      <point x="242" y="375" type="line"/>
      <point x="291" y="375" type="line"/>
      <point x="315" y="969" type="line"/>
      <point x="315" y="1462" type="line"/>
    </contour>
    <contour>
      <point x="317" y="0" type="line"/>
      <point x="317" y="211" type="line"/>
      <point x="213" y="211" type="line"/>
      <point x="213" y="0" type="line"/>
    </contour>
  </outline>
</glyph>
<glyph name="question" format="2">
  <advance width="645"/>
  <unicode hex="0022"/>
  <outline>
    <contour>
      <point x="164" y="993" type="line"/>
      <point x="242" y="993" type="line"/>
      <point x="242" y="1462" type="line"/>
      <point x="164" y="1462" type="line"/>
    </contour>
    <contour>
      <point x="403" y="993" type="line"/>
      <point x="481" y="993" type="line"/>
      <point x="481" y="1462" type="line"/>
      <point x="403" y="1462" type="line"/>
    </contour>
  </outline>
</glyph>
<glyph name="at" format="2">
  <advance width="1139"/>
  <unicode hex="0023"/>
  <outline>
    <contour>
      <point x="848" y="1413" type="line"/>
      <point x="784" y="962" type="line"/>
      <point x="438" y="962" type="line"/>
      <point x="502" y="1413" type="line"/>
      <point x="434" y="1413" type="line"/>
      <point x="371" y="962" type="line"/>
      <point x="119" y="962" type="line"/>
      <point x="119" y="895" type="line"/>
      <point x="360" y="895" type="line"/>
      <point x="311" y="541" type="line"/>
      <point x="61" y="541" type="line"/>
      <point x="61" y="473" type="line"/>
      <point x="301" y="473" type="line"/>
      <point x="236" y="0" type="line"/>
      <point x="303" y="0" type="line"/>
      <point x="369" y="473" type="line"/>
      <point x="715" y="473" type="line"/>
      <point x="649" y="0" type="line"/>
      <point x="717" y="0" type="line"/>
      <point x="782" y="473" type="line"/>
      <point x="1020" y="473" type="line"/>
      <point x="1020" y="541" type="line"/>
      <point x="793" y="541" type="line"/>
      <point x="842" y="895" type="line"/>
      <point x="1077" y="895" type="line"/>
      <point x="1077" y="962" type="line"/>
      <point x="852" y="962" type="line"/>
      <point x="915" y="1413" type="line"/>
    </contour>
    <contour>
      <point x="428" y="895" type="line"/>
      <point x="774" y="895" type="line"/>
      <point x="725" y="541" type="line"/>
      <point x="379" y="541" type="line"/>
    </contour>
  </outline>
</glyph>
<glyph name="A" format="2">
  <advance width="1139"/>
  <unicode hex="0024"/>
  <outline>
    <contour>
      <point x="594" y="711" type="line"/>
      <point x="719" y="680" type="line" smooth="yes"/>
      <point x="1028" y="604"/>
      <point x="1026" y="375" type="qcurve" smooth="yes"/>
      <point x="1024" y="201"/>
      <point x="899" y="123" type="qcurve" smooth="yes"/>
      <point x="774" y="41"/>
      <point x="594" y="43" type="qcurve"/>
    </contour>
    <contour>
      <point x="528" y="805" type="line"/>
      <point x="444" y="823" type="line" smooth="yes"/>
      <point x="319" y="848"/>
      <point x="236" y="909" type="qcurve" smooth="yes"/>
      <point x="195" y="940"/>
      <point x="172" y="989" type="qcurve" smooth="yes"/>
      <point x="147" y="1038"/>
      <point x="147" y="1108" type="qcurve" smooth="yes"/>
      <point x="145" y="1239"/>
      <point x="236" y="1325" type="qcurve" smooth="yes"/>
      <point x="326" y="1411"/>
      <point x="528" y="1419" type="qcurve"/>
    </contour>
    <contour>
      <point x="528" y="-215" type="line"/>
      <point x="594" y="-215" type="line"/>
      <point x="594" y="-35" type="line"/>
      <point x="793" y="-35"/>
      <point x="946" y="61" type="qcurve" smooth="yes"/>
      <point x="1100" y="154"/>
      <point x="1104" y="375" type="qcurve" smooth="yes"/>
      <point x="1106" y="504"/>
      <point x="1032" y="600" type="qcurve"/>
      <point x="952" y="696"/>
      <point x="754" y="747" type="qcurve" smooth="yes"/>
      <point x="594" y="786" type="line"/>
      <point x="594" y="1421" type="line"/>
      <point x="774" y="1421"/>
      <point x="876" y="1333" type="qcurve" smooth="yes"/>
      <point x="979" y="1247"/>
      <point x="991" y="1046" type="qcurve"/>
      <point x="1069" y="1046" type="line"/>
      <point x="1036" y="1501"/>
      <point x="594" y="1497" type="qcurve"/>
      <point x="594" y="1597" type="line"/>
      <point x="528" y="1597" type="line"/>
      <point x="528" y="1497" type="line"/>
      <point x="371" y="1491"/>
      <point x="276" y="1446" type="qcurve" smooth="yes"/>
      <point x="184" y="1399"/>
      <point x="139" y="1333" type="qcurve" smooth="yes"/>
      <point x="117" y="1302"/>
      <point x="104" y="1270" type="qcurve" smooth="yes"/>
      <point x="90" y="1237"/>
      <point x="82" y="1206" type="qcurve" smooth="yes"/>
      <point x="68" y="1143"/>
      <point x="70" y="1108" type="qcurve" smooth="yes"/>
      <point x="70" y="1016"/>
      <point x="102" y="954" type="qcurve" smooth="yes"/>
      <point x="133" y="891"/>
      <point x="186" y="850" type="qcurve" smooth="yes"/>
      <point x="240" y="811"/>
      <point x="305" y="786" type="qcurve" smooth="yes"/>
      <point x="367" y="762"/>
      <point x="432" y="747" type="qcurve" smooth="yes"/>
      <point x="528" y="725" type="line"/>
      <point x="528" y="43" type="line"/>
      <point x="102" y="82"/>
      <point x="102" y="481" type="qcurve"/>
      <point x="25" y="481" type="line"/>
      <point x="27" y="221"/>
      <point x="166" y="102" type="qcurve" smooth="yes"/>
      <point x="301" y="-16"/>
      <point x="528" y="-35" type="qcurve"/>
    </contour>
  </outline>
</glyph>
<glyph name="B" format="2">
  <advance width="1593"/>
  <unicode hex="0025"/>
  <outline>
    <contour>
      <point x="283" y="-49" type="line"/>
      <point x="365" y="-49" type="line"/>
      <point x="1317" y="1462" type="line"/>
      <point x="1235" y="1462" type="line"/>
    </contour>
    <contour>
      <point x="1171" y="-25" type="line"/>
      <point x="1331" y="-23"/>
      <point x="1421" y="86" type="qcurve" smooth="yes"/>
      <point x="1509" y="188"/>
      <point x="1511" y="338" type="qcurve" smooth="yes"/>
      <point x="1511" y="498"/>
      <point x="1423" y="600" type="qcurve" smooth="yes"/>
      <point x="1337" y="702"/>
      <point x="1173" y="704" type="qcurve" smooth="yes"/>
      <point x="1014" y="702"/>
      <point x="924" y="598" type="qcurve" smooth="yes"/>
      <point x="831" y="496"/>
      <point x="831" y="338" type="qcurve" smooth="yes"/>
      <point x="831" y="186"/>
      <point x="926" y="84" type="qcurve"/>
      <point x="1016" y="-23"/>
      <point x="1171" y="-25" type="qcurve"/>
    </contour>
    <contour>
      <point x="1169" y="43" type="line"/>
      <point x="1049" y="45"/>
      <point x="981" y="135" type="qcurve"/>
      <point x="909" y="223"/>
      <point x="909" y="338" type="qcurve" smooth="yes"/>
      <point x="909" y="463"/>
      <point x="979" y="549" type="qcurve" smooth="yes"/>
      <point x="1044" y="635"/>
      <point x="1171" y="637" type="qcurve" smooth="yes"/>
      <point x="1300" y="635"/>
      <point x="1368" y="549" type="qcurve" smooth="yes"/>
      <point x="1433" y="463"/>
      <point x="1433" y="338" type="qcurve" smooth="yes"/>
      <point x="1433" y="223"/>
      <point x="1364" y="135" type="qcurve" smooth="yes"/>
      <point x="1294" y="45"/>
      <point x="1169" y="43" type="qcurve"/>
    </contour>
    <contour>
      <point x="422" y="709" type="line"/>
      <point x="582" y="711"/>
      <point x="672" y="819" type="qcurve" smooth="yes"/>
      <point x="760" y="922"/>
      <point x="762" y="1071" type="qcurve" smooth="yes"/>
      <point x="762" y="1231"/>
      <point x="674" y="1333" type="qcurve" smooth="yes"/>
      <point x="588" y="1436"/>
      <point x="424" y="1438" type="qcurve" smooth="yes"/>
      <point x="264" y="1436"/>
      <point x="174" y="1331" type="qcurve" smooth="yes"/>
      <point x="82" y="1229"/>
      <point x="82" y="1071" type="qcurve" smooth="yes"/>
      <point x="82" y="919"/>
      <point x="176" y="817" type="qcurve"/>
      <point x="266" y="711"/>
      <point x="422" y="709" type="qcurve"/>
    </contour>
    <contour>
      <point x="420" y="776" type="line"/>
      <point x="299" y="778"/>
      <point x="231" y="868" type="qcurve" smooth="yes"/>
      <point x="160" y="956"/>
      <point x="160" y="1071" type="qcurve" smooth="yes"/>
      <point x="160" y="1196"/>
      <point x="229" y="1282" type="qcurve" smooth="yes"/>
      <point x="295" y="1368"/>
      <point x="422" y="1370" type="qcurve" smooth="yes"/>
      <point x="551" y="1368"/>
      <point x="618" y="1282" type="qcurve" smooth="yes"/>
      <point x="684" y="1196"/>
      <point x="684" y="1071" type="qcurve" smooth="yes"/>
      <point x="684" y="956"/>
      <point x="614" y="868" type="qcurve" smooth="yes"/>
      <point x="545" y="778"/>
      <point x="420" y="776" type="qcurve"/>
    </contour>
  </outline>
</glyph>
<glyph name="C" format="2">
  <advance width="1214"/>
  <unicode hex="0026"/>
  <outline>
    <contour>
      <point x="537" y="844" type="line"/>
      <point x="512" y="881"/>
      <point x="481" y="922" type="qcurve" smooth="yes"/>
      <point x="451" y="958"/>
      <point x="418" y="999" type="qcurve"/>
      <point x="389" y="1042"/>
      <point x="371" y="1087" type="qcurve" smooth="yes"/>
      <point x="348" y="1135"/>
      <point x="348" y="1186" type="qcurve" smooth="yes"/>
      <point x="350" y="1270"/>
      <point x="422" y="1321" type="qcurve" smooth="yes"/>
      <point x="491" y="1368"/>
      <point x="577" y="1370" type="qcurve" smooth="yes"/>
      <point x="668" y="1368"/>
      <point x="735" y="1321" type="qcurve" smooth="yes"/>
      <point x="805" y="1270"/>
      <point x="807" y="1186" type="qcurve" smooth="yes"/>
      <point x="807" y="1124"/>
      <point x="782" y="1075" type="qcurve" smooth="yes"/>
      <point x="758" y="1024"/>
      <point x="717" y="983" type="qcurve" smooth="yes"/>
      <point x="631" y="901"/>
      <point x="537" y="844" type="qcurve"/>
    </contour>
    <contour>
      <point x="510" y="750" type="line"/>
      <point x="887" y="281" type="line"/>
      <point x="891" y="258"/>
      <point x="799" y="158" type="qcurve" smooth="yes"/>
      <point x="754" y="113"/>
      <point x="686" y="80" type="qcurve" smooth="yes"/>
      <point x="614" y="43"/>
      <point x="522" y="43" type="qcurve" smooth="yes"/>
      <point x="385" y="43"/>
      <point x="279" y="125" type="qcurve"/>
      <point x="168" y="203"/>
      <point x="166" y="348" type="qcurve" smooth="yes"/>
      <point x="166" y="428"/>
      <point x="201" y="487" type="qcurve" smooth="yes"/>
      <point x="233" y="547"/>
      <point x="283" y="592" type="qcurve" smooth="yes"/>
      <point x="334" y="639"/>
      <point x="393" y="678" type="qcurve" smooth="yes"/>
      <point x="453" y="715"/>
      <point x="510" y="750" type="qcurve"/>
    </contour>
    <contour>
      <point x="938" y="217" type="line"/>
      <point x="1116" y="0" type="line"/>
      <point x="1221" y="0" type="line"/>
      <point x="983" y="293" type="line"/>
      <point x="1046" y="438"/>
      <point x="1057" y="602" type="qcurve"/>
      <point x="979" y="602" type="line"/>
      <point x="977" y="475"/>
      <point x="930" y="358" type="qcurve"/>
      <point x="930" y="358" type="line"/>
      <point x="582" y="786" type="line"/>
      <point x="637" y="827"/>
      <point x="692" y="866" type="qcurve" smooth="yes"/>
      <point x="745" y="903"/>
      <point x="788" y="948" type="qcurve" smooth="yes"/>
      <point x="831" y="993"/>
      <point x="860" y="1051" type="qcurve"/>
      <point x="885" y="1110"/>
      <point x="885" y="1186" type="qcurve" smooth="yes"/>
      <point x="883" y="1309"/>
      <point x="793" y="1374" type="qcurve" smooth="yes"/>
      <point x="702" y="1438"/>
      <point x="577" y="1438" type="qcurve" smooth="yes"/>
      <point x="459" y="1436"/>
      <point x="369" y="1370" type="qcurve" smooth="yes"/>
      <point x="272" y="1300"/>
      <point x="270" y="1186" type="qcurve" smooth="yes"/>
      <point x="270" y="1130"/>
      <point x="291" y="1081" type="qcurve" smooth="yes"/>
      <point x="309" y="1030"/>
      <point x="338" y="983" type="qcurve" smooth="yes"/>
      <point x="397" y="893"/>
      <point x="469" y="807" type="qcurve"/>
      <point x="405" y="768"/>
      <point x="340" y="725" type="qcurve" smooth="yes"/>
      <point x="274" y="684"/>
      <point x="217" y="629" type="qcurve" smooth="yes"/>
      <point x="160" y="577"/>
      <point x="125" y="510" type="qcurve" smooth="yes"/>
      <point x="88" y="440"/>
      <point x="88" y="348" type="qcurve" smooth="yes"/>
      <point x="90" y="164"/>
      <point x="215" y="72" type="qcurve"/>
      <point x="336" y="-25"/>
      <point x="522" y="-25" type="qcurve" smooth="yes"/>
      <point x="795" y="-20"/>
      <point x="938" y="217" type="qcurve"/>
    </contour>
  </outline>
</glyph>
<glyph name="D" format="2">
  <advance width="418"/>
  <unicode hex="0027"/>
  <outline>
    <contour>
      <point x="170" y="993" type="line"/>
      <point x="248" y="993" type="line"/>
      <point x="248" y="1462" type="line"/>
      <point x="170" y="1462" type="line"/>
    </contour>
  </outline>
</glyph>
<glyph name="E" format="2">
  <advance width="494"/>
  <unicode hex="0028"/>
  <outline>
    <contour>
      <point x="467" y="-377" type="line"/>
      <point x="211" y="51"/>
      <point x="211" y="545" type="qcurve" smooth="yes"/>
      <point x="213" y="1055"/>
      <point x="473" y="1497" type="qcurve"/>
      <point x="401" y="1497" type="line"/>
      <point x="137" y="1057"/>
      <point x="133" y="545" type="qcurve"/>
      <point x="137" y="45"/>
      <point x="397" y="-377" type="qcurve"/>
    </contour>
  </outline>
</glyph>
<glyph name="F" format="2">
  <advance width="494"/>
  <unicode hex="0029"/>
  <outline>
    <contour>
      <point x="27" y="1497" type="line"/>
      <point x="283" y="1071"/>
      <point x="283" y="575" type="qcurve" smooth="yes"/>
      <point x="281" y="66"/>
      <point x="20" y="-377" type="qcurve"/>
      <point x="92" y="-377" type="line"/>
      <point x="356" y="63"/>
      <point x="360" y="575" type="qcurve"/>
      <point x="356" y="1075"/>
      <point x="96" y="1497" type="qcurve"/>
    </contour>
  </outline>
</glyph>
<glyph name="G" format="2">
  <advance width="721"/>
  <unicode hex="002A"/>
  <outline>
    <contour>
      <point x="330" y="1462" type="line"/>
      <point x="330" y="1196" type="line"/>
      <point x="330" y="1196" type="line"/>
      <point x="78" y="1280" type="line"/>
      <point x="78" y="1280" type="line"/>
      <point x="59" y="1223" type="line"/>
      <point x="313" y="1139" type="line"/>
      <point x="147" y="930" type="line"/>
      <point x="197" y="889" type="line"/>
      <point x="197" y="889" type="line"/>
      <point x="360" y="1106" type="line"/>
      <point x="360" y="1106" type="line"/>
      <point x="518" y="889" type="line"/>
      <point x="518" y="889" type="line"/>
      <point x="563" y="930" type="line"/>
      <point x="408" y="1139" type="line"/>
      <point x="659" y="1223" type="line"/>
      <point x="639" y="1280" type="line"/>
      <point x="639" y="1280" type="line"/>
      <point x="389" y="1196" type="line"/>
      <point x="389" y="1196" type="line"/>
      <point x="389" y="1462" type="line"/>
    </contour>
  </outline>
</glyph>
<glyph name="H" format="2">
  <advance width="1229"/>
  <unicode hex="002B"/>
  <outline>
    <contour>
      <point x="575" y="555" type="line"/>
      <point x="98" y="555" type="line"/>
      <point x="98" y="477" type="line"/>
      <point x="575" y="477" type="line"/>
      <point x="575" y="0" type="line"/>
      <point x="653" y="0" type="line"/>
      <point x="653" y="477" type="line"/>
      <point x="1130" y="477" type="line"/>
      <point x="1130" y="555" type="line"/>
      <point x="653" y="555" type="line"/>
      <point x="653" y="1032" type="line"/>
      <point x="575" y="1032" type="line"/>
    </contour>
  </outline>
</glyph>
<glyph name="I" format="2">
  <advance width="569"/>
  <unicode hex="002C"/>
  <outline>
    <contour>
      <point x="205" y="-258" type="line"/>
      <point x="205" y="-258" type="line"/>
      <point x="281" y="-227"/>
      <point x="309" y="-154" type="qcurve" smooth="yes"/>
      <point x="336" y="-82"/>
      <point x="336" y="0" type="qcurve" smooth="yes"/>
      <point x="336" y="211" type="line"/>
      <point x="231" y="211" type="line"/>
      <point x="231" y="0" type="line"/>
      <point x="274" y="0" type="line"/>
      <point x="274" y="-45"/>
      <point x="264" y="-104" type="qcurve" smooth="yes"/>
      <point x="258" y="-131"/>
      <point x="244" y="-154" type="qcurve" smooth="yes"/>
      <point x="229" y="-178"/>
      <point x="205" y="-190" type="qcurve"/>
    </contour>
  </outline>
</glyph>
<glyph name="J" format="2">
  <advance width="721"/>
  <unicode hex="002D"/>
  <outline>
    <contour>
      <point x="580" y="518" type="line"/>
      <point x="580" y="596" type="line"/>
      <point x="141" y="596" type="line"/>
      <point x="141" y="518" type="line"/>
    </contour>
  </outline>
</glyph>
<glyph name="K" format="2">
  <advance width="569"/>
  <unicode hex="002E"/>
  <outline>
    <contour>
      <point x="336" y="0" type="line"/>
      <point x="336" y="211" type="line"/>
      <point x="231" y="211" type="line"/>
      <point x="231" y="0" type="line"/>
    </contour>
  </outline>
</glyph>
<glyph name="L" format="2">
  <advance width="682"/>
  <unicode hex="002F"/>
  <outline>
    <contour>
      <point x="57" y="-35" type="line"/>
      <point x="709" y="1497" type="line"/>
      <point x="625" y="1497" type="line"/>
      <point x="-27" y="-35" type="line"/>
    </contour>
  </outline>
</glyph>
<glyph name="M" format="2">
  <advance width="1139"/>
  <unicode hex="0030"/>
  <outline>
    <contour>
      <point x="569" y="-25" type="line"/>
      <point x="870" y="-16"/>
      <point x="981" y="215" type="qcurve"/>
      <point x="1038" y="322"/>
      <point x="1061" y="451" type="qcurve" smooth="yes"/>
      <point x="1081" y="580"/>
      <point x="1081" y="707" type="qcurve" smooth="yes"/>
      <point x="1081" y="838"/>
      <point x="1061" y="967" type="qcurve" smooth="yes"/>
      <point x="1038" y="1096"/>
      <point x="981" y="1202" type="qcurve" smooth="yes"/>
      <point x="924" y="1309"/>
      <point x="823" y="1374" type="qcurve" smooth="yes"/>
      <point x="723" y="1438"/>
      <point x="569" y="1438" type="qcurve" smooth="yes"/>
      <point x="420" y="1438"/>
      <point x="319" y="1374" type="qcurve" smooth="yes"/>
      <point x="219" y="1309"/>
      <point x="162" y="1202" type="qcurve"/>
      <point x="53" y="977"/>
      <point x="57" y="707" type="qcurve" smooth="yes"/>
      <point x="57" y="580"/>
      <point x="82" y="451" type="qcurve" smooth="yes"/>
      <point x="104" y="322"/>
      <point x="162" y="215" type="qcurve"/>
      <point x="272" y="-16"/>
      <point x="569" y="-25" type="qcurve"/>
    </contour>
    <contour>
      <point x="569" y="43" type="line"/>
      <point x="438" y="43"/>
      <point x="354" y="109" type="qcurve" smooth="yes"/>
      <point x="270" y="172"/>
      <point x="221" y="270" type="qcurve" smooth="yes"/>
      <point x="174" y="371"/>
      <point x="156" y="485" type="qcurve" smooth="yes"/>
      <point x="135" y="600"/>
      <point x="135" y="707" type="qcurve" smooth="yes"/>
      <point x="135" y="817"/>
      <point x="156" y="932" type="qcurve" smooth="yes"/>
      <point x="174" y="1046"/>
      <point x="221" y="1147" type="qcurve" smooth="yes"/>
      <point x="270" y="1247"/>
      <point x="354" y="1309" type="qcurve" smooth="yes"/>
      <point x="438" y="1368"/>
      <point x="569" y="1370" type="qcurve" smooth="yes"/>
      <point x="704" y="1368"/>
      <point x="788" y="1309" type="qcurve" smooth="yes"/>
      <point x="874" y="1247"/>
      <point x="922" y="1147" type="qcurve" smooth="yes"/>
      <point x="971" y="1046"/>
      <point x="987" y="932" type="qcurve" smooth="yes"/>
      <point x="1003" y="817"/>
      <point x="1003" y="707" type="qcurve" smooth="yes"/>
      <point x="1003" y="600"/>
      <point x="987" y="485" type="qcurve" smooth="yes"/>
      <point x="971" y="371"/>
      <point x="922" y="270" type="qcurve" smooth="yes"/>
      <point x="874" y="172"/>
      <point x="788" y="109" type="qcurve" smooth="yes"/>
      <point x="704" y="43"/>
      <point x="569" y="43" type="qcurve"/>
    </contour>
  </outline>
</glyph>
<glyph name="N" format="2">
  <advance width="1139"/>
  <unicode hex="0031"/>
  <outline>
    <contour>
      <point x="678" y="1413" type="line"/>
      <point x="608" y="1413" type="line"/>
      <point x="475" y="1192"/>
      <point x="221" y="1149" type="qcurve"/>
      <point x="221" y="1081" type="line"/>
      <point x="442" y="1102"/>
      <point x="600" y="1261" type="qcurve"/>
      <point x="600" y="1261" type="line"/>
      <point x="600" y="0" type="line"/>
      <point x="678" y="0" type="line"/>
    </contour>
  </outline>
</glyph>
<glyph name="O" format="2">
  <advance width="1139"/>
  <unicode hex="0032"/>
  <outline>
    <contour>
      <point x="192" y="78" type="line"/>
      <point x="211" y="209"/>
      <point x="336" y="311" type="qcurve" smooth="yes"/>
      <point x="459" y="414"/>
      <point x="616" y="512" type="qcurve" smooth="yes"/>
      <point x="776" y="612"/>
      <point x="893" y="741" type="qcurve" smooth="yes"/>
      <point x="1012" y="868"/>
      <point x="1014" y="1051" type="qcurve" smooth="yes"/>
      <point x="1012" y="1247"/>
      <point x="887" y="1343" type="qcurve" smooth="yes"/>
      <point x="762" y="1438"/>
      <point x="575" y="1438" type="qcurve" smooth="yes"/>
      <point x="158" y="1438"/>
      <point x="129" y="936" type="qcurve"/>
      <point x="207" y="936" type="line"/>
      <point x="207" y="1124"/>
      <point x="301" y="1245" type="qcurve" smooth="yes"/>
      <point x="395" y="1368"/>
      <point x="588" y="1370" type="qcurve" smooth="yes"/>
      <point x="731" y="1368"/>
      <point x="831" y="1284" type="qcurve" smooth="yes"/>
      <point x="934" y="1200"/>
      <point x="936" y="1053" type="qcurve"/>
      <point x="932" y="879"/>
      <point x="809" y="764" type="qcurve" smooth="yes"/>
      <point x="686" y="647"/>
      <point x="526" y="547" type="qcurve" smooth="yes"/>
      <point x="367" y="448"/>
      <point x="240" y="324" type="qcurve" smooth="yes"/>
      <point x="180" y="260"/>
      <point x="141" y="180" type="qcurve" smooth="yes"/>
      <point x="100" y="100"/>
      <point x="94" y="0" type="qcurve"/>
      <point x="1036" y="0" type="line"/>
      <point x="1036" y="78" type="line"/>
    </contour>
  </outline>
</glyph>
<glyph name="P" format="2">
  <advance width="1139"/>
  <unicode hex="0033"/>
  <outline>
    <contour>
      <point x="74" y="467" type="line"/>
      <point x="74" y="-18"/>
      <point x="563" y="-25" type="qcurve" smooth="yes"/>
      <point x="766" y="-25"/>
      <point x="903" y="80" type="qcurve" smooth="yes"/>
      <point x="1042" y="184"/>
      <point x="1046" y="391" type="qcurve" smooth="yes"/>
      <point x="1046" y="539"/>
      <point x="965" y="637" type="qcurve" smooth="yes"/>
      <point x="883" y="735"/>
      <point x="737" y="754" type="qcurve"/>
      <point x="737" y="758" type="line"/>
      <point x="864" y="778"/>
      <point x="940" y="866" type="qcurve" smooth="yes"/>
      <point x="1012" y="954"/>
      <point x="1014" y="1081" type="qcurve"/>
      <point x="1010" y="1272"/>
      <point x="874" y="1356" type="qcurve" smooth="yes"/>
      <point x="741" y="1438"/>
      <point x="563" y="1438" type="qcurve" smooth="yes"/>
      <point x="352" y="1436"/>
      <point x="233" y="1309" type="qcurve" smooth="yes"/>
      <point x="113" y="1180"/>
      <point x="109" y="967" type="qcurve"/>
      <point x="186" y="967" type="line"/>
      <point x="195" y="1147"/>
      <point x="287" y="1257" type="qcurve" smooth="yes"/>
      <point x="379" y="1368"/>
      <point x="563" y="1370" type="qcurve" smooth="yes"/>
      <point x="700" y="1370"/>
      <point x="815" y="1300" type="qcurve" smooth="yes"/>
      <point x="932" y="1231"/>
      <point x="936" y="1081" type="qcurve"/>
      <point x="932" y="901"/>
      <point x="795" y="840" type="qcurve" smooth="yes"/>
      <point x="729" y="807"/>
      <point x="651" y="795" type="qcurve" smooth="yes"/>
      <point x="573" y="782"/>
      <point x="494" y="784" type="qcurve"/>
      <point x="494" y="717" type="line"/>
      <point x="584" y="725"/>
      <point x="668" y="713" type="qcurve" smooth="yes"/>
      <point x="752" y="700"/>
      <point x="819" y="664" type="qcurve" smooth="yes"/>
      <point x="965" y="590"/>
      <point x="969" y="391" type="qcurve"/>
      <point x="965" y="223"/>
      <point x="846" y="133" type="qcurve" smooth="yes"/>
      <point x="727" y="43"/>
      <point x="563" y="43" type="qcurve" smooth="yes"/>
      <point x="156" y="51"/>
      <point x="152" y="467" type="qcurve"/>
    </contour>
  </outline>
</glyph>
<glyph name="Q" format="2">
  <advance width="1139"/>
  <unicode hex="0034"/>
  <outline>
    <contour>
      <point x="747" y="1413" type="line"/>
      <point x="59" y="438" type="line"/>
      <point x="59" y="360" type="line"/>
      <point x="747" y="360" type="line"/>
      <point x="747" y="0" type="line"/>
      <point x="825" y="0" type="line"/>
      <point x="825" y="360" type="line"/>
      <point x="1063" y="360" type="line"/>
      <point x="1063" y="428" type="line"/>
      <point x="825" y="428" type="line"/>
      <point x="825" y="1413" type="line"/>
    </contour>
    <contour>
      <point x="747" y="428" type="line"/>
      <point x="137" y="428" type="line"/>
      <point x="743" y="1307" type="line"/>
      <point x="747" y="1307" type="line"/>
    </contour>
  </outline>
</glyph>
<glyph name="R" format="2">
  <advance width="1139"/>
  <unicode hex="0035"/>
  <outline>
    <contour>
      <point x="119" y="682" type="line"/>
      <point x="199" y="682" type="line"/>
      <point x="328" y="881"/>
      <point x="561" y="881" type="qcurve" smooth="yes"/>
      <point x="739" y="879"/>
      <point x="850" y="762" type="qcurve" smooth="yes"/>
      <point x="960" y="643"/>
      <point x="962" y="467" type="qcurve" smooth="yes"/>
      <point x="960" y="289"/>
      <point x="854" y="170" type="qcurve" smooth="yes"/>
      <point x="745" y="45"/>
      <point x="561" y="43" type="qcurve" smooth="yes"/>
      <point x="387" y="43"/>
      <point x="272" y="152" type="qcurve"/>
      <point x="156" y="256"/>
      <point x="154" y="432" type="qcurve"/>
      <point x="76" y="432" type="line"/>
      <point x="70" y="217"/>
      <point x="211" y="98" type="qcurve" smooth="yes"/>
      <point x="352" y="-23"/>
      <point x="561" y="-25" type="qcurve" smooth="yes"/>
      <point x="778" y="-23"/>
      <point x="907" y="117" type="qcurve" smooth="yes"/>
      <point x="1038" y="254"/>
      <point x="1040" y="467" type="qcurve" smooth="yes"/>
      <point x="1038" y="682"/>
      <point x="907" y="815" type="qcurve" smooth="yes"/>
      <point x="778" y="946"/>
      <point x="561" y="948" type="qcurve" smooth="yes"/>
      <point x="342" y="948"/>
      <point x="211" y="778" type="qcurve"/>
      <point x="207" y="782" type="line"/>
      <point x="328" y="1345" type="line"/>
      <point x="981" y="1345" type="line"/>
      <point x="981" y="1413" type="line"/>
      <point x="266" y="1413" type="line"/>
    </contour>
  </outline>
</glyph>
<glyph name="S" format="2">
  <advance width="1139"/>
  <unicode hex="0036"/>
  <outline>
    <contour>
      <point x="590" y="43" type="line"/>
      <point x="420" y="45"/>
      <point x="309" y="162" type="qcurve"/>
      <point x="192" y="272"/>
      <point x="190" y="451" type="qcurve" smooth="yes"/>
      <point x="192" y="627"/>
      <point x="305" y="745" type="qcurve"/>
      <point x="412" y="864"/>
      <point x="590" y="866" type="qcurve" smooth="yes"/>
      <point x="766" y="864"/>
      <point x="874" y="743" type="qcurve" smooth="yes"/>
      <point x="983" y="623"/>
      <point x="985" y="451" type="qcurve" smooth="yes"/>
      <point x="983" y="281"/>
      <point x="874" y="164" type="qcurve" smooth="yes"/>
      <point x="764" y="45"/>
      <point x="590" y="43" type="qcurve"/>
    </contour>
    <contour>
      <point x="1038" y="1065" type="line"/>
      <point x="1018" y="1245"/>
      <point x="903" y="1341" type="qcurve" smooth="yes"/>
      <point x="786" y="1438"/>
      <point x="606" y="1438" type="qcurve" smooth="yes"/>
      <point x="444" y="1436"/>
      <point x="344" y="1364" type="qcurve" smooth="yes"/>
      <point x="242" y="1288"/>
      <point x="184" y="1169" type="qcurve" smooth="yes"/>
      <point x="129" y="1051"/>
      <point x="109" y="911" type="qcurve" smooth="yes"/>
      <point x="86" y="772"/>
      <point x="86" y="637" type="qcurve" smooth="yes"/>
      <point x="84" y="371"/>
      <point x="192" y="178" type="qcurve" smooth="yes"/>
      <point x="301" y="-18"/>
      <point x="590" y="-25" type="qcurve"/>
      <point x="801" y="-23"/>
      <point x="930" y="113" type="qcurve"/>
      <point x="1061" y="244"/>
      <point x="1063" y="451" type="qcurve" smooth="yes"/>
      <point x="1061" y="664"/>
      <point x="932" y="797" type="qcurve" smooth="yes"/>
      <point x="803" y="932"/>
      <point x="590" y="934" type="qcurve" smooth="yes"/>
      <point x="446" y="934"/>
      <point x="332" y="852" type="qcurve" smooth="yes"/>
      <point x="217" y="770"/>
      <point x="168" y="631" type="qcurve"/>
      <point x="164" y="635" type="line"/>
      <point x="164" y="743"/>
      <point x="180" y="868" type="qcurve" smooth="yes"/>
      <point x="195" y="995"/>
      <point x="240" y="1108" type="qcurve" smooth="yes"/>
      <point x="285" y="1225"/>
      <point x="375" y="1296" type="qcurve" smooth="yes"/>
      <point x="463" y="1368"/>
      <point x="606" y="1370" type="qcurve" smooth="yes"/>
      <point x="750" y="1368"/>
      <point x="844" y="1286" type="qcurve" smooth="yes"/>
      <point x="938" y="1204"/>
      <point x="960" y="1065" type="qcurve"/>
    </contour>
  </outline>
</glyph>
<glyph name="T" format="2">
  <advance width="1139"/>
  <unicode hex="0037"/>
  <outline>
    <contour>
      <point x="115" y="1345" type="line"/>
      <point x="948" y="1345" type="line"/>
      <point x="596" y="958"/>
      <point x="469" y="631" type="qcurve" smooth="yes"/>
      <point x="344" y="301"/>
      <point x="328" y="0" type="qcurve"/>
      <point x="418" y="0" type="line"/>
      <point x="473" y="512"/>
      <point x="641" y="811" type="qcurve" smooth="yes"/>
      <point x="809" y="1110"/>
      <point x="1026" y="1335" type="qcurve"/>
      <point x="1026" y="1413" type="line"/>
      <point x="115" y="1413" type="line"/>
    </contour>
  </outline>
</glyph>
<glyph name="U" format="2">
  <advance width="1139"/>
  <unicode hex="0038"/>
  <outline>
    <contour>
      <point x="981" y="405" type="line"/>
      <point x="979" y="219"/>
      <point x="858" y="131" type="qcurve" smooth="yes"/>
      <point x="739" y="43"/>
      <point x="569" y="43" type="qcurve" smooth="yes"/>
      <point x="401" y="43"/>
      <point x="283" y="131" type="qcurve" smooth="yes"/>
      <point x="160" y="219"/>
      <point x="158" y="405" type="qcurve" smooth="yes"/>
      <point x="160" y="582"/>
      <point x="283" y="659" type="qcurve" smooth="yes"/>
      <point x="399" y="735"/>
      <point x="569" y="735" type="qcurve" smooth="yes"/>
      <point x="741" y="735"/>
      <point x="860" y="659" type="qcurve" smooth="yes"/>
      <point x="979" y="582"/>
      <point x="981" y="405" type="qcurve"/>
    </contour>
    <contour>
      <point x="133" y="1083" type="line"/>
      <point x="133" y="836"/>
      <point x="393" y="774" type="qcurve"/>
      <point x="393" y="770" type="line"/>
      <point x="86" y="721"/>
      <point x="80" y="405" type="qcurve"/>
      <point x="82" y="188"/>
      <point x="225" y="82" type="qcurve"/>
      <point x="362" y="-25"/>
      <point x="569" y="-25" type="qcurve" smooth="yes"/>
      <point x="778" y="-25"/>
      <point x="917" y="82" type="qcurve" smooth="yes"/>
      <point x="1057" y="188"/>
      <point x="1059" y="405" type="qcurve"/>
      <point x="1053" y="721"/>
      <point x="745" y="770" type="qcurve"/>
      <point x="745" y="774" type="line"/>
      <point x="1005" y="836"/>
      <point x="1005" y="1083" type="qcurve"/>
      <point x="1001" y="1282"/>
      <point x="870" y="1362" type="qcurve" smooth="yes"/>
      <point x="741" y="1440"/>
      <point x="569" y="1438" type="qcurve" smooth="yes"/>
      <point x="399" y="1440"/>
      <point x="270" y="1362" type="qcurve" smooth="yes"/>
      <point x="137" y="1282"/>
      <point x="133" y="1083" type="qcurve"/>
    </contour>
    <contour>
      <point x="928" y="1083" type="line"/>
      <point x="926" y="934"/>
      <point x="819" y="868" type="qcurve" smooth="yes"/>
      <point x="713" y="803"/>
      <point x="569" y="803" type="qcurve" smooth="yes"/>
      <point x="428" y="803"/>
      <point x="324" y="868" type="qcurve" smooth="yes"/>
      <point x="213" y="934"/>
      <point x="211" y="1083" type="qcurve" smooth="yes"/>
      <point x="213" y="1243"/>
      <point x="322" y="1309" type="qcurve" smooth="yes"/>
      <point x="426" y="1372"/>
      <point x="569" y="1370" type="qcurve" smooth="yes"/>
      <point x="717" y="1372"/>
      <point x="819" y="1309" type="qcurve" smooth="yes"/>
      <point x="926" y="1243"/>
      <point x="928" y="1083" type="qcurve"/>
    </contour>
  </outline>
</glyph>
<glyph name="V" format="2">
  <advance width="1139"/>
  <unicode hex="0039"/>
  <outline>
    <contour>
      <point x="571" y="547" type="line"/>
      <point x="399" y="549"/>
      <point x="287" y="672" type="qcurve"/>
      <point x="174" y="790"/>
      <point x="172" y="962" type="qcurve" smooth="yes"/>
      <point x="174" y="1137"/>
      <point x="287" y="1251" type="qcurve" smooth="yes"/>
      <point x="399" y="1368"/>
      <point x="571" y="1370" type="qcurve" smooth="yes"/>
      <point x="747" y="1368"/>
      <point x="858" y="1251" type="qcurve" smooth="yes"/>
      <point x="969" y="1137"/>
      <point x="971" y="962" type="qcurve" smooth="yes"/>
      <point x="969" y="786"/>
      <point x="860" y="670" type="qcurve" smooth="yes"/>
      <point x="750" y="549"/>
      <point x="571" y="547" type="qcurve"/>
    </contour>
    <contour>
      <point x="113" y="348" type="line"/>
      <point x="137" y="170"/>
      <point x="252" y="74" type="qcurve" smooth="yes"/>
      <point x="369" y="-23"/>
      <point x="545" y="-25" type="qcurve" smooth="yes"/>
      <point x="711" y="-23"/>
      <point x="813" y="53" type="qcurve" smooth="yes"/>
      <point x="917" y="129"/>
      <point x="971" y="248" type="qcurve" smooth="yes"/>
      <point x="1026" y="367"/>
      <point x="1046" y="508" type="qcurve" smooth="yes"/>
      <point x="1065" y="645"/>
      <point x="1065" y="776" type="qcurve" smooth="yes"/>
      <point x="1065" y="987"/>
      <point x="1020" y="1120" type="qcurve" smooth="yes"/>
      <point x="977" y="1251"/>
      <point x="901" y="1321" type="qcurve" smooth="yes"/>
      <point x="829" y="1390"/>
      <point x="743" y="1417" type="qcurve"/>
      <point x="655" y="1438"/>
      <point x="571" y="1438" type="qcurve" smooth="yes"/>
      <point x="362" y="1436"/>
      <point x="231" y="1304" type="qcurve"/>
      <point x="96" y="1175"/>
      <point x="94" y="962" type="qcurve" smooth="yes"/>
      <point x="96" y="747"/>
      <point x="227" y="616" type="qcurve"/>
      <point x="356" y="481"/>
      <point x="571" y="479" type="qcurve" smooth="yes"/>
      <point x="737" y="481"/>
      <point x="840" y="565" type="qcurve" smooth="yes"/>
      <point x="940" y="645"/>
      <point x="983" y="766" type="qcurve"/>
      <point x="987" y="762" type="line"/>
      <point x="987" y="668"/>
      <point x="975" y="545" type="qcurve"/>
      <point x="958" y="422"/>
      <point x="913" y="309" type="qcurve" smooth="yes"/>
      <point x="868" y="197"/>
      <point x="780" y="123" type="qcurve" smooth="yes"/>
      <point x="690" y="45"/>
      <point x="545" y="43" type="qcurve" smooth="yes"/>
      <point x="405" y="43"/>
      <point x="311" y="129" type="qcurve" smooth="yes"/>
      <point x="217" y="211"/>
      <point x="190" y="348" type="qcurve"/>
    </contour>
  </outline>
</glyph>
<glyph name="W" format="2">
  <advance width="569"/>
  <unicode hex="003A"/>
  <outline>
    <contour>
      <point x="231" y="1053" type="line"/>
      <point x="231" y="842" type="line"/>
      <point x="336" y="842" type="line"/>
      <point x="336" y="1053" type="line"/>
    </contour>
    <contour>
      <point x="336" y="0" type="line"/>
      <point x="336" y="211" type="line"/>
      <point x="231" y="211" type="line"/>
      <point x="231" y="0" type="line"/>
    </contour>
  </outline>
</glyph>
<glyph name="X" format="2">
  <advance width="569"/>
  <unicode hex="003B"/>
  <outline>
    <contour>
      <point x="205" y="-258" type="line"/>
      <point x="205" y="-258" type="line"/>
      <point x="281" y="-227"/>
      <point x="309" y="-154" type="qcurve" smooth="yes"/>
      <point x="336" y="-82"/>
      <point x="336" y="0" type="qcurve" smooth="yes"/>
      <point x="336" y="211" type="line"/>
      <point x="231" y="211" type="line"/>
      <point x="231" y="0" type="line"/>
      <point x="274" y="0" type="line"/>
      <point x="274" y="-45"/>
      <point x="264" y="-104" type="qcurve" smooth="yes"/>
      <point x="258" y="-131"/>
      <point x="244" y="-154" type="qcurve" smooth="yes"/>
      <point x="229" y="-178"/>
      <point x="205" y="-190" type="qcurve"/>
    </contour>
    <contour>
      <point x="231" y="1053" type="line"/>
      <point x="231" y="842" type="line"/>
      <point x="336" y="842" type="line"/>
      <point x="336" y="1053" type="line"/>
    </contour>
  </outline>
</glyph>
<glyph name="Y" format="2">
  <advance width="1229"/>
  <unicode hex="003C"/>
  <outline>
    <contour>
      <point x="1135" y="1053" type="line"/>
      <point x="1135" y="1053" type="line"/>
      <point x="94" y="573" type="line"/>
      <point x="94" y="467" type="line"/>
      <point x="1135" y="-16" type="line"/>
      <point x="1135" y="-16" type="line"/>
      <point x="1135" y="70" type="line"/>
      <point x="162" y="520" type="line"/>
      <point x="1135" y="967" type="line"/>
    </contour>
  </outline>
</glyph>
<glyph name="Z" format="2">
  <advance width="1229"/>
  <unicode hex="003D"/>
  <outline>
    <contour>
      <point x="1130" y="756" type="line"/>
      <point x="98" y="756" type="line"/>
      <point x="98" y="678" type="line"/>
      <point x="1130" y="678" type="line"/>
    </contour>
    <contour>
      <point x="1130" y="358" type="line"/>
      <point x="98" y="358" type="line"/>
      <point x="98" y="281" type="line"/>
      <point x="1130" y="281" type="line"/>
    </contour>
  </outline>
</glyph>
<glyph name="bracketleft" format="2">
  <advance width="1229"/>
  <unicode hex="003E"/>
  <outline>
    <contour>
      <point x="94" y="-16" type="line"/>
      <point x="94" y="-16" type="line"/>
      <point x="1135" y="463" type="line"/>
      <point x="1135" y="569" type="line"/>
      <point x="94" y="1053" type="line"/>
      <point x="94" y="1053" type="line"/>
      <point x="94" y="967" type="line"/>
      <point x="1067" y="516" type="line"/>
      <point x="94" y="70" type="line"/>
    </contour>
  </outline>
</glyph>
<glyph name="backslash" format="2">
  <advance width="1063"/>
  <unicode hex="003F"/>
  <outline>
    <contour>
      <point x="166" y="1010" type="line"/>
      <point x="166" y="1188"/>
      <point x="260" y="1302" type="qcurve" smooth="yes"/>
      <point x="352" y="1417"/>
      <point x="537" y="1419" type="qcurve" smooth="yes"/>
      <point x="670" y="1419"/>
      <point x="766" y="1352" type="qcurve" smooth="yes"/>
      <point x="864" y="1282"/>
      <point x="866" y="1130" type="qcurve" smooth="yes"/>
      <point x="864" y="1024"/>
      <point x="805" y="942" type="qcurve" smooth="yes"/>
      <point x="743" y="860"/>
      <point x="664" y="790" type="qcurve" smooth="yes"/>
      <point x="588" y="723"/>
      <point x="537" y="629" type="qcurve" smooth="yes"/>
      <point x="483" y="530"/>
      <point x="483" y="371" type="qcurve"/>
      <point x="561" y="371" type="line"/>
      <point x="561" y="463"/>
      <point x="582" y="528" type="qcurve" smooth="yes"/>
      <point x="600" y="594"/>
      <point x="629" y="639" type="qcurve" smooth="yes"/>
      <point x="659" y="684"/>
      <point x="694" y="721" type="qcurve" smooth="yes"/>
      <point x="729" y="756"/>
      <point x="762" y="782" type="qcurve" smooth="yes"/>
      <point x="799" y="815"/>
      <point x="831" y="852" type="qcurve" smooth="yes"/>
      <point x="864" y="887"/>
      <point x="889" y="926" type="qcurve" smooth="yes"/>
      <point x="913" y="967"/>
      <point x="930" y="1018" type="qcurve" smooth="yes"/>
      <point x="944" y="1067"/>
      <point x="944" y="1130" type="qcurve" smooth="yes"/>
      <point x="942" y="1317"/>
      <point x="825" y="1409" type="qcurve" smooth="yes"/>
      <point x="711" y="1497"/>
      <point x="543" y="1497" type="qcurve" smooth="yes"/>
      <point x="322" y="1495"/>
      <point x="207" y="1364" type="qcurve" smooth="yes"/>
      <point x="88" y="1231"/>
      <point x="88" y="1010" type="qcurve"/>
    </contour>
    <contour>
      <point x="473" y="0" type="line"/>
      <point x="577" y="0" type="line"/>
      <point x="577" y="211" type="line"/>
      <point x="473" y="211" type="line"/>
    </contour>
  </outline>
</glyph>
<glyph name="bracketright" format="2">
  <advance width="1638"/>
  <unicode hex="0040"/>
  <outline>
    <contour>
      <point x="870" y="1120" type="line"/>
      <point x="936" y="1120"/>
      <point x="975" y="1094" type="qcurve" smooth="yes"/>
      <point x="1012" y="1069"/>
      <point x="1030" y="1030" type="qcurve" smooth="yes"/>
      <point x="1049" y="991"/>
      <point x="1055" y="950" type="qcurve" smooth="yes"/>
      <point x="1059" y="909"/>
      <point x="1059" y="879" type="qcurve" smooth="yes"/>
      <point x="1055" y="690"/>
      <point x="926" y="500" type="qcurve" smooth="yes"/>
      <point x="876" y="430"/>
      <point x="813" y="385" type="qcurve" smooth="yes"/>
      <point x="752" y="338"/>
      <point x="688" y="338" type="qcurve" smooth="yes"/>
      <point x="598" y="338"/>
      <point x="541" y="408" type="qcurve"/>
      <point x="477" y="473"/>
      <point x="477" y="588" type="qcurve" smooth="yes"/>
      <point x="479" y="764"/>
      <point x="588" y="936" type="qcurve" smooth="yes"/>
      <point x="641" y="1018"/>
      <point x="713" y="1069" type="qcurve" smooth="yes"/>
      <point x="784" y="1120"/>
      <point x="870" y="1120" type="qcurve"/>
    </contour>
    <contour>
      <point x="1247" y="1147" type="line"/>
      <point x="1163" y="1147" type="line"/>
      <point x="1116" y="1001" type="line"/>
      <point x="1112" y="1001" type="line"/>
      <point x="1100" y="1077"/>
      <point x="1040" y="1132" type="qcurve" smooth="yes"/>
      <point x="981" y="1186"/>
      <point x="883" y="1188" type="qcurve"/>
      <point x="668" y="1182"/>
      <point x="537" y="991" type="qcurve" smooth="yes"/>
      <point x="473" y="903"/>
      <point x="438" y="797" type="qcurve" smooth="yes"/>
      <point x="399" y="688"/>
      <point x="399" y="577" type="qcurve" smooth="yes"/>
      <point x="399" y="451"/>
      <point x="473" y="365" type="qcurve"/>
      <point x="543" y="272"/>
      <point x="661" y="270" type="qcurve" smooth="yes"/>
      <point x="833" y="270"/>
      <point x="936" y="416" type="qcurve"/>
      <point x="940" y="416" type="line"/>
      <point x="944" y="344"/>
      <point x="983" y="307" type="qcurve" smooth="yes"/>
      <point x="1022" y="270"/>
      <point x="1075" y="270" type="qcurve" smooth="yes"/>
      <point x="1245" y="274"/>
      <point x="1390" y="451" type="qcurve"/>
      <point x="1540" y="623"/>
      <point x="1544" y="860" type="qcurve"/>
      <point x="1540" y="1145"/>
      <point x="1343" y="1319" type="qcurve" smooth="yes"/>
      <point x="1149" y="1495"/>
      <point x="850" y="1497" type="qcurve"/>
      <point x="534" y="1493"/>
      <point x="319" y="1276" type="qcurve"/>
      <point x="98" y="1063"/>
      <point x="94" y="737" type="qcurve"/>
      <point x="96" y="410"/>
      <point x="313" y="192" type="qcurve"/>
      <point x="526" y="-31"/>
      <point x="858" y="-35" type="qcurve"/>
      <point x="1288" y="-27"/>
      <point x="1511" y="344" type="qcurve"/>
      <point x="1421" y="344" type="line"/>
      <point x="1216" y="39"/>
      <point x="858" y="33" type="qcurve"/>
      <point x="592" y="35"/>
      <point x="387" y="227" type="qcurve"/>
      <point x="176" y="418"/>
      <point x="172" y="723" type="qcurve"/>
      <point x="176" y="1020"/>
      <point x="375" y="1221" type="qcurve"/>
      <point x="567" y="1425"/>
      <point x="854" y="1429" type="qcurve"/>
      <point x="1092" y="1427"/>
      <point x="1276" y="1278" type="qcurve" smooth="yes"/>
      <point x="1462" y="1128"/>
      <point x="1466" y="866" type="qcurve"/>
      <point x="1462" y="684"/>
      <point x="1354" y="522" type="qcurve" smooth="yes"/>
      <point x="1302" y="444"/>
      <point x="1237" y="397" type="qcurve" smooth="yes"/>
      <point x="1169" y="348"/>
      <point x="1098" y="348" type="qcurve" smooth="yes"/>
      <point x="1065" y="348"/>
      <point x="1042" y="369" type="qcurve" smooth="yes"/>
      <point x="1018" y="387"/>
      <point x="1018" y="418" type="qcurve" smooth="yes"/>
      <point x="1018" y="440"/>
      <point x="1030" y="475" type="qcurve" smooth="yes"/>
      <point x="1040" y="510"/>
      <point x="1051" y="541" type="qcurve" smooth="yes"/>
    </contour>
  </outline>
</glyph>
<glyph name="asciicircum" format="2">
  <advance width="1214"/>
  <unicode hex="0041"/>
  <outline>
    <contour>
      <point x="563" y="1462" type="line"/>
      <point x="-25" y="0" type="line"/>
      <point x="72" y="0" type="line"/>
      <point x="258" y="469" type="line"/>
      <point x="958" y="469" type="line"/>
      <point x="1143" y="0" type="line"/>
      <point x="1239" y="0" type="line"/>
      <point x="661" y="1462" type="line"/>
    </contour>
    <contour>
      <point x="287" y="547" type="line"/>
      <point x="612" y="1374" type="line"/>
      <point x="616" y="1374" type="line"/>
      <point x="930" y="547" type="line"/>
    </contour>
  </outline>
</glyph>
<glyph name="underscore" format="2">
  <advance width="1290"/>
  <unicode hex="0042"/>
  <outline>
    <contour>
      <point x="219" y="721" type="line"/>
      <point x="715" y="721" type="line" smooth="yes"/>
      <point x="790" y="721"/>
      <point x="864" y="711" type="qcurve"/>
      <point x="936" y="696"/>
      <point x="999" y="659" type="qcurve"/>
      <point x="1063" y="627"/>
      <point x="1100" y="565" type="qcurve" smooth="yes"/>
      <point x="1135" y="504"/>
      <point x="1135" y="410" type="qcurve" smooth="yes"/>
      <point x="1126" y="80"/>
      <point x="715" y="78" type="qcurve" smooth="yes"/>
      <point x="219" y="78" type="line"/>
    </contour>
    <contour>
      <point x="129" y="0" type="line"/>
      <point x="715" y="0" type="line" smooth="yes"/>
      <point x="948" y="0"/>
      <point x="1085" y="106" type="qcurve" smooth="yes"/>
      <point x="1223" y="209"/>
      <point x="1225" y="410" type="qcurve" smooth="yes"/>
      <point x="1223" y="520"/>
      <point x="1182" y="594" type="qcurve"/>
      <point x="1137" y="664"/>
      <point x="1075" y="702" type="qcurve"/>
      <point x="1016" y="743"/>
      <point x="965" y="758" type="qcurve" smooth="yes"/>
      <point x="913" y="772"/>
      <point x="895" y="768" type="qcurve"/>
      <point x="891" y="772" type="line"/>
      <point x="1022" y="790"/>
      <point x="1098" y="879" type="qcurve" smooth="yes"/>
      <point x="1173" y="965"/>
      <point x="1175" y="1083" type="qcurve" smooth="yes"/>
      <point x="1175" y="1155"/>
      <point x="1155" y="1225" type="qcurve" smooth="yes"/>
      <point x="1132" y="1292"/>
      <point x="1077" y="1345" type="qcurve" smooth="yes"/>
      <point x="1026" y="1399"/>
      <point x="936" y="1431" type="qcurve" smooth="yes"/>
      <point x="848" y="1462"/>
      <point x="715" y="1462" type="qcurve" smooth="yes"/>
      <point x="129" y="1462" type="line"/>
    </contour>
    <contour>
      <point x="219" y="1384" type="line"/>
      <point x="715" y="1384" type="line" smooth="yes"/>
      <point x="866" y="1384"/>
      <point x="975" y="1323" type="qcurve"/>
      <point x="1083" y="1257"/>
      <point x="1085" y="1100" type="qcurve" smooth="yes"/>
      <point x="1083" y="807"/>
      <point x="715" y="799" type="qcurve"/>
      <point x="219" y="799" type="line"/>
    </contour>
  </outline>
</glyph>
<glyph name="grave" format="2">
  <advance width="1442"/>
  <unicode hex="0043"/>
  <outline>
    <contour>
      <point x="1358" y="1026" type="line"/>
      <point x="1360" y="1038"/>
      <point x="1339" y="1110" type="qcurve" smooth="yes"/>
      <point x="1319" y="1182"/>
      <point x="1259" y="1270" type="qcurve" smooth="yes"/>
      <point x="1200" y="1360"/>
      <point x="1083" y="1427" type="qcurve" smooth="yes"/>
      <point x="965" y="1495"/>
      <point x="770" y="1497" type="qcurve"/>
      <point x="438" y="1493"/>
      <point x="258" y="1276" type="qcurve"/>
      <point x="76" y="1063"/>
      <point x="74" y="731" type="qcurve" smooth="yes"/>
      <point x="76" y="403"/>
      <point x="258" y="190" type="qcurve" smooth="yes"/>
      <point x="348" y="86"/>
      <point x="477" y="27" type="qcurve" smooth="yes"/>
      <point x="606" y="-33"/>
      <point x="770" y="-35" type="qcurve"/>
      <point x="1018" y="-31"/>
      <point x="1186" y="139" type="qcurve"/>
      <point x="1354" y="303"/>
      <point x="1382" y="569" type="qcurve"/>
      <point x="1292" y="569" type="line"/>
      <point x="1276" y="360"/>
      <point x="1132" y="205" type="qcurve" smooth="yes"/>
      <point x="989" y="47"/>
      <point x="770" y="43" type="qcurve"/>
      <point x="481" y="47"/>
      <point x="326" y="248" type="qcurve"/>
      <point x="164" y="444"/>
      <point x="164" y="731" type="qcurve" smooth="yes"/>
      <point x="164" y="1022"/>
      <point x="326" y="1216" type="qcurve"/>
      <point x="481" y="1415"/>
      <point x="770" y="1419" type="qcurve"/>
      <point x="958" y="1417"/>
      <point x="1098" y="1315" type="qcurve" smooth="yes"/>
      <point x="1235" y="1212"/>
      <point x="1268" y="1026" type="qcurve"/>
    </contour>
  </outline>
</glyph>
<glyph name="a" format="2">
  <advance width="1366"/>
  <unicode hex="0044"/>
  <outline>
    <contour>
      <point x="219" y="1384" type="line"/>
      <point x="594" y="1384" type="line" smooth="yes"/>
      <point x="680" y="1384"/>
      <point x="782" y="1368" type="qcurve" smooth="yes"/>
      <point x="883" y="1350"/>
      <point x="977" y="1284" type="qcurve" smooth="yes"/>
      <point x="1071" y="1221"/>
      <point x="1132" y="1089" type="qcurve" smooth="yes"/>
      <point x="1192" y="956"/>
      <point x="1194" y="733" type="qcurve"/>
      <point x="1188" y="362"/>
      <point x="1008" y="217" type="qcurve" smooth="yes"/>
      <point x="829" y="74"/>
      <point x="612" y="78" type="qcurve"/>
      <point x="219" y="78" type="line"/>
    </contour>
    <contour>
      <point x="129" y="0" type="line"/>
      <point x="604" y="0" type="line" smooth="yes"/>
      <point x="956" y="2"/>
      <point x="1122" y="213" type="qcurve" smooth="yes"/>
      <point x="1284" y="416"/>
      <point x="1284" y="733" type="qcurve"/>
      <point x="1288" y="1024"/>
      <point x="1145" y="1239" type="qcurve"/>
      <point x="995" y="1456"/>
      <point x="608" y="1462" type="qcurve"/>
      <point x="129" y="1462" type="line"/>
    </contour>
  </outline>
</glyph>
<glyph name="b" format="2">
  <advance width="1147"/>
  <unicode hex="0045"/>
  <outline>
    <contour>
      <point x="219" y="78" type="line"/>
      <point x="219" y="721" type="line"/>
      <point x="1059" y="721" type="line"/>
      <point x="1059" y="799" type="line"/>
      <point x="219" y="799" type="line"/>
      <point x="219" y="1384" type="line"/>
      <point x="1112" y="1384" type="line"/>
      <point x="1112" y="1462" type="line"/>
      <point x="129" y="1462" type="line"/>
      <point x="129" y="0" type="line"/>
      <point x="1122" y="0" type="line"/>
      <point x="1122" y="78" type="line"/>
    </contour>
  </outline>
</glyph>
<glyph name="c" format="2">
  <advance width="1053"/>
  <unicode hex="0046"/>
  <outline>
    <contour>
      <point x="965" y="721" type="line"/>
      <point x="965" y="799" type="line"/>
      <point x="219" y="799" type="line"/>
      <point x="219" y="1384" type="line"/>
      <point x="1046" y="1384" type="line"/>
      <point x="1046" y="1462" type="line"/>
      <point x="129" y="1462" type="line"/>
      <point x="129" y="0" type="line"/>
      <point x="219" y="0" type="line"/>
      <point x="219" y="721" type="line"/>
    </contour>
  </outline>
</glyph>
<glyph name="d" format="2">
  <advance width="1517"/>
  <unicode hex="0047"/>
  <outline>
    <contour>
      <point x="782" y="717" type="line"/>
      <point x="782" y="639" type="line"/>
      <point x="1321" y="639" type="line"/>
      <point x="1329" y="369"/>
      <point x="1182" y="207" type="qcurve" smooth="yes"/>
      <point x="1034" y="45"/>
      <point x="768" y="43" type="qcurve"/>
      <point x="467" y="47"/>
      <point x="317" y="244" type="qcurve" smooth="yes"/>
      <point x="166" y="436"/>
      <point x="166" y="723" type="qcurve" smooth="yes"/>
      <point x="166" y="1005"/>
      <point x="322" y="1208" type="qcurve"/>
      <point x="473" y="1415"/>
      <point x="768" y="1419" type="qcurve"/>
      <point x="1178" y="1411"/>
      <point x="1288" y="1010" type="qcurve"/>
      <point x="1374" y="1010" type="line"/>
      <point x="1333" y="1243"/>
      <point x="1165" y="1370" type="qcurve" smooth="yes"/>
      <point x="997" y="1495"/>
      <point x="766" y="1497" type="qcurve"/>
      <point x="436" y="1491"/>
      <point x="258" y="1266" type="qcurve"/>
      <point x="76" y="1044"/>
      <point x="76" y="723" type="qcurve" smooth="yes"/>
      <point x="76" y="401"/>
      <point x="254" y="188" type="qcurve" smooth="yes"/>
      <point x="342" y="86"/>
      <point x="471" y="27" type="qcurve" smooth="yes"/>
      <point x="598" y="-33"/>
      <point x="764" y="-35" type="qcurve" smooth="yes"/>
      <point x="960" y="-33"/>
      <point x="1112" y="59" type="qcurve" smooth="yes"/>
      <point x="1261" y="149"/>
      <point x="1317" y="311" type="qcurve"/>
      <point x="1321" y="311" type="line"/>
      <point x="1321" y="0" type="line"/>
      <point x="1399" y="0" type="line"/>
      <point x="1399" y="717" type="line"/>
    </contour>
  </outline>
</glyph>
<glyph name="e" format="2">
  <advance width="1372"/>
  <unicode hex="0048"/>
  <outline>
    <contour>
      <point x="1153" y="721" type="line"/>
      <point x="1153" y="0" type="line"/>
      <point x="1243" y="0" type="line"/>
      <point x="1243" y="1462" type="line"/>
      <point x="1153" y="1462" type="line"/>
      <point x="1153" y="799" type="line"/>
      <point x="219" y="799" type="line"/>
      <point x="219" y="1462" type="line"/>
      <point x="129" y="1462" type="line"/>
      <point x="129" y="0" type="line"/>
      <point x="219" y="0" type="line"/>
      <point x="219" y="721" type="line"/>
    </contour>
  </outline>
</glyph>
<glyph name="f" format="2">
  <advance width="348"/>
  <unicode hex="0049"/>
  <outline>
    <contour>
      <point x="129" y="0" type="line"/>
      <point x="219" y="0" type="line"/>
      <point x="219" y="1462" type="line"/>
      <point x="129" y="1462" type="line"/>
    </contour>
  </outline>
</glyph>
<glyph name="g" format="2">
  <advance width="985"/>
  <unicode hex="004A"/>
  <outline>
    <contour>
      <point x="41" y="465" type="line"/>
      <point x="39" y="385"/>
      <point x="53" y="297" type="qcurve" smooth="yes"/>
      <point x="63" y="211"/>
      <point x="102" y="135" type="qcurve" smooth="yes"/>
      <point x="141" y="61"/>
      <point x="225" y="14" type="qcurve" smooth="yes"/>
      <point x="309" y="-33"/>
      <point x="455" y="-35" type="qcurve" smooth="yes"/>
      <point x="608" y="-33"/>
      <point x="692" y="18" type="qcurve" smooth="yes"/>
      <point x="774" y="70"/>
      <point x="809" y="147" type="qcurve" smooth="yes"/>
      <point x="844" y="225"/>
      <point x="852" y="307" type="qcurve" smooth="yes"/>
      <point x="856" y="389"/>
      <point x="856" y="455" type="qcurve" smooth="yes"/>
      <point x="856" y="1462" type="line"/>
      <point x="766" y="1462" type="line"/>
      <point x="766" y="485" type="line" smooth="yes"/>
      <point x="766" y="410"/>
      <point x="764" y="334" type="qcurve" smooth="yes"/>
      <point x="760" y="256"/>
      <point x="733" y="190" type="qcurve" smooth="yes"/>
      <point x="707" y="125"/>
      <point x="641" y="86" type="qcurve" smooth="yes"/>
      <point x="571" y="43"/>
      <point x="444" y="43" type="qcurve" smooth="yes"/>
      <point x="338" y="43"/>
      <point x="272" y="80" type="qcurve" smooth="yes"/>
      <point x="207" y="115"/>
      <point x="174" y="174" type="qcurve" smooth="yes"/>
      <point x="143" y="233"/>
      <point x="135" y="309" type="qcurve" smooth="yes"/>
      <point x="127" y="385"/>
      <point x="131" y="465" type="qcurve"/>
    </contour>
  </outline>
</glyph>
<glyph name="h" format="2">
  <advance width="1255"/>
  <unicode hex="004B"/>
  <outline>
    <contour>
      <point x="129" y="0" type="line"/>
      <point x="219" y="0" type="line"/>
      <point x="219" y="516" type="line"/>
      <point x="522" y="793" type="line"/>
      <point x="522" y="793" type="line"/>
      <point x="1184" y="0" type="line"/>
      <point x="1296" y="0" type="line"/>
      <point x="588" y="854" type="line"/>
      <point x="1255" y="1462" type="line"/>
      <point x="1139" y="1462" type="line"/>
      <point x="219" y="620" type="line"/>
      <point x="219" y="620" type="line"/>
      <point x="219" y="1462" type="line"/>
      <point x="129" y="1462" type="line"/>
    </contour>
  </outline>
</glyph>
<glyph name="i" format="2">
  <advance width="1024"/>
  <unicode hex="004C"/>
  <outline>
    <contour>
      <point x="129" y="0" type="line"/>
      <point x="1049" y="0" type="line"/>
      <point x="1049" y="78" type="line"/>
      <point x="219" y="78" type="line"/>
      <point x="219" y="1462" type="line"/>
      <point x="129" y="1462" type="line"/>
    </contour>
  </outline>
</glyph>
<glyph name="j" format="2">
  <advance width="1657"/>
  <unicode hex="004D"/>
  <outline>
    <contour>
      <point x="129" y="0" type="line"/>
      <point x="219" y="0" type="line"/>
      <point x="219" y="1352" type="line"/>
      <point x="223" y="1352" type="line"/>
      <point x="786" y="0" type="line"/>
      <point x="876" y="0" type="line"/>
      <point x="1433" y="1352" type="line"/>
      <point x="1438" y="1352" type="line"/>
      <point x="1438" y="0" type="line"/>
      <point x="1528" y="0" type="line"/>
      <point x="1528" y="1462" type="line"/>
      <point x="1399" y="1462" type="line"/>
      <point x="833" y="100" type="line"/>
      <point x="829" y="100" type="line"/>
      <point x="258" y="1462" type="line"/>
      <point x="129" y="1462" type="line"/>
    </contour>
  </outline>
</glyph>
<glyph name="k" format="2">
  <advance width="1388"/>
  <unicode hex="004E"/>
  <outline>
    <contour>
      <point x="129" y="0" type="line"/>
      <point x="219" y="0" type="line"/>
      <point x="219" y="1352" type="line"/>
      <point x="223" y="1352" type="line"/>
      <point x="1153" y="0" type="line"/>
      <point x="1259" y="0" type="line"/>
      <point x="1259" y="1462" type="line"/>
      <point x="1169" y="1462" type="line"/>
      <point x="1169" y="121" type="line"/>
      <point x="1165" y="121" type="line"/>
      <point x="242" y="1462" type="line"/>
      <point x="129" y="1462" type="line"/>
    </contour>
  </outline>
</glyph>
<glyph name="l" format="2">
  <advance width="1517"/>
  <unicode hex="004F"/>
  <outline>
    <contour>
      <point x="1454" y="731" type="line"/>
      <point x="1452" y="1063"/>
      <point x="1272" y="1276" type="qcurve" smooth="yes"/>
      <point x="1092" y="1493"/>
      <point x="760" y="1497" type="qcurve"/>
      <point x="428" y="1493"/>
      <point x="248" y="1276" type="qcurve"/>
      <point x="66" y="1063"/>
      <point x="63" y="731" type="qcurve"/>
      <point x="66" y="403"/>
      <point x="248" y="190" type="qcurve" smooth="yes"/>
      <point x="338" y="86"/>
      <point x="467" y="27" type="qcurve" smooth="yes"/>
      <point x="596" y="-33"/>
      <point x="760" y="-35" type="qcurve" smooth="yes"/>
      <point x="926" y="-33"/>
      <point x="1055" y="27" type="qcurve" smooth="yes"/>
      <point x="1184" y="86"/>
      <point x="1272" y="190" type="qcurve" smooth="yes"/>
      <point x="1452" y="403"/>
      <point x="1454" y="731" type="qcurve"/>
    </contour>
    <contour>
      <point x="154" y="731" type="line"/>
      <point x="154" y="1022"/>
      <point x="315" y="1216" type="qcurve"/>
      <point x="471" y="1415"/>
      <point x="760" y="1419" type="qcurve"/>
      <point x="1049" y="1415"/>
      <point x="1206" y="1216" type="qcurve" smooth="yes"/>
      <point x="1362" y="1022"/>
      <point x="1364" y="731" type="qcurve" smooth="yes"/>
      <point x="1362" y="444"/>
      <point x="1206" y="248" type="qcurve" smooth="yes"/>
      <point x="1049" y="47"/>
      <point x="760" y="43" type="qcurve"/>
      <point x="471" y="47"/>
      <point x="315" y="248" type="qcurve"/>
      <point x="154" y="444"/>
      <point x="154" y="731" type="qcurve"/>
    </contour>
  </outline>
</glyph>
<glyph name="m" format="2">
  <advance width="1210"/>
  <unicode hex="0050"/>
  <outline>
    <contour>
      <point x="219" y="1384" type="line"/>
      <point x="745" y="1384" type="line" smooth="yes"/>
      <point x="856" y="1384"/>
      <point x="926" y="1350" type="qcurve" smooth="yes"/>
      <point x="993" y="1315"/>
      <point x="1028" y="1261" type="qcurve" smooth="yes"/>
      <point x="1063" y="1208"/>
      <point x="1077" y="1155" type="qcurve"/>
      <point x="1087" y="1100"/>
      <point x="1087" y="1055" type="qcurve" smooth="yes"/>
      <point x="1087" y="999"/>
      <point x="1071" y="942" type="qcurve" smooth="yes"/>
      <point x="1053" y="885"/>
      <point x="1010" y="838" type="qcurve" smooth="yes"/>
      <point x="971" y="790"/>
      <point x="903" y="762" type="qcurve" smooth="yes"/>
      <point x="833" y="729"/>
      <point x="733" y="729" type="qcurve" smooth="yes"/>
      <point x="219" y="729" type="line"/>
    </contour>
    <contour>
      <point x="129" y="0" type="line"/>
      <point x="219" y="0" type="line"/>
      <point x="219" y="651" type="line"/>
      <point x="719" y="651" type="line"/>
      <point x="1171" y="655"/>
      <point x="1178" y="1053" type="qcurve" smooth="yes"/>
      <point x="1178" y="1184"/>
      <point x="1137" y="1266" type="qcurve" smooth="yes"/>
      <point x="1096" y="1347"/>
      <point x="1028" y="1390" type="qcurve" smooth="yes"/>
      <point x="962" y="1433"/>
      <point x="891" y="1450" type="qcurve"/>
      <point x="817" y="1462"/>
      <point x="752" y="1462" type="qcurve" smooth="yes"/>
      <point x="129" y="1462" type="line"/>
    </contour>
  </outline>
</glyph>
<glyph name="n" format="2">
  <advance width="1517"/>
  <unicode hex="0051"/>
  <outline>
    <contour>
      <point x="1163" y="203" type="line"/>
      <point x="928" y="373" type="line"/>
      <point x="928" y="373" type="line"/>
      <point x="881" y="309" type="line"/>
      <point x="1102" y="152" type="line"/>
      <point x="962" y="43"/>
      <point x="760" y="43" type="qcurve" smooth="yes"/>
      <point x="471" y="47"/>
      <point x="315" y="248" type="qcurve"/>
      <point x="154" y="444"/>
      <point x="154" y="731" type="qcurve" smooth="yes"/>
      <point x="154" y="1022"/>
      <point x="315" y="1216" type="qcurve"/>
      <point x="471" y="1415"/>
      <point x="760" y="1419" type="qcurve"/>
      <point x="1049" y="1415"/>
      <point x="1206" y="1216" type="qcurve" smooth="yes"/>
      <point x="1362" y="1022"/>
      <point x="1364" y="731" type="qcurve" smooth="yes"/>
      <point x="1362" y="405"/>
      <point x="1163" y="203" type="qcurve"/>
    </contour>
    <contour>
      <point x="1173" y="98" type="line"/>
      <point x="1415" y="-76" type="line"/>
      <point x="1415" y="-76" type="line"/>
      <point x="1462" y="-12" type="line"/>
      <point x="1235" y="152" type="line"/>
      <point x="1452" y="365"/>
      <point x="1454" y="731" type="qcurve" smooth="yes"/>
      <point x="1452" y="1063"/>
      <point x="1272" y="1276" type="qcurve" smooth="yes"/>
      <point x="1092" y="1493"/>
      <point x="760" y="1497" type="qcurve"/>
      <point x="428" y="1493"/>
      <point x="248" y="1276" type="qcurve"/>
      <point x="66" y="1063"/>
      <point x="63" y="731" type="qcurve"/>
      <point x="66" y="403"/>
      <point x="248" y="190" type="qcurve" smooth="yes"/>
      <point x="338" y="86"/>
      <point x="467" y="27" type="qcurve" smooth="yes"/>
      <point x="596" y="-33"/>
      <point x="760" y="-35" type="qcurve" smooth="yes"/>
      <point x="1008" y="-33"/>
      <point x="1173" y="98" type="qcurve"/>
    </contour>
  </outline>
</glyph>
<glyph name="o" format="2">
  <advance width="1290"/>
  <unicode hex="0052"/>
  <outline>
    <contour>
      <point x="219" y="743" type="line"/>
      <point x="219" y="1384" type="line"/>
      <point x="739" y="1384" type="line" smooth="yes"/>
      <point x="893" y="1384"/>
      <point x="1001" y="1317" type="qcurve" smooth="yes"/>
      <point x="1110" y="1245"/>
      <point x="1112" y="1079" type="qcurve" smooth="yes"/>
      <point x="1110" y="905"/>
      <point x="1008" y="825" type="qcurve" smooth="yes"/>
      <point x="903" y="743"/>
      <point x="739" y="743" type="qcurve" smooth="yes"/>
    </contour>
    <contour>
      <point x="129" y="0" type="line"/>
      <point x="219" y="0" type="line"/>
      <point x="219" y="666" type="line"/>
      <point x="739" y="666" type="line" smooth="yes"/>
      <point x="838" y="666"/>
      <point x="901" y="647" type="qcurve" smooth="yes"/>
      <point x="965" y="627"/>
      <point x="1001" y="592" type="qcurve" smooth="yes"/>
      <point x="1040" y="559"/>
      <point x="1061" y="512" type="qcurve" smooth="yes"/>
      <point x="1079" y="465"/>
      <point x="1083" y="410" type="qcurve" smooth="yes"/>
      <point x="1092" y="301"/>
      <point x="1089" y="190" type="qcurve" smooth="yes"/>
      <point x="1089" y="137"/>
      <point x="1098" y="90" type="qcurve" smooth="yes"/>
      <point x="1102" y="66"/>
      <point x="1108" y="45" type="qcurve" smooth="yes"/>
      <point x="1114" y="20"/>
      <point x="1122" y="0" type="qcurve"/>
      <point x="1223" y="0" type="line"/>
      <point x="1184" y="61"/>
      <point x="1184" y="170" type="qcurve" smooth="yes"/>
      <point x="1182" y="276"/>
      <point x="1173" y="393" type="qcurve"/>
      <point x="1169" y="510"/>
      <point x="1108" y="600" type="qcurve" smooth="yes"/>
      <point x="1077" y="643"/>
      <point x="1026" y="672" type="qcurve"/>
      <point x="971" y="696"/>
      <point x="889" y="707" type="qcurve"/>
      <point x="889" y="711" type="line"/>
      <point x="1196" y="776"/>
      <point x="1202" y="1085" type="qcurve"/>
      <point x="1200" y="1294"/>
      <point x="1069" y="1380" type="qcurve" smooth="yes"/>
      <point x="938" y="1464"/>
      <point x="739" y="1462" type="qcurve" smooth="yes"/>
      <point x="129" y="1462" type="line"/>
    </contour>
  </outline>
</glyph>
<glyph name="p" format="2">
  <advance width="1290"/>
  <unicode hex="0053"/>
  <outline>
    <contour>
      <point x="1173" y="1044" type="line"/>
      <point x="1159" y="1284"/>
      <point x="1005" y="1393" type="qcurve"/>
      <point x="850" y="1497"/>
      <point x="614" y="1497" type="qcurve" smooth="yes"/>
      <point x="434" y="1497"/>
      <point x="283" y="1409" type="qcurve" smooth="yes"/>
      <point x="127" y="1319"/>
      <point x="123" y="1108" type="qcurve" smooth="yes"/>
      <point x="123" y="1005"/>
      <point x="168" y="938" type="qcurve" smooth="yes"/>
      <point x="209" y="872"/>
      <point x="281" y="829" type="qcurve" smooth="yes"/>
      <point x="352" y="790"/>
      <point x="440" y="766" type="qcurve" smooth="yes"/>
      <point x="483" y="754"/>
      <point x="530" y="743" type="qcurve" smooth="yes"/>
      <point x="573" y="731"/>
      <point x="620" y="719" type="qcurve" smooth="yes"/>
      <point x="717" y="702"/>
      <point x="807" y="682" type="qcurve" smooth="yes"/>
      <point x="893" y="661"/>
      <point x="965" y="625" type="qcurve" smooth="yes"/>
      <point x="1036" y="588"/>
      <point x="1079" y="530" type="qcurve" smooth="yes"/>
      <point x="1120" y="471"/>
      <point x="1120" y="377" type="qcurve" smooth="yes"/>
      <point x="1120" y="283"/>
      <point x="1081" y="219" type="qcurve" smooth="yes"/>
      <point x="1040" y="156"/>
      <point x="975" y="117" type="qcurve" smooth="yes"/>
      <point x="911" y="78"/>
      <point x="840" y="61" type="qcurve" smooth="yes"/>
      <point x="766" y="43"/>
      <point x="696" y="43" type="qcurve" smooth="yes"/>
      <point x="475" y="41"/>
      <point x="319" y="145" type="qcurve" smooth="yes"/>
      <point x="166" y="248"/>
      <point x="170" y="483" type="qcurve"/>
      <point x="80" y="483" type="line"/>
      <point x="84" y="205"/>
      <point x="260" y="84" type="qcurve" smooth="yes"/>
      <point x="434" y="-35"/>
      <point x="696" y="-35" type="qcurve" smooth="yes"/>
      <point x="876" y="-35"/>
      <point x="1038" y="59" type="qcurve" smooth="yes"/>
      <point x="1204" y="152"/>
      <point x="1210" y="377" type="qcurve" smooth="yes"/>
      <point x="1210" y="487"/>
      <point x="1169" y="559" type="qcurve" smooth="yes"/>
      <point x="1126" y="629"/>
      <point x="1055" y="672" type="qcurve" smooth="yes"/>
      <point x="983" y="715"/>
      <point x="897" y="741" type="qcurve" smooth="yes"/>
      <point x="807" y="766"/>
      <point x="711" y="782" type="qcurve"/>
      <point x="664" y="795"/>
      <point x="620" y="805" type="qcurve" smooth="yes"/>
      <point x="573" y="813"/>
      <point x="530" y="825" type="qcurve" smooth="yes"/>
      <point x="442" y="846"/>
      <point x="371" y="879" type="qcurve" smooth="yes"/>
      <point x="299" y="911"/>
      <point x="258" y="969" type="qcurve"/>
      <point x="213" y="1024"/>
      <point x="213" y="1108" type="qcurve" smooth="yes"/>
      <point x="213" y="1200"/>
      <point x="254" y="1259" type="qcurve" smooth="yes"/>
      <point x="293" y="1321"/>
      <point x="352" y="1356" type="qcurve"/>
      <point x="481" y="1421"/>
      <point x="614" y="1419" type="qcurve" smooth="yes"/>
      <point x="819" y="1419"/>
      <point x="948" y="1327" type="qcurve" smooth="yes"/>
      <point x="1075" y="1233"/>
      <point x="1083" y="1044" type="qcurve"/>
    </contour>
  </outline>
</glyph>
<glyph name="q" format="2">
  <advance width="1063"/>
  <unicode hex="0054"/>
  <outline>
    <contour>
      <point x="485" y="1384" type="line"/>
      <point x="485" y="0" type="line"/>
      <point x="575" y="0" type="line"/>
      <point x="575" y="1384" type="line"/>
      <point x="1092" y="1384" type="line"/>
      <point x="1092" y="1462" type="line"/>
      <point x="-29" y="1462" type="line"/>
      <point x="-29" y="1384" type="line"/>
    </contour>
  </outline>
</glyph>
<glyph name="r" format="2">
  <advance width="1376"/>
  <unicode hex="0055"/>
  <outline>
    <contour>
      <point x="129" y="1462" type="line"/>
      <point x="129" y="586" type="line" smooth="yes"/>
      <point x="127" y="512"/>
      <point x="143" y="408" type="qcurve" smooth="yes"/>
      <point x="158" y="303"/>
      <point x="209" y="203" type="qcurve" smooth="yes"/>
      <point x="262" y="102"/>
      <point x="375" y="35" type="qcurve" smooth="yes"/>
      <point x="487" y="-33"/>
      <point x="678" y="-35" type="qcurve"/>
      <point x="1001" y="-31"/>
      <point x="1128" y="147" type="qcurve" smooth="yes"/>
      <point x="1249" y="319"/>
      <point x="1247" y="586" type="qcurve" smooth="yes"/>
      <point x="1247" y="1462" type="line"/>
      <point x="1157" y="1462" type="line"/>
      <point x="1157" y="586" type="line" smooth="yes"/>
      <point x="1159" y="334"/>
      <point x="1055" y="190" type="qcurve"/>
      <point x="944" y="45"/>
      <point x="678" y="43" type="qcurve" smooth="yes"/>
      <point x="522" y="45"/>
      <point x="430" y="104" type="qcurve" smooth="yes"/>
      <point x="336" y="162"/>
      <point x="291" y="250" type="qcurve" smooth="yes"/>
      <point x="248" y="338"/>
      <point x="233" y="428" type="qcurve" smooth="yes"/>
      <point x="219" y="520"/>
      <point x="219" y="586" type="qcurve" smooth="yes"/>
      <point x="219" y="1462" type="line"/>
    </contour>
  </outline>
</glyph>
<glyph name="s" format="2">
  <advance width="1139"/>
  <unicode hex="0056"/>
  <outline>
    <contour>
      <point x="66" y="1462" type="line"/>
      <point x="-29" y="1462" type="line"/>
      <point x="516" y="0" type="line"/>
      <point x="620" y="0" type="line"/>
      <point x="1167" y="1462" type="line"/>
      <point x="1077" y="1462" type="line"/>
      <point x="571" y="78" type="line"/>
      <point x="567" y="78" type="line"/>
    </contour>
  </outline>
</glyph>
<glyph name="t" format="2">
  <advance width="1821"/>
  <unicode hex="0057"/>
  <outline>
    <contour>
      <point x="410" y="0" type="line"/>
      <point x="510" y="0" type="line"/>
      <point x="905" y="1384" type="line"/>
      <point x="909" y="1384" type="line"/>
      <point x="1311" y="0" type="line"/>
      <point x="1413" y="0" type="line"/>
      <point x="1833" y="1462" type="line"/>
      <point x="1737" y="1462" type="line"/>
      <point x="1362" y="96" type="line"/>
      <point x="1358" y="96" type="line"/>
      <point x="965" y="1462" type="line"/>
      <point x="852" y="1462" type="line"/>
      <point x="465" y="96" type="line"/>
      <point x="461" y="96" type="line"/>
      <point x="80" y="1462" type="line"/>
      <point x="-12" y="1462" type="line"/>
    </contour>
  </outline>
</glyph>
<glyph name="u" format="2">
  <advance width="1139"/>
  <unicode hex="0058"/>
  <outline>
    <contour>
      <point x="514" y="752" type="line"/>
      <point x="-35" y="0" type="line"/>
      <point x="72" y="0" type="line"/>
      <point x="569" y="684" type="line"/>
      <point x="569" y="684" type="line"/>
      <point x="1065" y="0" type="line"/>
      <point x="1173" y="0" type="line"/>
      <point x="629" y="752" type="line"/>
      <point x="1145" y="1462" type="line"/>
      <point x="1042" y="1462" type="line"/>
      <point x="569" y="819" type="line"/>
      <point x="569" y="819" type="line"/>
      <point x="106" y="1462" type="line"/>
      <point x="2" y="1462" type="line"/>
    </contour>
  </outline>
</glyph>
<glyph name="v" format="2">
  <advance width="1175"/>
  <unicode hex="0059"/>
  <outline>
    <contour>
      <point x="588" y="688" type="line"/>
      <point x="588" y="688" type="line"/>
      <point x="59" y="1462" type="line"/>
      <point x="-43" y="1462" type="line"/>
      <point x="541" y="612" type="line"/>
      <point x="541" y="0" type="line"/>
      <point x="631" y="0" type="line"/>
      <point x="631" y="612" type="line"/>
      <point x="1218" y="1462" type="line"/>
      <point x="1118" y="1462" type="line"/>
    </contour>
  </outline>
</glyph>
<glyph name="w" format="2">
  <advance width="1100"/>
  <unicode hex="005A"/>
  <outline>
    <contour>
      <point x="57" y="1384" type="line"/>
      <point x="985" y="1384" type="line"/>
      <point x="-2" y="78" type="line"/>
      <point x="-2" y="0" type="line"/>
      <point x="1102" y="0" type="line"/>
      <point x="1102" y="78" type="line"/>
      <point x="92" y="78" type="line"/>
      <point x="1083" y="1384" type="line"/>
      <point x="1083" y="1462" type="line"/>
      <point x="57" y="1462" type="line"/>
    </contour>
  </outline>
</glyph>
<glyph name="x" format="2">
  <advance width="494"/>
  <unicode hex="005B"/>
  <outline>
    <contour>
      <point x="473" y="1429" type="line"/>
      <point x="473" y="1497" type="line"/>
      <point x="192" y="1497" type="line"/>
      <point x="192" y="-377" type="line"/>
      <point x="473" y="-377" type="line"/>
      <point x="473" y="-309" type="line"/>
      <point x="270" y="-309" type="line"/>
      <point x="270" y="1429" type="line"/>
    </contour>
  </outline>
</glyph>
<glyph name="z" format="2">
  <advance width="494"/>
  <unicode hex="005D"/>
  <outline>
    <contour>
      <point x="20" y="-309" type="line"/>
      <point x="20" y="-377" type="line"/>
      <point x="301" y="-377" type="line"/>
      <point x="301" y="1497" type="line"/>
      <point x="20" y="1497" type="line"/>
      <point x="20" y="1429" type="line"/>
      <point x="223" y="1429" type="line"/>
      <point x="223" y="-309" type="line"/>
    </contour>
  </outline>
</glyph>
<glyph name="braceleft" format="2">
  <advance width="1229"/>
  <unicode hex="005E"/>
  <outline>
    <contour>
      <point x="1149" y="485" type="line"/>
      <point x="670" y="1413" type="line"/>
      <point x="563" y="1413" type="line"/>
      <point x="80" y="485" type="line"/>
      <point x="166" y="485" type="line"/>
      <point x="616" y="1345" type="line"/>
      <point x="616" y="1345" type="line"/>
      <point x="1063" y="485" type="line"/>
    </contour>
  </outline>
</glyph>
<glyph name="bar" format="2">
  <advance width="1024"/>
  <unicode hex="005F"/>
  <outline>
    <contour>
      <point x="1024" y="-256" type="line"/>
      <point x="1024" y="-154" type="line"/>
      <point x="0" y="-154" type="line"/>
      <point x="0" y="-256" type="line"/>
    </contour>
  </outline>
</glyph>
<glyph name="braceright" format="2">
  <advance width="342"/>
  <unicode hex="0060"/>
  <outline>
    <contour>
      <point x="289" y="1210" type="line"/>
      <point x="43" y="1497" type="line"/>
      <point x="-61" y="1497" type="line"/>
      <point x="213" y="1210" type="line"/>
    </contour>
  </outline>
</glyph>
<glyph name="asciitilde" format="2">
  <advance width="1024"/>
  <unicode hex="0061"/>
  <outline>
    <contour>
      <point x="813" y="598" type="line"/>
      <point x="813" y="401" type="line" smooth="yes"/>
      <point x="813" y="381"/>
      <point x="803" y="324" type="qcurve" smooth="yes"/>
      <point x="790" y="266"/>
      <point x="752" y="203" type="qcurve" smooth="yes"/>
      <point x="713" y="139"/>
      <point x="633" y="94" type="qcurve"/>
      <point x="555" y="43"/>
      <point x="420" y="43" type="qcurve" smooth="yes"/>
      <point x="283" y="45"/>
      <point x="215" y="111" type="qcurve"/>
      <point x="143" y="174"/>
      <point x="143" y="272" type="qcurve" smooth="yes"/>
      <point x="145" y="498"/>
      <point x="432" y="516" type="qcurve"/>
      <point x="549" y="528"/>
      <point x="657" y="541" type="qcurve" smooth="yes"/>
      <point x="711" y="547"/>
      <point x="750" y="561" type="qcurve" smooth="yes"/>
      <point x="790" y="573"/>
      <point x="813" y="598" type="qcurve"/>
    </contour>
    <contour>
      <point x="891" y="803" type="line" smooth="yes"/>
      <point x="889" y="962"/>
      <point x="776" y="1022" type="qcurve" smooth="yes"/>
      <point x="666" y="1079"/>
      <point x="522" y="1077" type="qcurve" smooth="yes"/>
      <point x="143" y="1077"/>
      <point x="121" y="729" type="qcurve"/>
      <point x="199" y="729" type="line"/>
      <point x="227" y="1008"/>
      <point x="522" y="1010" type="qcurve" smooth="yes"/>
      <point x="614" y="1010"/>
      <point x="672" y="987" type="qcurve"/>
      <point x="729" y="960"/>
      <point x="760" y="926" type="qcurve" smooth="yes"/>
      <point x="793" y="891"/>
      <point x="805" y="858" type="qcurve" smooth="yes"/>
      <point x="815" y="823"/>
      <point x="815" y="803" type="qcurve" smooth="yes"/>
      <point x="815" y="739"/>
      <point x="809" y="702" type="qcurve" smooth="yes"/>
      <point x="801" y="664"/>
      <point x="766" y="639" type="qcurve" smooth="yes"/>
      <point x="704" y="598"/>
      <point x="453" y="584" type="qcurve" smooth="yes"/>
      <point x="422" y="584"/>
      <point x="389" y="580" type="qcurve" smooth="yes"/>
      <point x="356" y="573"/>
      <point x="322" y="565" type="qcurve" smooth="yes"/>
      <point x="254" y="551"/>
      <point x="195" y="516" type="qcurve" smooth="yes"/>
      <point x="137" y="483"/>
      <point x="102" y="426" type="qcurve" smooth="yes"/>
      <point x="66" y="365"/>
      <point x="66" y="272" type="qcurve" smooth="yes"/>
      <point x="68" y="109"/>
      <point x="168" y="43" type="qcurve" smooth="yes"/>
      <point x="266" y="-25"/>
      <point x="418" y="-25" type="qcurve" smooth="yes"/>
      <point x="569" y="-23"/>
      <point x="672" y="47" type="qcurve" smooth="yes"/>
      <point x="772" y="115"/>
      <point x="809" y="209" type="qcurve"/>
      <point x="813" y="209" type="line"/>
      <point x="813" y="154" type="line" smooth="yes"/>
      <point x="811" y="88"/>
      <point x="840" y="47" type="qcurve"/>
      <point x="864" y="0"/>
      <point x="954" y="0" type="qcurve" smooth="yes"/>
      <point x="985" y="0"/>
      <point x="1018" y="8" type="qcurve"/>
      <point x="1018" y="74" type="line"/>
      <point x="981" y="68"/>
      <point x="960" y="68" type="qcurve" smooth="yes"/>
      <point x="911" y="68"/>
      <point x="901" y="109" type="qcurve" smooth="yes"/>
      <point x="889" y="147"/>
      <point x="891" y="195" type="qcurve" smooth="yes"/>
    </contour>
  </outline>
</glyph>
<glyph name="Adieresis" format="2">
  <advance width="1139"/>
  <unicode hex="0062"/>
  <outline>
    <contour>
      <point x="614" y="43" type="line"/>
      <point x="401" y="47"/>
      <point x="307" y="201" type="qcurve"/>
      <point x="211" y="350"/>
      <point x="213" y="551" type="qcurve" smooth="yes"/>
      <point x="213" y="754"/>
      <point x="311" y="881" type="qcurve" smooth="yes"/>
      <point x="410" y="1008"/>
      <point x="614" y="1010" type="qcurve"/>
      <point x="805" y="1005"/>
      <point x="899" y="868" type="qcurve" smooth="yes"/>
      <point x="993" y="733"/>
      <point x="993" y="551" type="qcurve" smooth="yes"/>
      <point x="993" y="360"/>
      <point x="909" y="207" type="qcurve"/>
      <point x="864" y="135"/>
      <point x="793" y="90" type="qcurve" smooth="yes"/>
      <point x="719" y="43"/>
      <point x="614" y="43" type="qcurve"/>
    </contour>
    <contour>
      <point x="133" y="0" type="line"/>
      <point x="211" y="0" type="line"/>
      <point x="211" y="236" type="line"/>
      <point x="215" y="236" type="line"/>
      <point x="225" y="184"/>
      <point x="317" y="86" type="qcurve"/>
      <point x="367" y="43"/>
      <point x="440" y="10" type="qcurve" smooth="yes"/>
      <point x="514" y="-23"/>
      <point x="614" y="-25" type="qcurve" smooth="yes"/>
      <point x="672" y="-25"/>
      <point x="750" y="-4" type="qcurve" smooth="yes"/>
      <point x="825" y="16"/>
      <point x="899" y="76" type="qcurve" smooth="yes"/>
      <point x="971" y="137"/>
      <point x="1022" y="252" type="qcurve" smooth="yes"/>
      <point x="1069" y="365"/>
      <point x="1071" y="551" type="qcurve" smooth="yes"/>
      <point x="1071" y="776"/>
      <point x="960" y="926" type="qcurve" smooth="yes"/>
      <point x="848" y="1075"/>
      <point x="614" y="1077" type="qcurve" smooth="yes"/>
      <point x="485" y="1077"/>
      <point x="375" y="1016" type="qcurve" smooth="yes"/>
      <point x="264" y="954"/>
      <point x="215" y="829" type="qcurve"/>
      <point x="211" y="829" type="line"/>
      <point x="211" y="1462" type="line"/>
      <point x="133" y="1462" type="line"/>
    </contour>
  </outline>
</glyph>
<glyph name="Aring" format="2">
  <advance width="1063"/>
  <unicode hex="0063"/>
  <outline>
    <contour>
      <point x="985" y="727" type="line"/>
      <point x="967" y="907"/>
      <point x="846" y="993" type="qcurve" smooth="yes"/>
      <point x="727" y="1077"/>
      <point x="551" y="1077" type="qcurve" smooth="yes"/>
      <point x="317" y="1073"/>
      <point x="192" y="917" type="qcurve" smooth="yes"/>
      <point x="68" y="764"/>
      <point x="68" y="537" type="qcurve" smooth="yes"/>
      <point x="68" y="311"/>
      <point x="182" y="147" type="qcurve" smooth="yes"/>
      <point x="297" y="-20"/>
      <point x="551" y="-25" type="qcurve"/>
      <point x="725" y="-23"/>
      <point x="848" y="80" type="qcurve" smooth="yes"/>
      <point x="969" y="182"/>
      <point x="995" y="371" type="qcurve"/>
      <point x="917" y="371" type="line"/>
      <point x="897" y="223"/>
      <point x="799" y="135" type="qcurve" smooth="yes"/>
      <point x="700" y="45"/>
      <point x="551" y="43" type="qcurve" smooth="yes"/>
      <point x="348" y="45"/>
      <point x="248" y="184" type="qcurve" smooth="yes"/>
      <point x="145" y="322"/>
      <point x="145" y="537" type="qcurve" smooth="yes"/>
      <point x="145" y="725"/>
      <point x="252" y="864" type="qcurve"/>
      <point x="354" y="1005"/>
      <point x="551" y="1010" type="qcurve" smooth="yes"/>
      <point x="698" y="1010"/>
      <point x="797" y="940" type="qcurve" smooth="yes"/>
      <point x="895" y="868"/>
      <point x="907" y="727" type="qcurve"/>
    </contour>
  </outline>
</glyph>
<glyph name="Ccedilla" format="2">
  <advance width="1139"/>
  <unicode hex="0064"/>
  <outline>
    <contour>
      <point x="537" y="43" type="line"/>
      <point x="334" y="47"/>
      <point x="240" y="192" type="qcurve"/>
      <point x="143" y="332"/>
      <point x="143" y="524" type="qcurve" smooth="yes"/>
      <point x="141" y="723"/>
      <point x="236" y="864" type="qcurve" smooth="yes"/>
      <point x="328" y="1005"/>
      <point x="534" y="1010" type="qcurve"/>
      <point x="737" y="1005"/>
      <point x="833" y="860" type="qcurve" smooth="yes"/>
      <point x="926" y="717"/>
      <point x="926" y="524" type="qcurve" smooth="yes"/>
      <point x="926" y="336"/>
      <point x="831" y="195" type="qcurve"/>
      <point x="737" y="47"/>
      <point x="537" y="43" type="qcurve"/>
    </contour>
    <contour>
      <point x="928" y="0" type="line"/>
      <point x="1005" y="0" type="line"/>
      <point x="1005" y="1462" type="line"/>
      <point x="928" y="1462" type="line"/>
      <point x="928" y="817" type="line"/>
      <point x="924" y="817" type="line"/>
      <point x="905" y="881"/>
      <point x="866" y="930" type="qcurve" smooth="yes"/>
      <point x="827" y="979"/>
      <point x="774" y="1012" type="qcurve" smooth="yes"/>
      <point x="668" y="1077"/>
      <point x="534" y="1077" type="qcurve" smooth="yes"/>
      <point x="299" y="1075"/>
      <point x="182" y="919" type="qcurve" smooth="yes"/>
      <point x="66" y="764"/>
      <point x="66" y="524" type="qcurve" smooth="yes"/>
      <point x="63" y="299"/>
      <point x="176" y="141" type="qcurve"/>
      <point x="285" y="-20"/>
      <point x="520" y="-25" type="qcurve"/>
      <point x="799" y="-25"/>
      <point x="924" y="225" type="qcurve"/>
      <point x="928" y="225" type="line"/>
    </contour>
  </outline>
</glyph>
<glyph name="Eacute" format="2">
  <advance width="1063"/>
  <unicode hex="0065"/>
  <outline>
    <contour>
      <point x="995" y="516" type="line"/>
      <point x="1008" y="752"/>
      <point x="895" y="911" type="qcurve" smooth="yes"/>
      <point x="780" y="1073"/>
      <point x="532" y="1077" type="qcurve"/>
      <point x="297" y="1073"/>
      <point x="180" y="903" type="qcurve" smooth="yes"/>
      <point x="63" y="735"/>
      <point x="68" y="508" type="qcurve"/>
      <point x="66" y="285"/>
      <point x="184" y="133" type="qcurve" smooth="yes"/>
      <point x="301" y="-20"/>
      <point x="532" y="-25" type="qcurve"/>
      <point x="917" y="-20"/>
      <point x="987" y="356" type="qcurve"/>
      <point x="909" y="356" type="line"/>
      <point x="842" y="47"/>
      <point x="532" y="43" type="qcurve"/>
      <point x="338" y="45"/>
      <point x="242" y="188" type="qcurve"/>
      <point x="143" y="326"/>
      <point x="145" y="516" type="qcurve"/>
    </contour>
    <contour>
      <point x="145" y="584" type="line"/>
      <point x="160" y="747"/>
      <point x="258" y="876" type="qcurve" smooth="yes"/>
      <point x="356" y="1005"/>
      <point x="532" y="1010" type="qcurve"/>
      <point x="715" y="1005"/>
      <point x="815" y="881" type="qcurve" smooth="yes"/>
      <point x="913" y="756"/>
      <point x="917" y="584" type="qcurve"/>
    </contour>
  </outline>
</glyph>
<glyph name="Odieresis" format="2">
  <advance width="1100"/>
  <unicode hex="0067"/>
  <outline>
    <contour>
      <point x="522" y="1010" type="line"/>
      <point x="717" y="1005"/>
      <point x="811" y="874" type="qcurve" smooth="yes"/>
      <point x="905" y="743"/>
      <point x="905" y="559" type="qcurve" smooth="yes"/>
      <point x="905" y="375"/>
      <point x="811" y="246" type="qcurve"/>
      <point x="717" y="109"/>
      <point x="522" y="106" type="qcurve"/>
      <point x="338" y="109"/>
      <point x="242" y="242" type="qcurve" smooth="yes"/>
      <point x="145" y="371"/>
      <point x="145" y="559" type="qcurve" smooth="yes"/>
      <point x="145" y="735"/>
      <point x="240" y="870" type="qcurve" smooth="yes"/>
      <point x="332" y="1005"/>
      <point x="522" y="1010" type="qcurve"/>
    </contour>
    <contour>
      <point x="907" y="1053" type="line"/>
      <point x="907" y="833" type="line"/>
      <point x="903" y="833" type="line"/>
      <point x="858" y="954"/>
      <point x="754" y="1016" type="qcurve" smooth="yes"/>
      <point x="649" y="1077"/>
      <point x="522" y="1077" type="qcurve" smooth="yes"/>
      <point x="301" y="1073"/>
      <point x="186" y="924" type="qcurve" smooth="yes"/>
      <point x="68" y="776"/>
      <point x="68" y="559" type="qcurve" smooth="yes"/>
      <point x="68" y="336"/>
      <point x="180" y="190" type="qcurve" smooth="yes"/>
      <point x="293" y="41"/>
      <point x="522" y="39" type="qcurve" smooth="yes"/>
      <point x="790" y="41"/>
      <point x="903" y="279" type="qcurve"/>
      <point x="907" y="279" type="line"/>
      <point x="907" y="37" type="line" smooth="yes"/>
      <point x="907" y="10"/>
      <point x="903" y="-47" type="qcurve" smooth="yes"/>
      <point x="895" y="-106"/>
      <point x="860" y="-174" type="qcurve" smooth="yes"/>
      <point x="825" y="-238"/>
      <point x="747" y="-283" type="qcurve" smooth="yes"/>
      <point x="670" y="-332"/>
      <point x="532" y="-334" type="qcurve" smooth="yes"/>
      <point x="399" y="-334"/>
      <point x="307" y="-272" type="qcurve" smooth="yes"/>
      <point x="213" y="-211"/>
      <point x="197" y="-74" type="qcurve"/>
      <point x="119" y="-74" type="line"/>
      <point x="131" y="-252"/>
      <point x="246" y="-328" type="qcurve" smooth="yes"/>
      <point x="358" y="-401"/>
      <point x="530" y="-401" type="qcurve" smooth="yes"/>
      <point x="700" y="-401"/>
      <point x="795" y="-344" type="qcurve" smooth="yes"/>
      <point x="889" y="-289"/>
      <point x="930" y="-207" type="qcurve" smooth="yes"/>
      <point x="971" y="-125"/>
      <point x="979" y="-51" type="qcurve" smooth="yes"/>
      <point x="985" y="23"/>
      <point x="985" y="55" type="qcurve" smooth="yes"/>
      <point x="985" y="1053" type="line"/>
    </contour>
  </outline>
</glyph>
<glyph name="Udieresis" format="2">
  <advance width="1063"/>
  <unicode hex="0068"/>
  <outline>
    <contour>
      <point x="115" y="1462" type="line"/>
      <point x="115" y="0" type="line"/>
      <point x="192" y="0" type="line"/>
      <point x="192" y="569" type="line" smooth="yes"/>
      <point x="192" y="766"/>
      <point x="295" y="887" type="qcurve" smooth="yes"/>
      <point x="395" y="1008"/>
      <point x="571" y="1010" type="qcurve" smooth="yes"/>
      <point x="678" y="1008"/>
      <point x="741" y="973" type="qcurve" smooth="yes"/>
      <point x="803" y="938"/>
      <point x="829" y="881" type="qcurve" smooth="yes"/>
      <point x="858" y="825"/>
      <point x="866" y="768" type="qcurve"/>
      <point x="870" y="709"/>
      <point x="870" y="666" type="qcurve" smooth="yes"/>
      <point x="870" y="0" type="line"/>
      <point x="948" y="0" type="line"/>
      <point x="948" y="651" type="line" smooth="yes"/>
      <point x="948" y="702"/>
      <point x="944" y="774" type="qcurve"/>
      <point x="936" y="844"/>
      <point x="901" y="913" type="qcurve" smooth="yes"/>
      <point x="868" y="983"/>
      <point x="790" y="1030" type="qcurve" smooth="yes"/>
      <point x="713" y="1075"/>
      <point x="573" y="1077" type="qcurve" smooth="yes"/>
      <point x="448" y="1077"/>
      <point x="344" y="1014" type="qcurve" smooth="yes"/>
      <point x="240" y="948"/>
      <point x="197" y="827" type="qcurve"/>
      <point x="192" y="827" type="line"/>
      <point x="192" y="1462" type="line"/>
    </contour>
  </outline>
</glyph>
<glyph name="aacute" format="2">
  <advance width="344"/>
  <unicode hex="0069"/>
  <outline>
    <contour>
      <point x="211" y="0" type="line"/>
      <point x="211" y="1053" type="line"/>
      <point x="133" y="1053" type="line"/>
      <point x="133" y="0" type="line"/>
    </contour>
    <contour>
      <point x="211" y="1251" type="line"/>
      <point x="211" y="1462" type="line"/>
      <point x="133" y="1462" type="line"/>
      <point x="133" y="1251" type="line"/>
    </contour>
  </outline>
</glyph>
<glyph name="agrave" format="2">
  <advance width="344"/>
  <unicode hex="006A"/>
  <outline>
    <contour>
      <point x="133" y="1053" type="line"/>
      <point x="133" y="-106" type="line" smooth="yes"/>
      <point x="133" y="-223"/>
      <point x="100" y="-268" type="qcurve"/>
      <point x="63" y="-311"/>
      <point x="-18" y="-311" type="qcurve" smooth="yes"/>
      <point x="-51" y="-311"/>
      <point x="-70" y="-307" type="qcurve"/>
      <point x="-70" y="-375" type="line"/>
      <point x="-37" y="-377"/>
      <point x="-4" y="-377" type="qcurve" smooth="yes"/>
      <point x="129" y="-375"/>
      <point x="172" y="-297" type="qcurve"/>
      <point x="197" y="-260"/>
      <point x="205" y="-211" type="qcurve" smooth="yes"/>
      <point x="211" y="-164"/>
      <point x="211" y="-113" type="qcurve" smooth="yes"/>
      <point x="211" y="1053" type="line"/>
    </contour>
    <contour>
      <point x="211" y="1251" type="line"/>
      <point x="211" y="1462" type="line"/>
      <point x="133" y="1462" type="line"/>
      <point x="133" y="1251" type="line"/>
    </contour>
  </outline>
</glyph>
<glyph name="acircumflex" format="2">
  <advance width="948"/>
  <unicode hex="006B"/>
  <outline>
    <contour>
      <point x="119" y="0" type="line"/>
      <point x="197" y="0" type="line"/>
      <point x="197" y="397" type="line"/>
      <point x="436" y="600" type="line"/>
      <point x="436" y="600" type="line"/>
      <point x="885" y="0" type="line"/>
      <point x="991" y="0" type="line"/>
      <point x="498" y="659" type="line"/>
      <point x="958" y="1053" type="line"/>
      <point x="846" y="1053" type="line"/>
      <point x="197" y="494" type="line"/>
      <point x="197" y="494" type="line"/>
      <point x="197" y="1462" type="line"/>
      <point x="119" y="1462" type="line"/>
    </contour>
  </outline>
</glyph>
<glyph name="adieresis" format="2">
  <advance width="344"/>
  <unicode hex="006C"/>
  <outline>
    <contour>
      <point x="133" y="1462" type="line"/>
      <point x="133" y="0" type="line"/>
      <point x="211" y="0" type="line"/>
      <point x="211" y="1462" type="line"/>
    </contour>
  </outline>
</glyph>
<glyph name="atilde" format="2">
  <advance width="1630"/>
  <unicode hex="006D"/>
  <outline>
    <contour>
      <point x="117" y="0" type="line"/>
      <point x="195" y="0" type="line"/>
      <point x="195" y="623" type="line"/>
      <point x="199" y="825"/>
      <point x="307" y="919" type="qcurve" smooth="yes"/>
      <point x="410" y="1010"/>
      <point x="528" y="1010" type="qcurve" smooth="yes"/>
      <point x="557" y="1010"/>
      <point x="598" y="1003" type="qcurve" smooth="yes"/>
      <point x="637" y="995"/>
      <point x="678" y="965" type="qcurve" smooth="yes"/>
      <point x="719" y="938"/>
      <point x="747" y="881" type="qcurve" smooth="yes"/>
      <point x="776" y="821"/>
      <point x="776" y="721" type="qcurve" smooth="yes"/>
      <point x="776" y="0" type="line"/>
      <point x="854" y="0" type="line"/>
      <point x="854" y="623" type="line" smooth="yes"/>
      <point x="854" y="813"/>
      <point x="948" y="911" type="qcurve" smooth="yes"/>
      <point x="1040" y="1010"/>
      <point x="1184" y="1010" type="qcurve" smooth="yes"/>
      <point x="1210" y="1010"/>
      <point x="1251" y="1003" type="qcurve" smooth="yes"/>
      <point x="1292" y="995"/>
      <point x="1333" y="967" type="qcurve" smooth="yes"/>
      <point x="1378" y="940"/>
      <point x="1407" y="883" type="qcurve" smooth="yes"/>
      <point x="1436" y="821"/>
      <point x="1436" y="721" type="qcurve" smooth="yes"/>
      <point x="1436" y="0" type="line"/>
      <point x="1513" y="0" type="line"/>
      <point x="1513" y="719" type="line" smooth="yes"/>
      <point x="1511" y="905"/>
      <point x="1421" y="993" type="qcurve" smooth="yes"/>
      <point x="1331" y="1077"/>
      <point x="1184" y="1077" type="qcurve" smooth="yes"/>
      <point x="936" y="1075"/>
      <point x="850" y="854" type="qcurve"/>
      <point x="846" y="854" type="line"/>
      <point x="831" y="940"/>
      <point x="756" y="1008" type="qcurve" smooth="yes"/>
      <point x="717" y="1040"/>
      <point x="661" y="1059" type="qcurve" smooth="yes"/>
      <point x="604" y="1077"/>
      <point x="528" y="1077" type="qcurve" smooth="yes"/>
      <point x="410" y="1075"/>
      <point x="317" y="1008" type="qcurve" smooth="yes"/>
      <point x="225" y="942"/>
      <point x="199" y="838" type="qcurve"/>
      <point x="195" y="838" type="line"/>
      <point x="195" y="1053" type="line"/>
      <point x="117" y="1053" type="line"/>
    </contour>
  </outline>
</glyph>
<glyph name="ccedilla" format="2">
  <advance width="1100"/>
  <unicode hex="006F"/>
  <outline>
    <contour>
      <point x="66" y="526" type="line"/>
      <point x="66" y="297"/>
      <point x="192" y="139" type="qcurve" smooth="yes"/>
      <point x="317" y="-20"/>
      <point x="549" y="-25" type="qcurve"/>
      <point x="784" y="-20"/>
      <point x="907" y="139" type="qcurve" smooth="yes"/>
      <point x="1032" y="297"/>
      <point x="1032" y="526" type="qcurve" smooth="yes"/>
      <point x="1032" y="758"/>
      <point x="907" y="915" type="qcurve" smooth="yes"/>
      <point x="784" y="1073"/>
      <point x="549" y="1077" type="qcurve"/>
      <point x="317" y="1073"/>
      <point x="192" y="915" type="qcurve" smooth="yes"/>
      <point x="66" y="758"/>
      <point x="66" y="526" type="qcurve"/>
    </contour>
    <contour>
      <point x="143" y="526" type="line"/>
      <point x="143" y="723"/>
      <point x="250" y="864" type="qcurve" smooth="yes"/>
      <point x="352" y="1005"/>
      <point x="549" y="1010" type="qcurve"/>
      <point x="750" y="1005"/>
      <point x="852" y="864" type="qcurve" smooth="yes"/>
      <point x="954" y="723"/>
      <point x="954" y="526" type="qcurve" smooth="yes"/>
      <point x="954" y="332"/>
      <point x="852" y="192" type="qcurve" smooth="yes"/>
      <point x="750" y="47"/>
      <point x="549" y="43" type="qcurve"/>
      <point x="352" y="47"/>
      <point x="250" y="192" type="qcurve"/>
      <point x="143" y="332"/>
      <point x="143" y="526" type="qcurve"/>
    </contour>
  </outline>
</glyph>
<glyph name="egrave" format="2">
  <advance width="1139"/>
  <unicode hex="0071"/>
  <outline>
    <contour>
      <point x="534" y="43" type="line"/>
      <point x="328" y="47"/>
      <point x="236" y="192" type="qcurve"/>
      <point x="141" y="332"/>
      <point x="143" y="528" type="qcurve" smooth="yes"/>
      <point x="143" y="723"/>
      <point x="240" y="864" type="qcurve" smooth="yes"/>
      <point x="334" y="1005"/>
      <point x="537" y="1010" type="qcurve"/>
      <point x="737" y="1005"/>
      <point x="831" y="860" type="qcurve" smooth="yes"/>
      <point x="926" y="717"/>
      <point x="926" y="528" type="qcurve" smooth="yes"/>
      <point x="926" y="338"/>
      <point x="833" y="195" type="qcurve" smooth="yes"/>
      <point x="737" y="47"/>
      <point x="534" y="43" type="qcurve"/>
    </contour>
    <contour>
      <point x="928" y="-377" type="line"/>
      <point x="1005" y="-377" type="line"/>
      <point x="1005" y="1053" type="line"/>
      <point x="928" y="1053" type="line"/>
      <point x="928" y="827" type="line"/>
      <point x="924" y="827" type="line"/>
      <point x="799" y="1077"/>
      <point x="520" y="1077" type="qcurve"/>
      <point x="285" y="1073"/>
      <point x="176" y="913" type="qcurve" smooth="yes"/>
      <point x="63" y="754"/>
      <point x="66" y="528" type="qcurve" smooth="yes"/>
      <point x="66" y="291"/>
      <point x="182" y="137" type="qcurve" smooth="yes"/>
      <point x="299" y="-20"/>
      <point x="534" y="-25" type="qcurve"/>
      <point x="668" y="-23"/>
      <point x="774" y="45" type="qcurve" smooth="yes"/>
      <point x="881" y="111"/>
      <point x="924" y="236" type="qcurve"/>
      <point x="928" y="236" type="line"/>
    </contour>
  </outline>
</glyph>
<glyph name="ecircumflex" format="2">
  <advance width="569"/>
  <unicode hex="0072"/>
  <outline>
    <contour>
      <point x="192" y="1053" type="line"/>
      <point x="115" y="1053" type="line"/>
      <point x="115" y="0" type="line"/>
      <point x="192" y="0" type="line"/>
      <point x="192" y="575" type="line"/>
      <point x="199" y="692"/>
      <point x="227" y="758" type="qcurve" smooth="yes"/>
      <point x="254" y="823"/>
      <point x="311" y="879" type="qcurve" smooth="yes"/>
      <point x="385" y="948"/>
      <point x="463" y="971" type="qcurve" smooth="yes"/>
      <point x="539" y="991"/>
      <point x="602" y="981" type="qcurve"/>
      <point x="602" y="1059" type="line"/>
      <point x="457" y="1063"/>
      <point x="346" y="995" type="qcurve" smooth="yes"/>
      <point x="233" y="926"/>
      <point x="199" y="819" type="qcurve"/>
      <point x="192" y="819" type="line"/>
    </contour>
  </outline>
</glyph>
<glyph name="edieresis" format="2">
  <advance width="985"/>
  <unicode hex="0073"/>
  <outline>
    <contour>
      <point x="74" y="350" type="line"/>
      <point x="84" y="166"/>
      <point x="201" y="72" type="qcurve" smooth="yes"/>
      <point x="317" y="-25"/>
      <point x="500" y="-25" type="qcurve" smooth="yes"/>
      <point x="571" y="-25"/>
      <point x="645" y="-10" type="qcurve" smooth="yes"/>
      <point x="717" y="4"/>
      <point x="776" y="37" type="qcurve" smooth="yes"/>
      <point x="840" y="72"/>
      <point x="876" y="129" type="qcurve" smooth="yes"/>
      <point x="911" y="184"/>
      <point x="911" y="266" type="qcurve" smooth="yes"/>
      <point x="911" y="348"/>
      <point x="883" y="403" type="qcurve" smooth="yes"/>
      <point x="854" y="457"/>
      <point x="805" y="489" type="qcurve" smooth="yes"/>
      <point x="700" y="553"/>
      <point x="539" y="575" type="qcurve"/>
      <point x="508" y="584"/>
      <point x="477" y="592" type="qcurve" smooth="yes"/>
      <point x="446" y="598"/>
      <point x="414" y="604" type="qcurve"/>
      <point x="383" y="614"/>
      <point x="356" y="623" type="qcurve" smooth="yes"/>
      <point x="326" y="631"/>
      <point x="301" y="643" type="qcurve" smooth="yes"/>
      <point x="250" y="668"/>
      <point x="221" y="707" type="qcurve" smooth="yes"/>
      <point x="188" y="745"/>
      <point x="188" y="807" type="qcurve" smooth="yes"/>
      <point x="188" y="866"/>
      <point x="217" y="905" type="qcurve" smooth="yes"/>
      <point x="244" y="942"/>
      <point x="287" y="967" type="qcurve"/>
      <point x="379" y="1010"/>
      <point x="491" y="1010" type="qcurve" smooth="yes"/>
      <point x="627" y="1010"/>
      <point x="715" y="948" type="qcurve" smooth="yes"/>
      <point x="801" y="885"/>
      <point x="803" y="741" type="qcurve"/>
      <point x="881" y="741" type="line"/>
      <point x="879" y="922"/>
      <point x="772" y="1001" type="qcurve" smooth="yes"/>
      <point x="664" y="1077"/>
      <point x="491" y="1077" type="qcurve" smooth="yes"/>
      <point x="352" y="1079"/>
      <point x="236" y="1022" type="qcurve" smooth="yes"/>
      <point x="180" y="991"/>
      <point x="147" y="940" type="qcurve" smooth="yes"/>
      <point x="111" y="887"/>
      <point x="111" y="807" type="qcurve" smooth="yes"/>
      <point x="111" y="727"/>
      <point x="143" y="676" type="qcurve" smooth="yes"/>
      <point x="172" y="625"/>
      <point x="225" y="592" type="qcurve" smooth="yes"/>
      <point x="279" y="561"/>
      <point x="342" y="543" type="qcurve" smooth="yes"/>
      <point x="405" y="522"/>
      <point x="473" y="508" type="qcurve" smooth="yes"/>
      <point x="541" y="496"/>
      <point x="606" y="481" type="qcurve" smooth="yes"/>
      <point x="672" y="467"/>
      <point x="721" y="442" type="qcurve"/>
      <point x="774" y="420"/>
      <point x="805" y="377" type="qcurve" smooth="yes"/>
      <point x="833" y="334"/>
      <point x="833" y="266" type="qcurve" smooth="yes"/>
      <point x="833" y="201"/>
      <point x="801" y="158" type="qcurve" smooth="yes"/>
      <point x="770" y="113"/>
      <point x="719" y="88" type="qcurve" smooth="yes"/>
      <point x="670" y="63"/>
      <point x="612" y="55" type="qcurve" smooth="yes"/>
      <point x="553" y="43"/>
      <point x="500" y="43" type="qcurve" smooth="yes"/>
      <point x="356" y="43"/>
      <point x="260" y="125" type="qcurve" smooth="yes"/>
      <point x="164" y="205"/>
      <point x="152" y="350" type="qcurve"/>
    </contour>
  </outline>
</glyph>
<glyph name="iacute" format="2">
  <advance width="530"/>
  <unicode hex="0074"/>
  <outline>
    <contour>
      <point x="502" y="1053" type="line"/>
      <point x="272" y="1053" type="line"/>
      <point x="272" y="1380" type="line"/>
      <point x="195" y="1380" type="line"/>
      <point x="195" y="1053" type="line"/>
      <point x="0" y="1053" type="line"/>
      <point x="0" y="985" type="line"/>
      <point x="195" y="985" type="line"/>
      <point x="195" y="250" type="line" smooth="yes"/>
      <point x="192" y="162"/>
      <point x="217" y="111" type="qcurve" smooth="yes"/>
      <point x="242" y="59"/>
      <point x="285" y="35" type="qcurve" smooth="yes"/>
      <point x="330" y="10"/>
      <point x="385" y="4" type="qcurve" smooth="yes"/>
      <point x="440" y="-4"/>
      <point x="500" y="0" type="qcurve"/>
      <point x="500" y="68" type="line"/>
      <point x="389" y="61"/>
      <point x="332" y="94" type="qcurve" smooth="yes"/>
      <point x="272" y="127"/>
      <point x="272" y="250" type="qcurve" smooth="yes"/>
      <point x="272" y="985" type="line"/>
      <point x="502" y="985" type="line"/>
    </contour>
  </outline>
</glyph>
<glyph name="igrave" format="2">
  <advance width="1063"/>
  <unicode hex="0075"/>
  <outline>
    <contour>
      <point x="948" y="1053" type="line"/>
      <point x="870" y="1053" type="line"/>
      <point x="870" y="483" type="line" smooth="yes"/>
      <point x="870" y="287"/>
      <point x="770" y="168" type="qcurve"/>
      <point x="672" y="45"/>
      <point x="491" y="43" type="qcurve" smooth="yes"/>
      <point x="385" y="43"/>
      <point x="326" y="84" type="qcurve"/>
      <point x="266" y="119"/>
      <point x="236" y="176" type="qcurve" smooth="yes"/>
      <point x="209" y="233"/>
      <point x="201" y="289" type="qcurve" smooth="yes"/>
      <point x="192" y="346"/>
      <point x="192" y="387" type="qcurve" smooth="yes"/>
      <point x="192" y="1053" type="line"/>
      <point x="115" y="1053" type="line"/>
      <point x="115" y="401" type="line" smooth="yes"/>
      <point x="115" y="352"/>
      <point x="123" y="283" type="qcurve" smooth="yes"/>
      <point x="131" y="211"/>
      <point x="164" y="141" type="qcurve" smooth="yes"/>
      <point x="199" y="72"/>
      <point x="276" y="27" type="qcurve"/>
      <point x="352" y="-23"/>
      <point x="489" y="-25" type="qcurve" smooth="yes"/>
      <point x="616" y="-23"/>
      <point x="721" y="43" type="qcurve" smooth="yes"/>
      <point x="823" y="109"/>
      <point x="866" y="225" type="qcurve"/>
      <point x="870" y="225" type="line"/>
      <point x="870" y="0" type="line"/>
      <point x="948" y="0" type="line"/>
    </contour>
  </outline>
</glyph>
<glyph name="icircumflex" format="2">
  <advance width="909"/>
  <unicode hex="0076"/>
  <outline>
    <contour>
      <point x="913" y="1053" type="line"/>
      <point x="827" y="1053" type="line"/>
      <point x="471" y="90" type="line"/>
      <point x="467" y="90" type="line"/>
      <point x="86" y="1053" type="line"/>
      <point x="-4" y="1053" type="line"/>
      <point x="420" y="0" type="line"/>
      <point x="516" y="0" type="line"/>
    </contour>
  </outline>
</glyph>
<glyph name="idieresis" format="2">
  <advance width="1442"/>
  <unicode hex="0077"/>
  <outline>
    <contour>
      <point x="80" y="1053" type="line"/>
      <point x="-4" y="1053" type="line"/>
      <point x="330" y="0" type="line"/>
      <point x="428" y="0" type="line"/>
      <point x="719" y="954" type="line"/>
      <point x="723" y="954" type="line"/>
      <point x="1012" y="0" type="line"/>
      <point x="1108" y="0" type="line"/>
      <point x="1446" y="1053" type="line"/>
      <point x="1360" y="1053" type="line"/>
      <point x="1065" y="90" type="line"/>
      <point x="1061" y="90" type="line"/>
      <point x="772" y="1053" type="line"/>
      <point x="668" y="1053" type="line"/>
      <point x="381" y="90" type="line"/>
      <point x="377" y="90" type="line"/>
    </contour>
  </outline>
</glyph>
<glyph name="ntilde" format="2">
  <advance width="909"/>
  <unicode hex="0078"/>
  <outline>
    <contour>
      <point x="-12" y="0" type="line"/>
      <point x="86" y="0" type="line"/>
      <point x="455" y="494" type="line"/>
      <point x="455" y="494" type="line"/>
      <point x="815" y="0" type="line"/>
      <point x="922" y="0" type="line"/>
      <point x="506" y="553" type="line"/>
      <point x="887" y="1053" type="line"/>
      <point x="786" y="1053" type="line"/>
      <point x="455" y="612" type="line"/>
      <point x="455" y="612" type="line"/>
      <point x="125" y="1053" type="line"/>
      <point x="16" y="1053" type="line"/>
      <point x="401" y="553" type="line"/>
    </contour>
  </outline>
</glyph>
<glyph name="oacute" format="2">
  <advance width="909"/>
  <unicode hex="0079"/>
  <outline>
    <contour>
      <point x="428" y="6" type="line"/>
      <point x="360" y="-199"/>
      <point x="319" y="-242" type="qcurve" smooth="yes"/>
      <point x="281" y="-281"/>
      <point x="233" y="-295" type="qcurve" smooth="yes"/>
      <point x="182" y="-309"/>
      <point x="100" y="-309" type="qcurve"/>
      <point x="100" y="-377" type="line"/>
      <point x="270" y="-381"/>
      <point x="346" y="-330" type="qcurve"/>
      <point x="379" y="-301"/>
      <point x="410" y="-246" type="qcurve" smooth="yes"/>
      <point x="440" y="-190"/>
      <point x="469" y="-113" type="qcurve" smooth="yes"/>
      <point x="919" y="1053" type="line"/>
      <point x="831" y="1053" type="line"/>
      <point x="471" y="92" type="line"/>
      <point x="471" y="92" type="line"/>
      <point x="80" y="1053" type="line"/>
      <point x="-12" y="1053" type="line"/>
    </contour>
  </outline>
</glyph>
<glyph name="ograve" format="2">
  <advance width="872"/>
  <unicode hex="007A"/>
  <outline>
    <contour>
      <point x="113" y="68" type="line"/>
      <point x="821" y="979" type="line"/>
      <point x="821" y="1053" type="line"/>
      <point x="74" y="1053" type="line"/>
      <point x="74" y="985" type="line"/>
      <point x="725" y="985" type="line"/>
      <point x="18" y="74" type="line"/>
      <point x="18" y="0" type="line"/>
      <point x="854" y="0" type="line"/>
      <point x="854" y="68" type="line"/>
    </contour>
  </outline>
</glyph>
<glyph name="ocircumflex" format="2">
  <advance width="682"/>
  <unicode hex="007B"/>
  <outline>
    <contour>
      <point x="600" y="1497" type="line"/>
      <point x="498" y="1497" type="line" smooth="yes"/>
      <point x="412" y="1499"/>
      <point x="365" y="1448" type="qcurve" smooth="yes"/>
      <point x="317" y="1395"/>
      <point x="317" y="1255" type="qcurve" smooth="yes"/>
      <point x="317" y="930" type="line" smooth="yes"/>
      <point x="317" y="868"/>
      <point x="313" y="811" type="qcurve" smooth="yes"/>
      <point x="307" y="752"/>
      <point x="289" y="704" type="qcurve" smooth="yes"/>
      <point x="274" y="659"/>
      <point x="246" y="631" type="qcurve" smooth="yes"/>
      <point x="215" y="602"/>
      <point x="170" y="598" type="qcurve"/>
      <point x="170" y="520" type="line"/>
      <point x="258" y="512"/>
      <point x="289" y="416" type="qcurve" smooth="yes"/>
      <point x="317" y="319"/>
      <point x="317" y="188" type="qcurve" smooth="yes"/>
      <point x="317" y="-135" type="line" smooth="yes"/>
      <point x="317" y="-270"/>
      <point x="365" y="-324" type="qcurve" smooth="yes"/>
      <point x="412" y="-377"/>
      <point x="498" y="-377" type="qcurve" smooth="yes"/>
      <point x="600" y="-377" type="line"/>
      <point x="600" y="-309" type="line"/>
      <point x="502" y="-309" type="line" smooth="yes"/>
      <point x="442" y="-309"/>
      <point x="418" y="-260" type="qcurve" smooth="yes"/>
      <point x="395" y="-213"/>
      <point x="395" y="-98" type="qcurve" smooth="yes"/>
      <point x="395" y="223" type="line" smooth="yes"/>
      <point x="395" y="328"/>
      <point x="379" y="391" type="qcurve" smooth="yes"/>
      <point x="360" y="455"/>
      <point x="336" y="489" type="qcurve" smooth="yes"/>
      <point x="311" y="526"/>
      <point x="289" y="543" type="qcurve"/>
      <point x="264" y="557"/>
      <point x="252" y="565" type="qcurve"/>
      <point x="264" y="571"/>
      <point x="289" y="588" type="qcurve" smooth="yes"/>
      <point x="311" y="602"/>
      <point x="336" y="635" type="qcurve" smooth="yes"/>
      <point x="360" y="672"/>
      <point x="379" y="735" type="qcurve" smooth="yes"/>
      <point x="395" y="797"/>
      <point x="395" y="897" type="qcurve" smooth="yes"/>
      <point x="395" y="1218" type="line" smooth="yes"/>
      <point x="395" y="1333"/>
      <point x="418" y="1384" type="qcurve" smooth="yes"/>
      <point x="442" y="1429"/>
      <point x="502" y="1429" type="qcurve" smooth="yes"/>
      <point x="600" y="1429" type="line"/>
    </contour>
  </outline>
</glyph>
<glyph name="odieresis" format="2">
  <advance width="455"/>
  <unicode hex="007C"/>
  <outline>
    <contour>
      <point x="188" y="-438" type="line"/>
      <point x="266" y="-438" type="line"/>
      <point x="266" y="1610" type="line"/>
      <point x="188" y="1610" type="line"/>
    </contour>
  </outline>
</glyph>
<glyph name="otilde" format="2">
  <advance width="682"/>
  <unicode hex="007D"/>
  <outline>
    <contour>
      <point x="82" y="-377" type="line"/>
      <point x="184" y="-377" type="line" smooth="yes"/>
      <point x="270" y="-377"/>
      <point x="317" y="-324" type="qcurve" smooth="yes"/>
      <point x="365" y="-270"/>
      <point x="365" y="-135" type="qcurve" smooth="yes"/>
      <point x="365" y="188" type="line" smooth="yes"/>
      <point x="362" y="319"/>
      <point x="395" y="416" type="qcurve" smooth="yes"/>
      <point x="410" y="463"/>
      <point x="440" y="491" type="qcurve" smooth="yes"/>
      <point x="469" y="520"/>
      <point x="512" y="520" type="qcurve"/>
      <point x="512" y="598" type="line"/>
      <point x="424" y="606"/>
      <point x="395" y="704" type="qcurve" smooth="yes"/>
      <point x="362" y="803"/>
      <point x="365" y="930" type="qcurve" smooth="yes"/>
      <point x="365" y="1255" type="line" smooth="yes"/>
      <point x="365" y="1395"/>
      <point x="317" y="1448" type="qcurve" smooth="yes"/>
      <point x="270" y="1499"/>
      <point x="184" y="1497" type="qcurve" smooth="yes"/>
      <point x="82" y="1497" type="line"/>
      <point x="82" y="1429" type="line"/>
      <point x="180" y="1429" type="line" smooth="yes"/>
      <point x="244" y="1429"/>
      <point x="266" y="1384" type="qcurve" smooth="yes"/>
      <point x="287" y="1333"/>
      <point x="287" y="1218" type="qcurve" smooth="yes"/>
      <point x="287" y="897" type="line" smooth="yes"/>
      <point x="287" y="797"/>
      <point x="307" y="735" type="qcurve" smooth="yes"/>
      <point x="326" y="672"/>
      <point x="350" y="635" type="qcurve"/>
      <point x="377" y="602"/>
      <point x="399" y="588" type="qcurve" smooth="yes"/>
      <point x="422" y="571"/>
      <point x="430" y="565" type="qcurve"/>
      <point x="422" y="557"/>
      <point x="399" y="543" type="qcurve" smooth="yes"/>
      <point x="377" y="526"/>
      <point x="350" y="489" type="qcurve" smooth="yes"/>
      <point x="326" y="455"/>
      <point x="307" y="391" type="qcurve" smooth="yes"/>
      <point x="287" y="328"/>
      <point x="287" y="223" type="qcurve" smooth="yes"/>
      <point x="287" y="-98" type="line" smooth="yes"/>
      <point x="287" y="-213"/>
      <point x="266" y="-260" type="qcurve" smooth="yes"/>
      <point x="244" y="-309"/>
      <point x="180" y="-309" type="qcurve" smooth="yes"/>
      <point x="82" y="-309" type="line"/>
    </contour>
  </outline>
</glyph>
<glyph name="uacute" format="2">
  <advance width="1229"/>
  <unicode hex="007E"/>
  <outline>
    <contour>
      <point x="1024" y="639" type="line"/>
      <point x="1024" y="639" type="line"/>
      <point x="999" y="588"/>
      <point x="948" y="539" type="qcurve" smooth="yes"/>
      <point x="899" y="487"/>
      <point x="836" y="485" type="qcurve" smooth="yes"/>
      <point x="772" y="485"/>
      <point x="721" y="514" type="qcurve" smooth="yes"/>
      <point x="670" y="539"/>
      <point x="627" y="559" type="qcurve" smooth="yes"/>
      <point x="561" y="590"/>
      <point x="510" y="608" type="qcurve" smooth="yes"/>
      <point x="459" y="625"/>
      <point x="399" y="625" type="qcurve" smooth="yes"/>
      <point x="309" y="625"/>
      <point x="252" y="580" type="qcurve" smooth="yes"/>
      <point x="197" y="537"/>
      <point x="149" y="455" type="qcurve"/>
      <point x="209" y="393" type="line"/>
      <point x="209" y="393" type="line"/>
      <point x="229" y="446"/>
      <point x="276" y="496" type="qcurve" smooth="yes"/>
      <point x="324" y="545"/>
      <point x="412" y="547" type="qcurve" smooth="yes"/>
      <point x="455" y="547"/>
      <point x="510" y="526" type="qcurve" smooth="yes"/>
      <point x="565" y="506"/>
      <point x="600" y="485" type="qcurve" smooth="yes"/>
      <point x="729" y="410"/>
      <point x="833" y="408" type="qcurve" smooth="yes"/>
      <point x="922" y="410"/>
      <point x="983" y="465" type="qcurve" smooth="yes"/>
      <point x="1014" y="491"/>
      <point x="1038" y="522" type="qcurve" smooth="yes"/>
      <point x="1063" y="551"/>
      <point x="1081" y="582" type="qcurve"/>
    </contour>
  </outline>
</glyph>
<glyph name="fl" format="2">
  <advance width="530"/>
  <unicode hex="00A1"/>
  <outline>
    <contour>
      <point x="313" y="-377" type="line"/>
      <point x="313" y="117" type="line"/>
      <point x="289" y="711" type="line"/>
      <point x="240" y="711" type="line"/>
      <point x="215" y="117" type="line"/>
      <point x="215" y="-377" type="line"/>
    </contour>
    <contour>
      <point x="213" y="1096" type="line"/>
      <point x="213" y="885" type="line"/>
      <point x="317" y="885" type="line"/>
      <point x="317" y="1096" type="line"/>
    </contour>
  </outline>
</glyph>
<glyph name="questiondown" format="2">
  <advance width="1139"/>
  <unicode hex="00A2"/>
  <outline>
    <contour>
      <point x="557" y="43" type="line"/>
      <point x="369" y="59"/>
      <point x="276" y="195" type="qcurve" smooth="yes"/>
      <point x="182" y="328"/>
      <point x="182" y="537" type="qcurve" smooth="yes"/>
      <point x="182" y="719"/>
      <point x="279" y="856" type="qcurve" smooth="yes"/>
      <point x="375" y="991"/>
      <point x="557" y="1010" type="qcurve"/>
    </contour>
    <contour>
      <point x="557" y="-242" type="line"/>
      <point x="623" y="-242" type="line"/>
      <point x="623" y="-25" type="line"/>
      <point x="962" y="6"/>
      <point x="1032" y="371" type="qcurve"/>
      <point x="954" y="371" type="line"/>
      <point x="936" y="233"/>
      <point x="848" y="145" type="qcurve" smooth="yes"/>
      <point x="760" y="57"/>
      <point x="623" y="43" type="qcurve"/>
      <point x="623" y="1010" type="line"/>
      <point x="758" y="1001"/>
      <point x="846" y="930" type="qcurve" smooth="yes"/>
      <point x="932" y="860"/>
      <point x="944" y="727" type="qcurve"/>
      <point x="1022" y="727" type="line"/>
      <point x="1003" y="897"/>
      <point x="897" y="985" type="qcurve"/>
      <point x="786" y="1071"/>
      <point x="623" y="1077" type="qcurve"/>
      <point x="623" y="1259" type="line"/>
      <point x="557" y="1259" type="line"/>
      <point x="557" y="1077" type="line"/>
      <point x="338" y="1063"/>
      <point x="223" y="909" type="qcurve" smooth="yes"/>
      <point x="104" y="756"/>
      <point x="104" y="537" type="qcurve" smooth="yes"/>
      <point x="104" y="317"/>
      <point x="213" y="156" type="qcurve" smooth="yes"/>
      <point x="319" y="-4"/>
      <point x="557" y="-25" type="qcurve"/>
    </contour>
  </outline>
</glyph>
<glyph name="exclamdown" format="2">
  <advance width="1139"/>
  <unicode hex="00A3"/>
  <outline>
    <contour>
      <point x="102" y="676" type="line"/>
      <point x="262" y="676" type="line"/>
      <point x="319" y="590"/>
      <point x="322" y="459" type="qcurve"/>
      <point x="319" y="326"/>
      <point x="250" y="221" type="qcurve" smooth="yes"/>
      <point x="180" y="117"/>
      <point x="90" y="35" type="qcurve"/>
      <point x="141" y="-35" type="line"/>
      <point x="141" y="-35" type="line"/>
      <point x="205" y="6"/>
      <point x="260" y="31" type="qcurve" smooth="yes"/>
      <point x="313" y="55"/>
      <point x="387" y="55" type="qcurve" smooth="yes"/>
      <point x="438" y="55"/>
      <point x="487" y="43" type="qcurve" smooth="yes"/>
      <point x="537" y="31"/>
      <point x="584" y="10" type="qcurve"/>
      <point x="635" y="-6"/>
      <point x="690" y="-18" type="qcurve"/>
      <point x="743" y="-35"/>
      <point x="805" y="-35" type="qcurve" smooth="yes"/>
      <point x="895" y="-33"/>
      <point x="975" y="10" type="qcurve" smooth="yes"/>
      <point x="1055" y="51"/>
      <point x="1114" y="115" type="qcurve"/>
      <point x="1069" y="182" type="line"/>
      <point x="1069" y="182" type="line"/>
      <point x="1014" y="127"/>
      <point x="950" y="88" type="qcurve"/>
      <point x="885" y="43"/>
      <point x="793" y="43" type="qcurve" smooth="yes"/>
      <point x="743" y="43"/>
      <point x="698" y="57" type="qcurve" smooth="yes"/>
      <point x="653" y="70"/>
      <point x="606" y="86" type="qcurve" smooth="yes"/>
      <point x="561" y="104"/>
      <point x="508" y="121" type="qcurve"/>
      <point x="457" y="133"/>
      <point x="393" y="133" type="qcurve" smooth="yes"/>
      <point x="342" y="133"/>
      <point x="295" y="113" type="qcurve" smooth="yes"/>
      <point x="246" y="90"/>
      <point x="201" y="59" type="qcurve"/>
      <point x="197" y="63" type="line"/>
      <point x="281" y="133"/>
      <point x="338" y="236" type="qcurve" smooth="yes"/>
      <point x="397" y="338"/>
      <point x="399" y="455" type="qcurve" smooth="yes"/>
      <point x="397" y="612"/>
      <point x="352" y="676" type="qcurve"/>
      <point x="641" y="676" type="line"/>
      <point x="641" y="743" type="line"/>
      <point x="313" y="743" type="line"/>
      <point x="272" y="823"/>
      <point x="229" y="911" type="qcurve" smooth="yes"/>
      <point x="182" y="999"/>
      <point x="180" y="1108" type="qcurve" smooth="yes"/>
      <point x="180" y="1253"/>
      <point x="287" y="1337" type="qcurve" smooth="yes"/>
      <point x="389" y="1419"/>
      <point x="569" y="1419" type="qcurve" smooth="yes"/>
      <point x="977" y="1415"/>
      <point x="971" y="991" type="qcurve"/>
      <point x="1049" y="991" type="line"/>
      <point x="1053" y="1497"/>
      <point x="567" y="1497" type="qcurve" smooth="yes"/>
      <point x="379" y="1497"/>
      <point x="244" y="1399" type="qcurve" smooth="yes"/>
      <point x="104" y="1298"/>
      <point x="102" y="1104" type="qcurve" smooth="yes"/>
      <point x="102" y="1005"/>
      <point x="141" y="917" type="qcurve" smooth="yes"/>
      <point x="178" y="825"/>
      <point x="225" y="743" type="qcurve"/>
      <point x="102" y="743" type="line"/>
    </contour>
  </outline>
</glyph>
<glyph name="breve" format="2">
  <advance width="1139"/>
  <unicode hex="00A4"/>
  <outline>
    <contour>
      <point x="1008" y="213" type="line"/>
      <point x="1063" y="268" type="line"/>
      <point x="952" y="379" type="line"/>
      <point x="1077" y="524"/>
      <point x="1077" y="707" type="qcurve" smooth="yes"/>
      <point x="1077" y="889"/>
      <point x="952" y="1036" type="qcurve"/>
      <point x="1065" y="1147" type="line"/>
      <point x="1010" y="1202" type="line"/>
      <point x="1010" y="1202" type="line"/>
      <point x="899" y="1089" type="line"/>
      <point x="899" y="1089" type="line"/>
      <point x="750" y="1214"/>
      <point x="567" y="1214" type="qcurve" smooth="yes"/>
      <point x="387" y="1212"/>
      <point x="240" y="1092" type="qcurve"/>
      <point x="240" y="1092" type="line"/>
      <point x="125" y="1206" type="line"/>
      <point x="125" y="1206" type="line"/>
      <point x="70" y="1151" type="line"/>
      <point x="186" y="1036" type="line"/>
      <point x="61" y="889"/>
      <point x="61" y="707" type="qcurve" smooth="yes"/>
      <point x="63" y="526"/>
      <point x="186" y="377" type="qcurve"/>
      <point x="72" y="264" type="line"/>
      <point x="127" y="209" type="line"/>
      <point x="127" y="209" type="line"/>
      <point x="240" y="324" type="line"/>
      <point x="240" y="324" type="line"/>
      <point x="387" y="199"/>
      <point x="567" y="199" type="qcurve" smooth="yes"/>
      <point x="750" y="199"/>
      <point x="899" y="324" type="qcurve"/>
      <point x="899" y="324" type="line"/>
      <point x="1008" y="213" type="line"/>
    </contour>
    <contour>
      <point x="569" y="276" type="line"/>
      <point x="395" y="279"/>
      <point x="276" y="403" type="qcurve"/>
      <point x="154" y="524"/>
      <point x="152" y="707" type="qcurve" smooth="yes"/>
      <point x="154" y="891"/>
      <point x="276" y="1012" type="qcurve" smooth="yes"/>
      <point x="395" y="1135"/>
      <point x="569" y="1137" type="qcurve" smooth="yes"/>
      <point x="743" y="1135"/>
      <point x="864" y="1012" type="qcurve" smooth="yes"/>
      <point x="985" y="891"/>
      <point x="987" y="707" type="qcurve" smooth="yes"/>
      <point x="985" y="524"/>
      <point x="864" y="403" type="qcurve" smooth="yes"/>
      <point x="743" y="279"/>
      <point x="569" y="276" type="qcurve"/>
    </contour>
  </outline>
</glyph>
<glyph name="quotedblleft" format="2">
  <advance width="1139"/>
  <unicode hex="00A5"/>
  <outline>
    <contour>
      <point x="-14" y="1462" type="line"/>
      <point x="473" y="700" type="line"/>
      <point x="285" y="700" type="line"/>
      <point x="285" y="633" type="line"/>
      <point x="530" y="633" type="line"/>
      <point x="530" y="473" type="line"/>
      <point x="285" y="473" type="line"/>
      <point x="285" y="405" type="line"/>
      <point x="530" y="405" type="line"/>
      <point x="530" y="0" type="line"/>
      <point x="608" y="0" type="line"/>
      <point x="608" y="405" type="line"/>
      <point x="854" y="405" type="line"/>
      <point x="854" y="473" type="line"/>
      <point x="608" y="473" type="line"/>
      <point x="608" y="633" type="line"/>
      <point x="854" y="633" type="line"/>
      <point x="854" y="700" type="line"/>
      <point x="666" y="700" type="line"/>
      <point x="1153" y="1462" type="line"/>
      <point x="1061" y="1462" type="line"/>
      <point x="571" y="696" type="line"/>
      <point x="571" y="696" type="line"/>
      <point x="84" y="1462" type="line"/>
    </contour>
  </outline>
</glyph>
<glyph name="glyph159" format="2">
  <advance width="455"/>
  <unicode hex="00A6"/>
  <outline>
    <contour>
      <point x="188" y="-182" type="line"/>
      <point x="266" y="-182" type="line"/>
      <point x="266" y="330" type="line"/>
      <point x="188" y="330" type="line"/>
    </contour>
    <contour>
      <point x="188" y="842" type="line"/>
      <point x="266" y="842" type="line"/>
      <point x="266" y="1354" type="line"/>
      <point x="188" y="1354" type="line"/>
    </contour>
  </outline>
</glyph>
<glyph name="logicalnot" format="2">
  <advance width="1139"/>
  <unicode hex="00A7"/>
  <outline>
    <contour>
      <point x="383" y="919" type="line"/>
      <point x="694" y="735" type="line"/>
      <point x="786" y="686"/>
      <point x="868" y="616" type="qcurve" smooth="yes"/>
      <point x="950" y="543"/>
      <point x="952" y="436" type="qcurve" smooth="yes"/>
      <point x="950" y="336"/>
      <point x="881" y="276" type="qcurve" smooth="yes"/>
      <point x="848" y="250"/>
      <point x="807" y="227" type="qcurve" smooth="yes"/>
      <point x="764" y="205"/>
      <point x="743" y="207" type="qcurve"/>
      <point x="575" y="313"/>
      <point x="405" y="414" type="qcurve" smooth="yes"/>
      <point x="369" y="438"/>
      <point x="332" y="465" type="qcurve" smooth="yes"/>
      <point x="293" y="491"/>
      <point x="258" y="524" type="qcurve"/>
      <point x="227" y="559"/>
      <point x="207" y="598" type="qcurve" smooth="yes"/>
      <point x="184" y="639"/>
      <point x="184" y="690" type="qcurve" smooth="yes"/>
      <point x="186" y="776"/>
      <point x="250" y="836" type="qcurve" smooth="yes"/>
      <point x="309" y="891"/>
      <point x="383" y="919" type="qcurve"/>
    </contour>
    <contour>
      <point x="919" y="1098" type="line"/>
      <point x="919" y="1282"/>
      <point x="829" y="1388" type="qcurve" smooth="yes"/>
      <point x="741" y="1495"/>
      <point x="563" y="1497" type="qcurve" smooth="yes"/>
      <point x="430" y="1501"/>
      <point x="330" y="1423" type="qcurve" smooth="yes"/>
      <point x="225" y="1343"/>
      <point x="223" y="1214" type="qcurve"/>
      <point x="215" y="1173"/>
      <point x="242" y="1098" type="qcurve"/>
      <point x="264" y="1022"/>
      <point x="334" y="965" type="qcurve"/>
      <point x="242" y="934"/>
      <point x="178" y="862" type="qcurve" smooth="yes"/>
      <point x="109" y="790"/>
      <point x="106" y="690" type="qcurve" smooth="yes"/>
      <point x="104" y="545"/>
      <point x="211" y="453" type="qcurve" smooth="yes"/>
      <point x="315" y="360"/>
      <point x="473" y="274" type="qcurve"/>
      <point x="616" y="205"/>
      <point x="727" y="121" type="qcurve" smooth="yes"/>
      <point x="840" y="39"/>
      <point x="842" y="-94" type="qcurve" smooth="yes"/>
      <point x="840" y="-205"/>
      <point x="770" y="-256" type="qcurve" smooth="yes"/>
      <point x="698" y="-309"/>
      <point x="573" y="-309" type="qcurve" smooth="yes"/>
      <point x="426" y="-307"/>
      <point x="356" y="-213" type="qcurve" smooth="yes"/>
      <point x="287" y="-121"/>
      <point x="281" y="18" type="qcurve"/>
      <point x="203" y="18" type="line"/>
      <point x="203" y="-156"/>
      <point x="301" y="-264" type="qcurve" smooth="yes"/>
      <point x="397" y="-375"/>
      <point x="575" y="-377" type="qcurve" smooth="yes"/>
      <point x="719" y="-377"/>
      <point x="817" y="-311" type="qcurve" smooth="yes"/>
      <point x="917" y="-246"/>
      <point x="919" y="-94" type="qcurve" smooth="yes"/>
      <point x="919" y="-6"/>
      <point x="893" y="49" type="qcurve" smooth="yes"/>
      <point x="864" y="104"/>
      <point x="803" y="158" type="qcurve"/>
      <point x="903" y="184"/>
      <point x="967" y="252" type="qcurve" smooth="yes"/>
      <point x="1030" y="319"/>
      <point x="1030" y="436" type="qcurve" smooth="yes"/>
      <point x="1028" y="598"/>
      <point x="915" y="690" type="qcurve"/>
      <point x="864" y="737"/>
      <point x="799" y="776" type="qcurve" smooth="yes"/>
      <point x="733" y="813"/>
      <point x="664" y="846" type="qcurve" smooth="yes"/>
      <point x="526" y="913"/>
      <point x="418" y="997" type="qcurve"/>
      <point x="303" y="1079"/>
      <point x="301" y="1214" type="qcurve"/>
      <point x="309" y="1317"/>
      <point x="389" y="1374" type="qcurve" smooth="yes"/>
      <point x="469" y="1431"/>
      <point x="563" y="1429" type="qcurve" smooth="yes"/>
      <point x="702" y="1427"/>
      <point x="776" y="1327" type="qcurve" smooth="yes"/>
      <point x="848" y="1229"/>
      <point x="842" y="1098" type="qcurve"/>
    </contour>
  </outline>
</glyph>
<glyph name="nonbreakingspace" format="2">
  <advance width="342"/>
  <unicode hex="00A8"/>
  <outline>
    <contour>
      <point x="53" y="1216" type="line"/>
      <point x="53" y="1427" type="line"/>
      <point x="-37" y="1427" type="line"/>
      <point x="-37" y="1216" type="line"/>
    </contour>
    <contour>
      <point x="377" y="1216" type="line"/>
      <point x="377" y="1427" type="line"/>
      <point x="287" y="1427" type="line"/>
      <point x="287" y="1216" type="line"/>
    </contour>
  </outline>
</glyph>
<glyph name="guillemotleft" format="2">
  <advance width="1638"/>
  <unicode hex="00A9"/>
  <outline>
    <contour>
      <point x="821" y="1429" type="line"/>
      <point x="1122" y="1425"/>
      <point x="1313" y="1229" type="qcurve" smooth="yes"/>
      <point x="1505" y="1034"/>
      <point x="1507" y="733" type="qcurve"/>
      <point x="1503" y="438"/>
      <point x="1313" y="240" type="qcurve" smooth="yes"/>
      <point x="1122" y="37"/>
      <point x="821" y="33" type="qcurve"/>
      <point x="522" y="37"/>
      <point x="332" y="238" type="qcurve"/>
      <point x="133" y="434"/>
      <point x="131" y="733" type="qcurve" smooth="yes"/>
      <point x="133" y="1034"/>
      <point x="330" y="1229" type="qcurve"/>
      <point x="520" y="1425"/>
      <point x="821" y="1429" type="qcurve"/>
    </contour>
    <contour>
      <point x="1227" y="897" type="line"/>
      <point x="1206" y="1051"/>
      <point x="1098" y="1135" type="qcurve"/>
      <point x="989" y="1214"/>
      <point x="836" y="1214" type="qcurve" smooth="yes"/>
      <point x="623" y="1212"/>
      <point x="504" y="1081" type="qcurve" smooth="yes"/>
      <point x="379" y="948"/>
      <point x="379" y="733" type="qcurve" smooth="yes"/>
      <point x="381" y="524"/>
      <point x="508" y="387" type="qcurve"/>
      <point x="631" y="248"/>
      <point x="842" y="246" type="qcurve" smooth="yes"/>
      <point x="993" y="246"/>
      <point x="1100" y="338" type="qcurve" smooth="yes"/>
      <point x="1204" y="426"/>
      <point x="1227" y="575" type="qcurve"/>
      <point x="1149" y="575" type="line"/>
      <point x="1122" y="459"/>
      <point x="1044" y="389" type="qcurve"/>
      <point x="969" y="313"/>
      <point x="842" y="313" type="qcurve" smooth="yes"/>
      <point x="661" y="315"/>
      <point x="561" y="440" type="qcurve"/>
      <point x="457" y="559"/>
      <point x="457" y="735" type="qcurve" smooth="yes"/>
      <point x="457" y="917"/>
      <point x="557" y="1032" type="qcurve" smooth="yes"/>
      <point x="655" y="1145"/>
      <point x="838" y="1147" type="qcurve"/>
      <point x="1089" y="1143"/>
      <point x="1149" y="897" type="qcurve"/>
    </contour>
    <contour>
      <point x="819" y="1497" type="line"/>
      <point x="496" y="1493"/>
      <point x="279" y="1276" type="qcurve" smooth="yes"/>
      <point x="57" y="1059"/>
      <point x="53" y="731" type="qcurve"/>
      <point x="57" y="408"/>
      <point x="279" y="190" type="qcurve"/>
      <point x="496" y="-31"/>
      <point x="819" y="-35" type="qcurve"/>
      <point x="1147" y="-31"/>
      <point x="1364" y="190" type="qcurve" smooth="yes"/>
      <point x="1581" y="408"/>
      <point x="1585" y="731" type="qcurve"/>
      <point x="1581" y="1059"/>
      <point x="1364" y="1276" type="qcurve" smooth="yes"/>
      <point x="1147" y="1493"/>
      <point x="819" y="1497" type="qcurve"/>
    </contour>
  </outline>
</glyph>
<glyph name="Ydieresis" format="2">
  <advance width="635"/>
  <unicode hex="00AA"/>
  <outline>
    <contour>
      <point x="512" y="1135" type="line"/>
      <point x="512" y="1020" type="line" smooth="yes"/>
      <point x="512" y="1008"/>
      <point x="506" y="975" type="qcurve" smooth="yes"/>
      <point x="498" y="940"/>
      <point x="471" y="901" type="qcurve" smooth="yes"/>
      <point x="446" y="862"/>
      <point x="395" y="836" type="qcurve"/>
      <point x="344" y="805"/>
      <point x="256" y="805" type="qcurve" smooth="yes"/>
      <point x="178" y="805"/>
      <point x="137" y="848" type="qcurve"/>
      <point x="92" y="887"/>
      <point x="92" y="946" type="qcurve" smooth="yes"/>
      <point x="94" y="1071"/>
      <point x="272" y="1085" type="qcurve" smooth="yes"/>
      <point x="344" y="1094"/>
      <point x="414" y="1100" type="qcurve" smooth="yes"/>
      <point x="481" y="1106"/>
      <point x="512" y="1135" type="qcurve"/>
    </contour>
    <contour>
      <point x="125" y="1221" type="line"/>
      <point x="133" y="1298"/>
      <point x="186" y="1341" type="qcurve" smooth="yes"/>
      <point x="240" y="1382"/>
      <point x="324" y="1382" type="qcurve" smooth="yes"/>
      <point x="410" y="1382"/>
      <point x="463" y="1356" type="qcurve" smooth="yes"/>
      <point x="514" y="1329"/>
      <point x="514" y="1274" type="qcurve" smooth="yes"/>
      <point x="516" y="1200"/>
      <point x="481" y="1175" type="qcurve" smooth="yes"/>
      <point x="442" y="1151"/>
      <point x="279" y="1141" type="qcurve" smooth="yes"/>
      <point x="188" y="1139"/>
      <point x="111" y="1100" type="qcurve" smooth="yes"/>
      <point x="74" y="1079"/>
      <point x="51" y="1042" type="qcurve" smooth="yes"/>
      <point x="27" y="1005"/>
      <point x="27" y="946" type="qcurve" smooth="yes"/>
      <point x="27" y="833"/>
      <point x="96" y="793" type="qcurve"/>
      <point x="160" y="747"/>
      <point x="262" y="750" type="qcurve" smooth="yes"/>
      <point x="365" y="750"/>
      <point x="430" y="793" type="qcurve"/>
      <point x="496" y="831"/>
      <point x="514" y="889" type="qcurve"/>
      <point x="518" y="889" type="line"/>
      <point x="518" y="860" type="line" smooth="yes"/>
      <point x="516" y="823"/>
      <point x="537" y="797" type="qcurve"/>
      <point x="553" y="768"/>
      <point x="610" y="768" type="qcurve" smooth="yes"/>
      <point x="629" y="768"/>
      <point x="651" y="772" type="qcurve"/>
      <point x="651" y="827" type="line"/>
      <point x="627" y="823"/>
      <point x="614" y="823" type="qcurve" smooth="yes"/>
      <point x="588" y="823"/>
      <point x="584" y="848" type="qcurve"/>
      <point x="575" y="870"/>
      <point x="577" y="899" type="qcurve" smooth="yes"/>
      <point x="577" y="1264" type="line" smooth="yes"/>
      <point x="575" y="1366"/>
      <point x="504" y="1405" type="qcurve"/>
      <point x="430" y="1438"/>
      <point x="330" y="1438" type="qcurve" smooth="yes"/>
      <point x="86" y="1436"/>
      <point x="59" y="1221" type="qcurve"/>
    </contour>
  </outline>
</glyph>
<glyph name="Acircumflex" format="2">
  <advance width="797"/>
  <unicode hex="00AB"/>
  <outline>
    <contour>
      <point x="371" y="248" type="line"/>
      <point x="371" y="248" type="line"/>
      <point x="371" y="348" type="line"/>
      <point x="197" y="557" type="line"/>
      <point x="371" y="762" type="line"/>
      <point x="371" y="866" type="line"/>
      <point x="371" y="866" type="line"/>
      <point x="137" y="598" type="line"/>
      <point x="137" y="516" type="line"/>
    </contour>
    <contour>
      <point x="633" y="248" type="line"/>
      <point x="633" y="248" type="line"/>
      <point x="633" y="348" type="line"/>
      <point x="459" y="557" type="line"/>
      <point x="633" y="762" type="line"/>
      <point x="633" y="866" type="line"/>
      <point x="633" y="866" type="line"/>
      <point x="399" y="598" type="line"/>
      <point x="399" y="516" type="line"/>
    </contour>
  </outline>
</glyph>
<glyph name="daggerdbl" format="2">
  <advance width="1229"/>
  <unicode hex="00AC"/>
  <outline>
    <contour>
      <point x="1053" y="221" type="line"/>
      <point x="1130" y="221" type="line"/>
      <point x="1130" y="756" type="line"/>
      <point x="98" y="756" type="line"/>
      <point x="98" y="678" type="line"/>
      <point x="1053" y="678" type="line"/>
    </contour>
  </outline>
</glyph>
<glyph name="uni00AD" format="2">
  <advance width="721"/>
  <unicode hex="00AD"/>
  <outline>
    <contour>
      <point x="580" y="518" type="line"/>
      <point x="580" y="596" type="line"/>
      <point x="141" y="596" type="line"/>
      <point x="141" y="518" type="line"/>
    </contour>
  </outline>
</glyph>
<glyph name="Delta" format="2">
  <advance width="1638"/>
  <unicode hex="00AE"/>
  <outline>
    <contour>
      <point x="541" y="279" type="line"/>
      <point x="618" y="279" type="line"/>
      <point x="618" y="696" type="line"/>
      <point x="854" y="696" type="line"/>
      <point x="1126" y="279" type="line"/>
      <point x="1212" y="279" type="line"/>
      <point x="942" y="694" type="line"/>
      <point x="1042" y="711"/>
      <point x="1110" y="768" type="qcurve" smooth="yes"/>
      <point x="1173" y="825"/>
      <point x="1175" y="934" type="qcurve" smooth="yes"/>
      <point x="1178" y="1182"/>
      <point x="881" y="1184" type="qcurve" smooth="yes"/>
      <point x="541" y="1184" type="line"/>
    </contour>
    <contour>
      <point x="618" y="1116" type="line"/>
      <point x="868" y="1116" type="line" smooth="yes"/>
      <point x="954" y="1116"/>
      <point x="1026" y="1079" type="qcurve"/>
      <point x="1096" y="1038"/>
      <point x="1098" y="936" type="qcurve" smooth="yes"/>
      <point x="1098" y="879"/>
      <point x="1073" y="846" type="qcurve" smooth="yes"/>
      <point x="1049" y="811"/>
      <point x="1008" y="793" type="qcurve" smooth="yes"/>
      <point x="989" y="784"/>
      <point x="967" y="780" type="qcurve" smooth="yes"/>
      <point x="942" y="774"/>
      <point x="917" y="770" type="qcurve" smooth="yes"/>
      <point x="864" y="764"/>
      <point x="811" y="764" type="qcurve" smooth="yes"/>
      <point x="618" y="764" type="line"/>
    </contour>
    <contour>
      <point x="821" y="1429" type="line"/>
      <point x="1122" y="1425"/>
      <point x="1313" y="1229" type="qcurve" smooth="yes"/>
      <point x="1505" y="1034"/>
      <point x="1507" y="733" type="qcurve"/>
      <point x="1503" y="438"/>
      <point x="1313" y="240" type="qcurve" smooth="yes"/>
      <point x="1122" y="37"/>
      <point x="821" y="33" type="qcurve"/>
      <point x="522" y="37"/>
      <point x="332" y="238" type="qcurve"/>
      <point x="133" y="436"/>
      <point x="131" y="731" type="qcurve" smooth="yes"/>
      <point x="133" y="1036"/>
      <point x="330" y="1229" type="qcurve"/>
      <point x="520" y="1425"/>
      <point x="821" y="1429" type="qcurve"/>
    </contour>
    <contour>
      <point x="819" y="1497" type="line"/>
      <point x="496" y="1493"/>
      <point x="279" y="1276" type="qcurve" smooth="yes"/>
      <point x="57" y="1059"/>
      <point x="53" y="731" type="qcurve"/>
      <point x="57" y="408"/>
      <point x="279" y="190" type="qcurve"/>
      <point x="496" y="-31"/>
      <point x="819" y="-35" type="qcurve"/>
      <point x="1147" y="-31"/>
      <point x="1364" y="190" type="qcurve" smooth="yes"/>
      <point x="1581" y="408"/>
      <point x="1585" y="731" type="qcurve"/>
      <point x="1581" y="1059"/>
      <point x="1364" y="1276" type="qcurve" smooth="yes"/>
      <point x="1147" y="1493"/>
      <point x="819" y="1497" type="qcurve"/>
    </contour>
  </outline>
</glyph>
<glyph name="Gbreve" format="2">
  <advance width="342"/>
  <unicode hex="00AF"/>
  <outline>
    <contour>
      <point x="420" y="1288" type="line"/>
      <point x="420" y="1356" type="line"/>
      <point x="-76" y="1356" type="line"/>
      <point x="-76" y="1288" type="line"/>
    </contour>
  </outline>
</glyph>
<glyph name="oslash" format="2">
  <advance width="819"/>
  <unicode hex="00B0"/>
  <outline>
    <contour>
      <point x="410" y="1370" type="line"/>
      <point x="504" y="1368"/>
      <point x="565" y="1304" type="qcurve" smooth="yes"/>
      <point x="623" y="1241"/>
      <point x="625" y="1145" type="qcurve" smooth="yes"/>
      <point x="623" y="1051"/>
      <point x="565" y="987" type="qcurve" smooth="yes"/>
      <point x="504" y="922"/>
      <point x="410" y="919" type="qcurve"/>
      <point x="315" y="922"/>
      <point x="258" y="987" type="qcurve"/>
      <point x="195" y="1051"/>
      <point x="195" y="1145" type="qcurve" smooth="yes"/>
      <point x="195" y="1241"/>
      <point x="258" y="1304" type="qcurve"/>
      <point x="315" y="1368"/>
      <point x="410" y="1370" type="qcurve"/>
    </contour>
    <contour>
      <point x="410" y="852" type="line"/>
      <point x="537" y="854"/>
      <point x="618" y="938" type="qcurve" smooth="yes"/>
      <point x="700" y="1020"/>
      <point x="702" y="1145" type="qcurve" smooth="yes"/>
      <point x="700" y="1272"/>
      <point x="618" y="1354" type="qcurve" smooth="yes"/>
      <point x="537" y="1436"/>
      <point x="410" y="1438" type="qcurve" smooth="yes"/>
      <point x="285" y="1436"/>
      <point x="203" y="1354" type="qcurve" smooth="yes"/>
      <point x="119" y="1272"/>
      <point x="117" y="1145" type="qcurve" smooth="yes"/>
      <point x="119" y="1020"/>
      <point x="203" y="938" type="qcurve" smooth="yes"/>
      <point x="285" y="854"/>
      <point x="410" y="852" type="qcurve"/>
    </contour>
  </outline>
</glyph>
<glyph name="oe" format="2">
  <advance width="1229"/>
  <unicode hex="00B1"/>
  <outline>
    <contour>
      <point x="575" y="645" type="line"/>
      <point x="98" y="645" type="line"/>
      <point x="98" y="567" type="line"/>
      <point x="575" y="567" type="line"/>
      <point x="575" y="180" type="line"/>
      <point x="653" y="180" type="line"/>
      <point x="653" y="567" type="line"/>
      <point x="1130" y="567" type="line"/>
      <point x="1130" y="645" type="line"/>
      <point x="653" y="645" type="line"/>
      <point x="653" y="1032" type="line"/>
      <point x="575" y="1032" type="line"/>
    </contour>
    <contour>
      <point x="98" y="0" type="line"/>
      <point x="1130" y="0" type="line"/>
      <point x="1130" y="78" type="line"/>
      <point x="98" y="78" type="line"/>
    </contour>
  </outline>
</glyph>
<glyph name="uni00B2" format="2">
  <advance width="682"/>
  <unicode hex="00B2"/>
  <outline>
    <contour>
      <point x="98" y="618" type="line"/>
      <point x="131" y="711"/>
      <point x="209" y="768" type="qcurve" smooth="yes"/>
      <point x="285" y="823"/>
      <point x="383" y="881" type="qcurve" smooth="yes"/>
      <point x="485" y="944"/>
      <point x="563" y="1020" type="qcurve" smooth="yes"/>
      <point x="639" y="1096"/>
      <point x="641" y="1196" type="qcurve" smooth="yes"/>
      <point x="639" y="1323"/>
      <point x="557" y="1380" type="qcurve" smooth="yes"/>
      <point x="475" y="1438"/>
      <point x="348" y="1438" type="qcurve" smooth="yes"/>
      <point x="190" y="1436"/>
      <point x="125" y="1354" type="qcurve" smooth="yes"/>
      <point x="57" y="1270"/>
      <point x="49" y="1128" type="qcurve"/>
      <point x="115" y="1128" type="line"/>
      <point x="117" y="1376"/>
      <point x="348" y="1382" type="qcurve"/>
      <point x="467" y="1380"/>
      <point x="522" y="1325" type="qcurve" smooth="yes"/>
      <point x="575" y="1270"/>
      <point x="575" y="1198" type="qcurve" smooth="yes"/>
      <point x="573" y="1102"/>
      <point x="494" y="1034" type="qcurve" smooth="yes"/>
      <point x="416" y="965"/>
      <point x="309" y="905" type="qcurve" smooth="yes"/>
      <point x="207" y="846"/>
      <point x="125" y="768" type="qcurve"/>
      <point x="88" y="727"/>
      <point x="61" y="678" type="qcurve" smooth="yes"/>
      <point x="37" y="627"/>
      <point x="33" y="563" type="qcurve"/>
      <point x="647" y="563" type="line"/>
      <point x="647" y="618" type="line"/>
    </contour>
  </outline>
</glyph>
<glyph name="uni00B3" format="2">
  <advance width="682"/>
  <unicode hex="00B3"/>
  <outline>
    <contour>
      <point x="37" y="850" type="line"/>
      <point x="33" y="545"/>
      <point x="377" y="545" type="qcurve" smooth="yes"/>
      <point x="510" y="545"/>
      <point x="598" y="608" type="qcurve" smooth="yes"/>
      <point x="688" y="672"/>
      <point x="690" y="801" type="qcurve" smooth="yes"/>
      <point x="690" y="889"/>
      <point x="639" y="948" type="qcurve" smooth="yes"/>
      <point x="586" y="1005"/>
      <point x="489" y="1016" type="qcurve"/>
      <point x="489" y="1020" type="line"/>
      <point x="573" y="1034"/>
      <point x="623" y="1087" type="qcurve" smooth="yes"/>
      <point x="670" y="1139"/>
      <point x="670" y="1214" type="qcurve" smooth="yes"/>
      <point x="668" y="1335"/>
      <point x="580" y="1388" type="qcurve" smooth="yes"/>
      <point x="491" y="1438"/>
      <point x="377" y="1438" type="qcurve" smooth="yes"/>
      <point x="68" y="1431"/>
      <point x="59" y="1145" type="qcurve"/>
      <point x="125" y="1145" type="line"/>
      <point x="131" y="1251"/>
      <point x="190" y="1317" type="qcurve" smooth="yes"/>
      <point x="250" y="1380"/>
      <point x="367" y="1382" type="qcurve" smooth="yes"/>
      <point x="451" y="1382"/>
      <point x="526" y="1343" type="qcurve" smooth="yes"/>
      <point x="602" y="1300"/>
      <point x="604" y="1214" type="qcurve" smooth="yes"/>
      <point x="602" y="1108"/>
      <point x="512" y="1073" type="qcurve" smooth="yes"/>
      <point x="494" y="1065"/>
      <point x="471" y="1059" type="qcurve" smooth="yes"/>
      <point x="446" y="1053"/>
      <point x="422" y="1049" type="qcurve" smooth="yes"/>
      <point x="371" y="1040"/>
      <point x="317" y="1040" type="qcurve"/>
      <point x="317" y="985" type="line"/>
      <point x="436" y="995"/>
      <point x="528" y="954" type="qcurve" smooth="yes"/>
      <point x="623" y="913"/>
      <point x="625" y="801" type="qcurve" smooth="yes"/>
      <point x="623" y="707"/>
      <point x="547" y="653" type="qcurve" smooth="yes"/>
      <point x="469" y="600"/>
      <point x="367" y="600" type="qcurve" smooth="yes"/>
      <point x="242" y="600"/>
      <point x="172" y="670" type="qcurve"/>
      <point x="100" y="735"/>
      <point x="102" y="850" type="qcurve"/>
    </contour>
  </outline>
</glyph>
<glyph name="ellipsis" format="2">
  <advance width="342"/>
  <unicode hex="00B4"/>
  <outline>
    <contour>
      <point x="53" y="1210" type="line"/>
      <point x="129" y="1210" type="line"/>
      <point x="403" y="1497" type="line"/>
      <point x="299" y="1497" type="line"/>
    </contour>
  </outline>
</glyph>
<glyph name="florin" format="2">
  <advance width="1229"/>
  <unicode hex="00B6"/>
  <outline>
    <contour>
      <point x="559" y="-299" type="line"/>
      <point x="637" y="-299" type="line"/>
      <point x="637" y="1395" type="line"/>
      <point x="958" y="1395" type="line"/>
      <point x="958" y="-299" type="line"/>
      <point x="1036" y="-299" type="line"/>
      <point x="1036" y="1462" type="line"/>
      <point x="592" y="1462" type="line" smooth="yes"/>
      <point x="141" y="1460"/>
      <point x="135" y="1061" type="qcurve"/>
      <point x="137" y="897"/>
      <point x="258" y="784" type="qcurve"/>
      <point x="377" y="666"/>
      <point x="559" y="664" type="qcurve"/>
    </contour>
  </outline>
</glyph>
<glyph name="scedilla" format="2">
  <advance width="342"/>
  <unicode hex="00B8"/>
  <outline>
    <contour>
      <point x="170" y="0" type="line"/>
      <point x="55" y="-154" type="line"/>
      <point x="88" y="-180" type="line"/>
      <point x="133" y="-156"/>
      <point x="197" y="-156" type="qcurve" smooth="yes"/>
      <point x="227" y="-156"/>
      <point x="262" y="-176" type="qcurve"/>
      <point x="295" y="-201"/>
      <point x="297" y="-250" type="qcurve" smooth="yes"/>
      <point x="295" y="-303"/>
      <point x="256" y="-324" type="qcurve" smooth="yes"/>
      <point x="217" y="-346"/>
      <point x="168" y="-346" type="qcurve" smooth="yes"/>
      <point x="117" y="-344"/>
      <point x="78" y="-332" type="qcurve" smooth="yes"/>
      <point x="39" y="-321"/>
      <point x="4" y="-309" type="qcurve"/>
      <point x="-18" y="-358" type="line"/>
      <point x="35" y="-397"/>
      <point x="166" y="-401" type="qcurve" smooth="yes"/>
      <point x="260" y="-401"/>
      <point x="317" y="-365" type="qcurve" smooth="yes"/>
      <point x="375" y="-328"/>
      <point x="375" y="-250" type="qcurve" smooth="yes"/>
      <point x="373" y="-170"/>
      <point x="328" y="-135" type="qcurve" smooth="yes"/>
      <point x="283" y="-98"/>
      <point x="221" y="-100" type="qcurve" smooth="yes"/>
      <point x="197" y="-100"/>
      <point x="178" y="-104" type="qcurve" smooth="yes"/>
      <point x="160" y="-111"/>
      <point x="145" y="-119" type="qcurve"/>
      <point x="141" y="-115" type="line"/>
      <point x="240" y="0" type="line"/>
    </contour>
  </outline>
</glyph>
<glyph name="uni00B9" format="2">
  <advance width="682"/>
  <unicode hex="00B9"/>
  <outline>
    <contour>
      <point x="426" y="1419" type="line"/>
      <point x="367" y="1419" type="line"/>
      <point x="279" y="1296"/>
      <point x="121" y="1270" type="qcurve"/>
      <point x="121" y="1214" type="line"/>
      <point x="266" y="1227"/>
      <point x="360" y="1323" type="qcurve"/>
      <point x="360" y="1323" type="line"/>
      <point x="360" y="563" type="line"/>
      <point x="426" y="563" type="line"/>
    </contour>
  </outline>
</glyph>
<glyph name="fraction" format="2">
  <advance width="684"/>
  <unicode hex="00BA"/>
  <outline>
    <contour>
      <point x="342" y="750" type="line"/>
      <point x="500" y="752"/>
      <point x="584" y="848" type="qcurve" smooth="yes"/>
      <point x="666" y="944"/>
      <point x="666" y="1094" type="qcurve" smooth="yes"/>
      <point x="666" y="1245"/>
      <point x="584" y="1339" type="qcurve" smooth="yes"/>
      <point x="500" y="1436"/>
      <point x="342" y="1438" type="qcurve" smooth="yes"/>
      <point x="186" y="1436"/>
      <point x="102" y="1339" type="qcurve" smooth="yes"/>
      <point x="18" y="1245"/>
      <point x="18" y="1094" type="qcurve" smooth="yes"/>
      <point x="18" y="944"/>
      <point x="102" y="848" type="qcurve" smooth="yes"/>
      <point x="186" y="752"/>
      <point x="342" y="750" type="qcurve"/>
    </contour>
    <contour>
      <point x="342" y="805" type="line"/>
      <point x="211" y="807"/>
      <point x="147" y="893" type="qcurve" smooth="yes"/>
      <point x="84" y="977"/>
      <point x="84" y="1094" type="qcurve" smooth="yes"/>
      <point x="84" y="1212"/>
      <point x="147" y="1296" type="qcurve" smooth="yes"/>
      <point x="211" y="1380"/>
      <point x="342" y="1382" type="qcurve" smooth="yes"/>
      <point x="477" y="1380"/>
      <point x="541" y="1296" type="qcurve" smooth="yes"/>
      <point x="600" y="1212"/>
      <point x="600" y="1094" type="qcurve" smooth="yes"/>
      <point x="600" y="977"/>
      <point x="541" y="893" type="qcurve" smooth="yes"/>
      <point x="477" y="807"/>
      <point x="342" y="805" type="qcurve"/>
    </contour>
  </outline>
</glyph>
<glyph name="Ecircumflex" format="2">
  <advance width="797"/>
  <unicode hex="00BB"/>
  <outline>
    <contour>
      <point x="164" y="248" type="line"/>
      <point x="164" y="248" type="line"/>
      <point x="397" y="516" type="line"/>
      <point x="397" y="598" type="line"/>
      <point x="164" y="866" type="line"/>
      <point x="164" y="866" type="line"/>
      <point x="164" y="762" type="line"/>
      <point x="338" y="557" type="line"/>
      <point x="164" y="348" type="line"/>
    </contour>
    <contour>
      <point x="426" y="248" type="line"/>
      <point x="426" y="248" type="line"/>
      <point x="659" y="516" type="line"/>
      <point x="659" y="598" type="line"/>
      <point x="426" y="866" type="line"/>
      <point x="426" y="866" type="line"/>
      <point x="426" y="762" type="line"/>
      <point x="600" y="557" type="line"/>
      <point x="426" y="348" type="line"/>
    </contour>
  </outline>
</glyph>
<glyph name="glyph154" format="2">
  <advance width="1708"/>
  <unicode hex="00BC"/>
  <outline>
    <contour>
      <point x="309" y="-49" type="line"/>
      <point x="391" y="-49" type="line"/>
      <point x="1343" y="1462" type="line"/>
      <point x="1261" y="1462" type="line"/>
    </contour>
    <contour>
      <point x="498" y="1419" type="line"/>
      <point x="438" y="1419" type="line"/>
      <point x="350" y="1296"/>
      <point x="192" y="1270" type="qcurve"/>
      <point x="192" y="1214" type="line"/>
      <point x="338" y="1227"/>
      <point x="432" y="1323" type="qcurve"/>
      <point x="432" y="1323" type="line"/>
      <point x="432" y="563" type="line"/>
      <point x="498" y="563" type="line"/>
    </contour>
    <contour>
      <point x="1282" y="848" type="line"/>
      <point x="872" y="268" type="line"/>
      <point x="872" y="213" type="line"/>
      <point x="1313" y="213" type="line"/>
      <point x="1313" y="0" type="line"/>
      <point x="1378" y="0" type="line"/>
      <point x="1378" y="213" type="line"/>
      <point x="1524" y="213" type="line"/>
      <point x="1524" y="268" type="line"/>
      <point x="1378" y="268" type="line"/>
      <point x="1378" y="848" type="line"/>
    </contour>
    <contour>
      <point x="1313" y="268" type="line"/>
      <point x="946" y="268" type="line"/>
      <point x="1309" y="780" type="line"/>
      <point x="1313" y="780" type="line"/>
    </contour>
  </outline>
</glyph>
<glyph name="glyph161" format="2">
  <advance width="1708"/>
  <unicode hex="00BD"/>
  <outline>
    <contour>
      <point x="248" y="-49" type="line"/>
      <point x="330" y="-49" type="line"/>
      <point x="1282" y="1462" type="line"/>
      <point x="1200" y="1462" type="line"/>
    </contour>
    <contour>
      <point x="436" y="1419" type="line"/>
      <point x="377" y="1419" type="line"/>
      <point x="289" y="1296"/>
      <point x="131" y="1270" type="qcurve"/>
      <point x="131" y="1214" type="line"/>
      <point x="276" y="1227"/>
      <point x="371" y="1323" type="qcurve"/>
      <point x="371" y="1323" type="line"/>
      <point x="371" y="563" type="line"/>
      <point x="436" y="563" type="line"/>
    </contour>
    <contour>
      <point x="1059" y="55" type="line"/>
      <point x="1089" y="147"/>
      <point x="1165" y="205" type="qcurve" smooth="yes"/>
      <point x="1241" y="260"/>
      <point x="1339" y="317" type="qcurve" smooth="yes"/>
      <point x="1442" y="381"/>
      <point x="1520" y="457" type="qcurve" smooth="yes"/>
      <point x="1595" y="532"/>
      <point x="1597" y="633" type="qcurve" smooth="yes"/>
      <point x="1595" y="760"/>
      <point x="1513" y="817" type="qcurve" smooth="yes"/>
      <point x="1431" y="874"/>
      <point x="1304" y="874" type="qcurve" smooth="yes"/>
      <point x="1147" y="872"/>
      <point x="1081" y="790" type="qcurve" smooth="yes"/>
      <point x="1014" y="707"/>
      <point x="1005" y="565" type="qcurve"/>
      <point x="1071" y="565" type="line"/>
      <point x="1073" y="813"/>
      <point x="1304" y="819" type="qcurve"/>
      <point x="1423" y="817"/>
      <point x="1479" y="762" type="qcurve" smooth="yes"/>
      <point x="1532" y="707"/>
      <point x="1532" y="635" type="qcurve" smooth="yes"/>
      <point x="1530" y="539"/>
      <point x="1450" y="471" type="qcurve" smooth="yes"/>
      <point x="1372" y="401"/>
      <point x="1266" y="342" type="qcurve" smooth="yes"/>
      <point x="1163" y="283"/>
      <point x="1081" y="205" type="qcurve"/>
      <point x="1044" y="164"/>
      <point x="1018" y="115" type="qcurve" smooth="yes"/>
      <point x="993" y="63"/>
      <point x="989" y="0" type="qcurve"/>
      <point x="1603" y="0" type="line"/>
      <point x="1603" y="55" type="line"/>
    </contour>
  </outline>
</glyph>
<glyph name="glyph153" format="2">
  <advance width="1708"/>
  <unicode hex="00BE"/>
  <outline>
    <contour>
      <point x="68" y="850" type="line"/>
      <point x="63" y="545"/>
      <point x="408" y="545" type="qcurve" smooth="yes"/>
      <point x="541" y="545"/>
      <point x="629" y="608" type="qcurve" smooth="yes"/>
      <point x="719" y="672"/>
      <point x="721" y="801" type="qcurve" smooth="yes"/>
      <point x="721" y="889"/>
      <point x="670" y="948" type="qcurve" smooth="yes"/>
      <point x="616" y="1005"/>
      <point x="520" y="1016" type="qcurve"/>
      <point x="520" y="1020" type="line"/>
      <point x="604" y="1034"/>
      <point x="653" y="1087" type="qcurve" smooth="yes"/>
      <point x="700" y="1139"/>
      <point x="700" y="1214" type="qcurve" smooth="yes"/>
      <point x="698" y="1335"/>
      <point x="610" y="1388" type="qcurve" smooth="yes"/>
      <point x="522" y="1438"/>
      <point x="408" y="1438" type="qcurve" smooth="yes"/>
      <point x="98" y="1431"/>
      <point x="90" y="1145" type="qcurve"/>
      <point x="156" y="1145" type="line"/>
      <point x="162" y="1251"/>
      <point x="221" y="1317" type="qcurve" smooth="yes"/>
      <point x="281" y="1380"/>
      <point x="397" y="1382" type="qcurve" smooth="yes"/>
      <point x="481" y="1382"/>
      <point x="557" y="1343" type="qcurve" smooth="yes"/>
      <point x="633" y="1300"/>
      <point x="635" y="1214" type="qcurve" smooth="yes"/>
      <point x="633" y="1108"/>
      <point x="543" y="1073" type="qcurve" smooth="yes"/>
      <point x="524" y="1065"/>
      <point x="502" y="1059" type="qcurve" smooth="yes"/>
      <point x="477" y="1053"/>
      <point x="453" y="1049" type="qcurve" smooth="yes"/>
      <point x="401" y="1040"/>
      <point x="348" y="1040" type="qcurve"/>
      <point x="348" y="985" type="line"/>
      <point x="467" y="995"/>
      <point x="559" y="954" type="qcurve" smooth="yes"/>
      <point x="653" y="913"/>
      <point x="655" y="801" type="qcurve" smooth="yes"/>
      <point x="653" y="707"/>
      <point x="577" y="653" type="qcurve" smooth="yes"/>
      <point x="500" y="600"/>
      <point x="397" y="600" type="qcurve" smooth="yes"/>
      <point x="272" y="600"/>
      <point x="203" y="670" type="qcurve"/>
      <point x="131" y="735"/>
      <point x="133" y="850" type="qcurve"/>
    </contour>
    <contour>
      <point x="405" y="-49" type="line"/>
      <point x="487" y="-49" type="line"/>
      <point x="1440" y="1462" type="line"/>
      <point x="1358" y="1462" type="line"/>
    </contour>
    <contour>
      <point x="1343" y="848" type="line"/>
      <point x="934" y="268" type="line"/>
      <point x="934" y="213" type="line"/>
      <point x="1374" y="213" type="line"/>
      <point x="1374" y="0" type="line"/>
      <point x="1440" y="0" type="line"/>
      <point x="1440" y="213" type="line"/>
      <point x="1585" y="213" type="line"/>
      <point x="1585" y="268" type="line"/>
      <point x="1440" y="268" type="line"/>
      <point x="1440" y="848" type="line"/>
    </contour>
    <contour>
      <point x="1374" y="268" type="line"/>
      <point x="1008" y="268" type="line"/>
      <point x="1370" y="780" type="line"/>
      <point x="1374" y="780" type="line"/>
    </contour>
  </outline>
</glyph>
<glyph name="fi" format="2">
  <advance width="1063"/>
  <unicode hex="00BF"/>
  <outline>
    <contour>
      <point x="895" y="86" type="line"/>
      <point x="895" y="-92"/>
      <point x="803" y="-205" type="qcurve" smooth="yes"/>
      <point x="711" y="-321"/>
      <point x="524" y="-324" type="qcurve" smooth="yes"/>
      <point x="393" y="-324"/>
      <point x="297" y="-254" type="qcurve" smooth="yes"/>
      <point x="197" y="-184"/>
      <point x="195" y="-35" type="qcurve" smooth="yes"/>
      <point x="197" y="72"/>
      <point x="260" y="154" type="qcurve" smooth="yes"/>
      <point x="319" y="236"/>
      <point x="397" y="305" type="qcurve" smooth="yes"/>
      <point x="473" y="373"/>
      <point x="524" y="471" type="qcurve" smooth="yes"/>
      <point x="575" y="565"/>
      <point x="577" y="725" type="qcurve"/>
      <point x="500" y="725" type="line"/>
      <point x="500" y="637"/>
      <point x="483" y="573" type="qcurve" smooth="yes"/>
      <point x="465" y="510"/>
      <point x="436" y="461" type="qcurve" smooth="yes"/>
      <point x="408" y="416"/>
      <point x="373" y="381" type="qcurve" smooth="yes"/>
      <point x="336" y="344"/>
      <point x="299" y="313" type="qcurve" smooth="yes"/>
      <point x="264" y="281"/>
      <point x="233" y="248" type="qcurve" smooth="yes"/>
      <point x="203" y="211"/>
      <point x="174" y="172" type="qcurve" smooth="yes"/>
      <point x="117" y="94"/>
      <point x="117" y="-35" type="qcurve" smooth="yes"/>
      <point x="119" y="-219"/>
      <point x="238" y="-309" type="qcurve"/>
      <point x="350" y="-401"/>
      <point x="518" y="-401" type="qcurve" smooth="yes"/>
      <point x="743" y="-399"/>
      <point x="858" y="-266" type="qcurve" smooth="yes"/>
      <point x="973" y="-135"/>
      <point x="973" y="86" type="qcurve"/>
    </contour>
    <contour>
      <point x="588" y="1096" type="line"/>
      <point x="483" y="1096" type="line"/>
      <point x="483" y="885" type="line"/>
      <point x="588" y="885" type="line"/>
    </contour>
  </outline>
</glyph>
<glyph name="Atilde" format="2">
  <advance width="1782"/>
  <unicode hex="00C6"/>
  <outline>
    <contour>
      <point x="-18" y="0" type="line"/>
      <point x="63" y="0" type="line"/>
      <point x="334" y="520" type="line"/>
      <point x="883" y="520" type="line"/>
      <point x="883" y="0" type="line"/>
      <point x="1751" y="0" type="line"/>
      <point x="1751" y="78" type="line"/>
      <point x="973" y="78" type="line"/>
      <point x="973" y="721" type="line"/>
      <point x="1689" y="721" type="line"/>
      <point x="1689" y="799" type="line"/>
      <point x="973" y="799" type="line"/>
      <point x="973" y="1384" type="line"/>
      <point x="1749" y="1384" type="line"/>
      <point x="1749" y="1462" type="line"/>
      <point x="745" y="1462" type="line"/>
    </contour>
    <contour>
      <point x="883" y="598" type="line"/>
      <point x="375" y="598" type="line"/>
      <point x="786" y="1384" type="line"/>
      <point x="883" y="1384" type="line"/>
    </contour>
  </outline>
</glyph>
<glyph name="dagger" format="2">
  <advance width="1442"/>
  <unicode hex="00C7"/>
  <outline>
    <contour>
      <point x="1358" y="1026" type="line"/>
      <point x="1360" y="1038"/>
      <point x="1339" y="1110" type="qcurve" smooth="yes"/>
      <point x="1319" y="1182"/>
      <point x="1259" y="1270" type="qcurve" smooth="yes"/>
      <point x="1200" y="1360"/>
      <point x="1083" y="1427" type="qcurve" smooth="yes"/>
      <point x="965" y="1495"/>
      <point x="770" y="1497" type="qcurve"/>
      <point x="438" y="1493"/>
      <point x="258" y="1276" type="qcurve"/>
      <point x="76" y="1063"/>
      <point x="74" y="731" type="qcurve" smooth="yes"/>
      <point x="74" y="424"/>
      <point x="238" y="213" type="qcurve" smooth="yes"/>
      <point x="399" y="4"/>
      <point x="696" y="-31" type="qcurve"/>
      <point x="606" y="-154" type="line"/>
      <point x="639" y="-180" type="line"/>
      <point x="684" y="-156"/>
      <point x="747" y="-156" type="qcurve" smooth="yes"/>
      <point x="778" y="-156"/>
      <point x="813" y="-176" type="qcurve"/>
      <point x="846" y="-201"/>
      <point x="848" y="-250" type="qcurve" smooth="yes"/>
      <point x="846" y="-303"/>
      <point x="807" y="-324" type="qcurve" smooth="yes"/>
      <point x="768" y="-346"/>
      <point x="719" y="-346" type="qcurve" smooth="yes"/>
      <point x="668" y="-344"/>
      <point x="629" y="-332" type="qcurve" smooth="yes"/>
      <point x="590" y="-321"/>
      <point x="555" y="-309" type="qcurve"/>
      <point x="532" y="-358" type="line"/>
      <point x="586" y="-397"/>
      <point x="717" y="-401" type="qcurve" smooth="yes"/>
      <point x="811" y="-401"/>
      <point x="868" y="-365" type="qcurve" smooth="yes"/>
      <point x="926" y="-328"/>
      <point x="926" y="-250" type="qcurve" smooth="yes"/>
      <point x="924" y="-170"/>
      <point x="879" y="-135" type="qcurve" smooth="yes"/>
      <point x="833" y="-98"/>
      <point x="772" y="-100" type="qcurve" smooth="yes"/>
      <point x="747" y="-100"/>
      <point x="729" y="-104" type="qcurve" smooth="yes"/>
      <point x="711" y="-111"/>
      <point x="696" y="-119" type="qcurve"/>
      <point x="692" y="-115" type="line"/>
      <point x="760" y="-35" type="line"/>
      <point x="770" y="-35" type="line"/>
      <point x="1018" y="-31"/>
      <point x="1186" y="139" type="qcurve"/>
      <point x="1354" y="303"/>
      <point x="1382" y="569" type="qcurve"/>
      <point x="1292" y="569" type="line"/>
      <point x="1276" y="360"/>
      <point x="1132" y="205" type="qcurve" smooth="yes"/>
      <point x="989" y="47"/>
      <point x="770" y="43" type="qcurve"/>
      <point x="481" y="47"/>
      <point x="326" y="248" type="qcurve"/>
      <point x="164" y="444"/>
      <point x="164" y="731" type="qcurve" smooth="yes"/>
      <point x="164" y="1022"/>
      <point x="326" y="1216" type="qcurve"/>
      <point x="481" y="1415"/>
      <point x="770" y="1419" type="qcurve"/>
      <point x="958" y="1417"/>
      <point x="1098" y="1315" type="qcurve" smooth="yes"/>
      <point x="1235" y="1212"/>
      <point x="1268" y="1026" type="qcurve"/>
    </contour>
  </outline>
</glyph>
<glyph name="multiply" format="2">
  <advance width="1229"/>
  <unicode hex="00D7"/>
  <outline>
    <contour>
      <point x="162" y="119" type="line"/>
      <point x="215" y="63" type="line"/>
      <point x="215" y="63" type="line"/>
      <point x="614" y="463" type="line"/>
      <point x="614" y="463" type="line"/>
      <point x="1012" y="63" type="line"/>
      <point x="1012" y="63" type="line"/>
      <point x="1067" y="119" type="line"/>
      <point x="670" y="516" type="line"/>
      <point x="1067" y="915" type="line"/>
      <point x="1012" y="971" type="line"/>
      <point x="1012" y="971" type="line"/>
      <point x="614" y="571" type="line"/>
      <point x="614" y="571" type="line"/>
      <point x="215" y="971" type="line"/>
      <point x="215" y="971" type="line"/>
      <point x="162" y="915" type="line"/>
      <point x="559" y="516" type="line"/>
    </contour>
  </outline>
</glyph>
<glyph name="Otilde" format="2">
  <advance width="1517"/>
  <unicode hex="00D8"/>
  <outline>
    <contour>
      <point x="1225" y="1192" type="line"/>
      <point x="1225" y="1192" type="line"/>
      <point x="1362" y="1001"/>
      <point x="1364" y="731" type="qcurve" smooth="yes"/>
      <point x="1362" y="444"/>
      <point x="1206" y="248" type="qcurve" smooth="yes"/>
      <point x="1049" y="47"/>
      <point x="760" y="43" type="qcurve"/>
      <point x="494" y="45"/>
      <point x="338" y="221" type="qcurve"/>
    </contour>
    <contour>
      <point x="293" y="274" type="line"/>
      <point x="293" y="274" type="line"/>
      <point x="154" y="465"/>
      <point x="154" y="731" type="qcurve" smooth="yes"/>
      <point x="154" y="1022"/>
      <point x="315" y="1216" type="qcurve"/>
      <point x="471" y="1415"/>
      <point x="760" y="1419" type="qcurve"/>
      <point x="1022" y="1415"/>
      <point x="1178" y="1247" type="qcurve"/>
    </contour>
    <contour>
      <point x="70" y="33" type="line"/>
      <point x="123" y="-16" type="line"/>
      <point x="123" y="-16" type="line"/>
      <point x="279" y="156" type="line"/>
      <point x="279" y="156" type="line"/>
      <point x="457" y="-33"/>
      <point x="760" y="-35" type="qcurve" smooth="yes"/>
      <point x="926" y="-33"/>
      <point x="1055" y="27" type="qcurve" smooth="yes"/>
      <point x="1184" y="86"/>
      <point x="1272" y="190" type="qcurve" smooth="yes"/>
      <point x="1452" y="403"/>
      <point x="1454" y="731" type="qcurve" smooth="yes"/>
      <point x="1452" y="1049"/>
      <point x="1284" y="1257" type="qcurve"/>
      <point x="1427" y="1413" type="line"/>
      <point x="1374" y="1462" type="line"/>
      <point x="1374" y="1462" type="line"/>
      <point x="1235" y="1311" type="line"/>
      <point x="1235" y="1311" type="line"/>
      <point x="1057" y="1493"/>
      <point x="760" y="1497" type="qcurve"/>
      <point x="428" y="1493"/>
      <point x="248" y="1276" type="qcurve"/>
      <point x="66" y="1063"/>
      <point x="63" y="731" type="qcurve" smooth="yes"/>
      <point x="63" y="420"/>
      <point x="231" y="209" type="qcurve"/>
    </contour>
  </outline>
</glyph>
<glyph name="glyph158" format="2">
  <advance width="1214"/>
  <unicode hex="00DE"/>
  <outline>
    <contour>
      <point x="129" y="0" type="line"/>
      <point x="219" y="0" type="line"/>
      <point x="219" y="405" type="line"/>
      <point x="719" y="405" type="line"/>
      <point x="1171" y="410"/>
      <point x="1178" y="809" type="qcurve" smooth="yes"/>
      <point x="1178" y="940"/>
      <point x="1137" y="1022" type="qcurve" smooth="yes"/>
      <point x="1096" y="1104"/>
      <point x="1028" y="1145" type="qcurve" smooth="yes"/>
      <point x="962" y="1188"/>
      <point x="891" y="1204" type="qcurve"/>
      <point x="817" y="1216"/>
      <point x="752" y="1216" type="qcurve" smooth="yes"/>
      <point x="219" y="1216" type="line"/>
      <point x="219" y="1462" type="line"/>
      <point x="129" y="1462" type="line"/>
    </contour>
    <contour>
      <point x="219" y="1139" type="line"/>
      <point x="745" y="1139" type="line" smooth="yes"/>
      <point x="856" y="1139"/>
      <point x="926" y="1106" type="qcurve" smooth="yes"/>
      <point x="993" y="1071"/>
      <point x="1028" y="1018" type="qcurve" smooth="yes"/>
      <point x="1063" y="965"/>
      <point x="1077" y="911" type="qcurve"/>
      <point x="1087" y="856"/>
      <point x="1087" y="811" type="qcurve" smooth="yes"/>
      <point x="1087" y="756"/>
      <point x="1071" y="698" type="qcurve" smooth="yes"/>
      <point x="1053" y="639"/>
      <point x="1010" y="592" type="qcurve" smooth="yes"/>
      <point x="971" y="545"/>
      <point x="903" y="516" type="qcurve" smooth="yes"/>
      <point x="833" y="483"/>
      <point x="733" y="483" type="qcurve" smooth="yes"/>
      <point x="219" y="483" type="line"/>
    </contour>
  </outline>
</glyph>
<glyph name="approxequal" format="2">
  <advance width="1024"/>
  <unicode hex="00DF"/>
  <outline>
    <contour>
      <point x="424" y="776" type="line"/>
      <point x="618" y="778"/>
      <point x="743" y="711" type="qcurve"/>
      <point x="868" y="637"/>
      <point x="870" y="438" type="qcurve" smooth="yes"/>
      <point x="870" y="313"/>
      <point x="831" y="240" type="qcurve" smooth="yes"/>
      <point x="790" y="164"/>
      <point x="731" y="127" type="qcurve" smooth="yes"/>
      <point x="672" y="92"/>
      <point x="612" y="80" type="qcurve" smooth="yes"/>
      <point x="549" y="66"/>
      <point x="502" y="68" type="qcurve" smooth="yes"/>
      <point x="424" y="68" type="line"/>
      <point x="424" y="0" type="line"/>
      <point x="537" y="0" type="line" smooth="yes"/>
      <point x="588" y="0"/>
      <point x="655" y="14" type="qcurve" smooth="yes"/>
      <point x="725" y="29"/>
      <point x="790" y="72" type="qcurve" smooth="yes"/>
      <point x="858" y="117"/>
      <point x="903" y="205" type="qcurve" smooth="yes"/>
      <point x="948" y="293"/>
      <point x="948" y="438" type="qcurve" smooth="yes"/>
      <point x="948" y="770"/>
      <point x="633" y="821" type="qcurve"/>
      <point x="633" y="825" type="line"/>
      <point x="879" y="889"/>
      <point x="876" y="1147" type="qcurve" smooth="yes"/>
      <point x="874" y="1319"/>
      <point x="766" y="1405" type="qcurve" smooth="yes"/>
      <point x="657" y="1487"/>
      <point x="491" y="1487" type="qcurve" smooth="yes"/>
      <point x="117" y="1483"/>
      <point x="119" y="1100" type="qcurve" smooth="yes"/>
      <point x="119" y="0" type="line"/>
      <point x="197" y="0" type="line"/>
      <point x="197" y="1100" type="line"/>
      <point x="192" y="1413"/>
      <point x="491" y="1419" type="qcurve" smooth="yes"/>
      <point x="623" y="1419"/>
      <point x="709" y="1352" type="qcurve" smooth="yes"/>
      <point x="797" y="1284"/>
      <point x="799" y="1147" type="qcurve" smooth="yes"/>
      <point x="797" y="985"/>
      <point x="686" y="915" type="qcurve" smooth="yes"/>
      <point x="577" y="844"/>
      <point x="424" y="844" type="qcurve"/>
    </contour>
  </outline>
</glyph>
<glyph name="guilsinglleft" format="2">
  <advance width="1821"/>
  <unicode hex="00E6"/>
  <outline>
    <contour>
      <point x="909" y="584" type="line"/>
      <point x="922" y="762"/>
      <point x="1016" y="883" type="qcurve" smooth="yes"/>
      <point x="1108" y="1008"/>
      <point x="1296" y="1010" type="qcurve" smooth="yes"/>
      <point x="1477" y="1008"/>
      <point x="1579" y="883" type="qcurve" smooth="yes"/>
      <point x="1679" y="762"/>
      <point x="1675" y="584" type="qcurve"/>
    </contour>
    <contour>
      <point x="831" y="412" type="line"/>
      <point x="825" y="254"/>
      <point x="713" y="152" type="qcurve" smooth="yes"/>
      <point x="600" y="45"/>
      <point x="442" y="43" type="qcurve" smooth="yes"/>
      <point x="328" y="43"/>
      <point x="240" y="96" type="qcurve" smooth="yes"/>
      <point x="197" y="125"/>
      <point x="172" y="168" type="qcurve" smooth="yes"/>
      <point x="143" y="211"/>
      <point x="143" y="268" type="qcurve" smooth="yes"/>
      <point x="145" y="401"/>
      <point x="233" y="459" type="qcurve" smooth="yes"/>
      <point x="274" y="489"/>
      <point x="328" y="504" type="qcurve" smooth="yes"/>
      <point x="381" y="516"/>
      <point x="440" y="518" type="qcurve" smooth="yes"/>
      <point x="577" y="528"/>
      <point x="688" y="539" type="qcurve" smooth="yes"/>
      <point x="741" y="545"/>
      <point x="778" y="559" type="qcurve" smooth="yes"/>
      <point x="815" y="571"/>
      <point x="827" y="592" type="qcurve"/>
      <point x="831" y="592" type="line"/>
    </contour>
    <contour>
      <point x="1753" y="516" type="line"/>
      <point x="1773" y="747"/>
      <point x="1657" y="909" type="qcurve" smooth="yes"/>
      <point x="1540" y="1073"/>
      <point x="1296" y="1077" type="qcurve"/>
      <point x="1003" y="1077"/>
      <point x="897" y="809" type="qcurve"/>
      <point x="893" y="809" type="line"/>
      <point x="876" y="967"/>
      <point x="774" y="1024" type="qcurve" smooth="yes"/>
      <point x="672" y="1077"/>
      <point x="524" y="1077" type="qcurve" smooth="yes"/>
      <point x="348" y="1077"/>
      <point x="238" y="993" type="qcurve" smooth="yes"/>
      <point x="125" y="905"/>
      <point x="111" y="723" type="qcurve"/>
      <point x="188" y="723" type="line"/>
      <point x="203" y="872"/>
      <point x="293" y="942" type="qcurve" smooth="yes"/>
      <point x="381" y="1010"/>
      <point x="524" y="1010" type="qcurve" smooth="yes"/>
      <point x="831" y="1012"/>
      <point x="831" y="764" type="qcurve"/>
      <point x="838" y="692"/>
      <point x="805" y="655" type="qcurve" smooth="yes"/>
      <point x="772" y="616"/>
      <point x="715" y="606" type="qcurve" smooth="yes"/>
      <point x="659" y="594"/>
      <point x="590" y="592" type="qcurve" smooth="yes"/>
      <point x="518" y="588"/>
      <point x="448" y="580" type="qcurve"/>
      <point x="389" y="580"/>
      <point x="324" y="567" type="qcurve" smooth="yes"/>
      <point x="256" y="553"/>
      <point x="197" y="518" type="qcurve" smooth="yes"/>
      <point x="139" y="485"/>
      <point x="104" y="424" type="qcurve" smooth="yes"/>
      <point x="66" y="362"/>
      <point x="66" y="268" type="qcurve" smooth="yes"/>
      <point x="68" y="115"/>
      <point x="180" y="45" type="qcurve" smooth="yes"/>
      <point x="291" y="-25"/>
      <point x="442" y="-25" type="qcurve" smooth="yes"/>
      <point x="756" y="-18"/>
      <point x="870" y="281" type="qcurve"/>
      <point x="874" y="281" type="line"/>
      <point x="913" y="131"/>
      <point x="1026" y="53" type="qcurve" smooth="yes"/>
      <point x="1139" y="-25"/>
      <point x="1296" y="-25" type="qcurve" smooth="yes"/>
      <point x="1669" y="-18"/>
      <point x="1741" y="350" type="qcurve"/>
      <point x="1663" y="350" type="line"/>
      <point x="1606" y="45"/>
      <point x="1296" y="43" type="qcurve" smooth="yes"/>
      <point x="1096" y="45"/>
      <point x="997" y="184" type="qcurve" smooth="yes"/>
      <point x="899" y="317"/>
      <point x="911" y="516" type="qcurve"/>
    </contour>
  </outline>
</glyph>
<glyph name="acute" format="2">
  <advance width="1063"/>
  <unicode hex="00E7"/>
  <outline>
    <contour>
      <point x="985" y="727" type="line"/>
      <point x="967" y="907"/>
      <point x="846" y="993" type="qcurve" smooth="yes"/>
      <point x="727" y="1077"/>
      <point x="551" y="1077" type="qcurve" smooth="yes"/>
      <point x="317" y="1073"/>
      <point x="192" y="917" type="qcurve" smooth="yes"/>
      <point x="68" y="764"/>
      <point x="68" y="537" type="qcurve" smooth="yes"/>
      <point x="66" y="317"/>
      <point x="174" y="160" type="qcurve" smooth="yes"/>
      <point x="281" y="0"/>
      <point x="514" y="-23" type="qcurve"/>
      <point x="416" y="-154" type="line"/>
      <point x="448" y="-180" type="line"/>
      <point x="494" y="-156"/>
      <point x="557" y="-156" type="qcurve" smooth="yes"/>
      <point x="588" y="-156"/>
      <point x="623" y="-176" type="qcurve"/>
      <point x="655" y="-201"/>
      <point x="657" y="-250" type="qcurve" smooth="yes"/>
      <point x="655" y="-303"/>
      <point x="616" y="-324" type="qcurve" smooth="yes"/>
      <point x="577" y="-346"/>
      <point x="528" y="-346" type="qcurve" smooth="yes"/>
      <point x="477" y="-344"/>
      <point x="438" y="-332" type="qcurve" smooth="yes"/>
      <point x="399" y="-321"/>
      <point x="365" y="-309" type="qcurve"/>
      <point x="342" y="-358" type="line"/>
      <point x="395" y="-397"/>
      <point x="526" y="-401" type="qcurve" smooth="yes"/>
      <point x="620" y="-401"/>
      <point x="678" y="-365" type="qcurve" smooth="yes"/>
      <point x="735" y="-328"/>
      <point x="735" y="-250" type="qcurve" smooth="yes"/>
      <point x="733" y="-170"/>
      <point x="688" y="-135" type="qcurve" smooth="yes"/>
      <point x="643" y="-98"/>
      <point x="582" y="-100" type="qcurve" smooth="yes"/>
      <point x="557" y="-100"/>
      <point x="539" y="-104" type="qcurve" smooth="yes"/>
      <point x="520" y="-111"/>
      <point x="506" y="-119" type="qcurve"/>
      <point x="502" y="-115" type="line"/>
      <point x="582" y="-23" type="line"/>
      <point x="926" y="4"/>
      <point x="995" y="371" type="qcurve"/>
      <point x="917" y="371" type="line"/>
      <point x="897" y="223"/>
      <point x="799" y="135" type="qcurve" smooth="yes"/>
      <point x="700" y="45"/>
      <point x="551" y="43" type="qcurve" smooth="yes"/>
      <point x="348" y="45"/>
      <point x="248" y="184" type="qcurve" smooth="yes"/>
      <point x="145" y="322"/>
      <point x="145" y="537" type="qcurve" smooth="yes"/>
      <point x="145" y="725"/>
      <point x="252" y="864" type="qcurve"/>
      <point x="354" y="1005"/>
      <point x="551" y="1010" type="qcurve" smooth="yes"/>
      <point x="698" y="1010"/>
      <point x="797" y="940" type="qcurve" smooth="yes"/>
      <point x="895" y="868"/>
      <point x="907" y="727" type="qcurve"/>
    </contour>
  </outline>
</glyph>
<glyph name="glyph164" format="2">
  <advance width="1100"/>
  <unicode hex="00F0"/>
  <outline>
    <contour>
      <point x="551" y="969" type="line"/>
      <point x="754" y="965"/>
      <point x="854" y="829" type="qcurve" smooth="yes"/>
      <point x="954" y="694"/>
      <point x="954" y="510" type="qcurve" smooth="yes"/>
      <point x="954" y="319"/>
      <point x="858" y="184" type="qcurve" smooth="yes"/>
      <point x="762" y="45"/>
      <point x="551" y="43" type="qcurve"/>
      <point x="346" y="47"/>
      <point x="244" y="186" type="qcurve" smooth="yes"/>
      <point x="143" y="322"/>
      <point x="143" y="510" type="qcurve" smooth="yes"/>
      <point x="143" y="694"/>
      <point x="250" y="829" type="qcurve"/>
      <point x="352" y="965"/>
      <point x="551" y="969" type="qcurve"/>
    </contour>
    <contour>
      <point x="299" y="1192" type="line"/>
      <point x="342" y="1147" type="line"/>
      <point x="342" y="1147" type="line"/>
      <point x="571" y="1274" type="line"/>
      <point x="571" y="1274" type="line"/>
      <point x="788" y="1104"/>
      <point x="889" y="889" type="qcurve"/>
      <point x="885" y="885" type="line"/>
      <point x="811" y="973"/>
      <point x="729" y="1005" type="qcurve" smooth="yes"/>
      <point x="643" y="1036"/>
      <point x="551" y="1036" type="qcurve" smooth="yes"/>
      <point x="317" y="1032"/>
      <point x="192" y="881" type="qcurve" smooth="yes"/>
      <point x="66" y="731"/>
      <point x="66" y="510" type="qcurve" smooth="yes"/>
      <point x="66" y="281"/>
      <point x="186" y="131" type="qcurve" smooth="yes"/>
      <point x="305" y="-20"/>
      <point x="551" y="-25" type="qcurve"/>
      <point x="795" y="-20"/>
      <point x="913" y="133" type="qcurve" smooth="yes"/>
      <point x="1032" y="283"/>
      <point x="1032" y="510" type="qcurve" smooth="yes"/>
      <point x="1030" y="1010"/>
      <point x="641" y="1313" type="qcurve"/>
      <point x="864" y="1438" type="line"/>
      <point x="823" y="1483" type="line"/>
      <point x="823" y="1483" type="line"/>
      <point x="588" y="1352" type="line"/>
      <point x="588" y="1352" type="line"/>
      <point x="489" y="1431"/>
      <point x="367" y="1497" type="qcurve"/>
      <point x="367" y="1497" type="line"/>
      <point x="309" y="1448" type="line"/>
      <point x="416" y="1395"/>
      <point x="520" y="1315" type="qcurve"/>
    </contour>
  </outline>
</glyph>
<glyph name="Ugrave" format="2">
  <advance width="1229"/>
  <unicode hex="00F7"/>
  <outline>
    <contour>
      <point x="1130" y="477" type="line"/>
      <point x="1130" y="555" type="line"/>
      <point x="98" y="555" type="line"/>
      <point x="98" y="477" type="line"/>
    </contour>
    <contour>
      <point x="512" y="926" type="line"/>
      <point x="512" y="883"/>
      <point x="545" y="854" type="qcurve"/>
      <point x="573" y="821"/>
      <point x="616" y="821" type="qcurve" smooth="yes"/>
      <point x="661" y="821"/>
      <point x="692" y="854" type="qcurve" smooth="yes"/>
      <point x="721" y="883"/>
      <point x="723" y="926" type="qcurve" smooth="yes"/>
      <point x="721" y="973"/>
      <point x="692" y="1003" type="qcurve" smooth="yes"/>
      <point x="661" y="1032"/>
      <point x="616" y="1032" type="qcurve" smooth="yes"/>
      <point x="573" y="1032"/>
      <point x="545" y="1003" type="qcurve" smooth="yes"/>
      <point x="512" y="973"/>
      <point x="512" y="926" type="qcurve"/>
    </contour>
    <contour>
      <point x="512" y="104" type="line"/>
      <point x="512" y="61"/>
      <point x="545" y="33" type="qcurve"/>
      <point x="573" y="0"/>
      <point x="616" y="0" type="qcurve" smooth="yes"/>
      <point x="661" y="0"/>
      <point x="692" y="33" type="qcurve" smooth="yes"/>
      <point x="721" y="61"/>
      <point x="723" y="104" type="qcurve" smooth="yes"/>
      <point x="721" y="152"/>
      <point x="692" y="182" type="qcurve" smooth="yes"/>
      <point x="661" y="211"/>
      <point x="616" y="211" type="qcurve" smooth="yes"/>
      <point x="573" y="211"/>
      <point x="545" y="182" type="qcurve" smooth="yes"/>
      <point x="512" y="152"/>
      <point x="512" y="104" type="qcurve"/>
    </contour>
  </outline>
</glyph>
<glyph name="guilsinglright" format="2">
  <advance width="1100"/>
  <unicode hex="00F8"/>
  <outline>
    <contour>
      <point x="223" y="229" type="line"/>
      <point x="223" y="229" type="line"/>
      <point x="143" y="358"/>
      <point x="143" y="526" type="qcurve" smooth="yes"/>
      <point x="143" y="723"/>
      <point x="250" y="864" type="qcurve" smooth="yes"/>
      <point x="352" y="1005"/>
      <point x="549" y="1010" type="qcurve"/>
      <point x="739" y="1005"/>
      <point x="836" y="876" type="qcurve"/>
    </contour>
    <contour>
      <point x="876" y="819" type="line"/>
      <point x="876" y="819" type="line"/>
      <point x="954" y="690"/>
      <point x="954" y="526" type="qcurve" smooth="yes"/>
      <point x="954" y="332"/>
      <point x="852" y="192" type="qcurve" smooth="yes"/>
      <point x="750" y="47"/>
      <point x="549" y="43" type="qcurve"/>
      <point x="367" y="45"/>
      <point x="264" y="172" type="qcurve"/>
    </contour>
    <contour>
      <point x="1051" y="1003" type="line"/>
      <point x="1001" y="1051" type="line"/>
      <point x="1001" y="1051" type="line"/>
      <point x="889" y="932" type="line"/>
      <point x="889" y="932" type="line"/>
      <point x="770" y="1075"/>
      <point x="549" y="1077" type="qcurve"/>
      <point x="317" y="1073"/>
      <point x="192" y="915" type="qcurve" smooth="yes"/>
      <point x="66" y="758"/>
      <point x="66" y="526" type="qcurve" smooth="yes"/>
      <point x="66" y="319"/>
      <point x="168" y="172" type="qcurve"/>
      <point x="51" y="47" type="line"/>
      <point x="100" y="0" type="line"/>
      <point x="100" y="0" type="line"/>
      <point x="211" y="117" type="line"/>
      <point x="211" y="117" type="line"/>
      <point x="332" y="-20"/>
      <point x="549" y="-25" type="qcurve"/>
      <point x="784" y="-20"/>
      <point x="907" y="139" type="qcurve" smooth="yes"/>
      <point x="1032" y="297"/>
      <point x="1032" y="526" type="qcurve" smooth="yes"/>
      <point x="1032" y="731"/>
      <point x="932" y="876" type="qcurve"/>
    </contour>
  </outline>
</glyph>
<glyph name="glyph167" format="2">
  <advance width="1139"/>
  <unicode hex="00FE"/>
  <outline>
    <contour>
      <point x="598" y="43" type="line"/>
      <point x="381" y="47"/>
      <point x="295" y="192" type="qcurve" smooth="yes"/>
      <point x="211" y="332"/>
      <point x="213" y="524" type="qcurve" smooth="yes"/>
      <point x="211" y="719"/>
      <point x="301" y="862" type="qcurve" smooth="yes"/>
      <point x="391" y="1005"/>
      <point x="598" y="1010" type="qcurve"/>
      <point x="809" y="1005"/>
      <point x="903" y="858" type="qcurve" smooth="yes"/>
      <point x="993" y="713"/>
      <point x="993" y="524" type="qcurve" smooth="yes"/>
      <point x="993" y="326"/>
      <point x="901" y="186" type="qcurve"/>
      <point x="803" y="45"/>
      <point x="598" y="43" type="qcurve"/>
    </contour>
    <contour>
      <point x="133" y="-377" type="line"/>
      <point x="211" y="-377" type="line"/>
      <point x="211" y="219" type="line"/>
      <point x="215" y="219" type="line"/>
      <point x="264" y="94"/>
      <point x="367" y="35" type="qcurve" smooth="yes"/>
      <point x="467" y="-25"/>
      <point x="598" y="-25" type="qcurve" smooth="yes"/>
      <point x="840" y="-23"/>
      <point x="956" y="131" type="qcurve" smooth="yes"/>
      <point x="1071" y="281"/>
      <point x="1071" y="524" type="qcurve" smooth="yes"/>
      <point x="1071" y="756"/>
      <point x="956" y="913" type="qcurve" smooth="yes"/>
      <point x="840" y="1073"/>
      <point x="598" y="1077" type="qcurve"/>
      <point x="426" y="1073"/>
      <point x="334" y="985" type="qcurve" smooth="yes"/>
      <point x="240" y="899"/>
      <point x="215" y="811" type="qcurve"/>
      <point x="211" y="811" type="line"/>
      <point x="211" y="1462" type="line"/>
      <point x="133" y="1462" type="line"/>
    </contour>
  </outline>
</glyph>
<glyph name="onequarter" format="2">
  <advance width="344"/>
  <unicode hex="0131"/>
  <outline>
    <contour>
      <point x="211" y="0" type="line"/>
      <point x="211" y="1053" type="line"/>
      <point x="133" y="1053" type="line"/>
      <point x="133" y="0" type="line"/>
    </contour>
  </outline>
</glyph>
<glyph name="glyph142" format="2">
  <advance width="1024"/>
  <unicode hex="0141"/>
  <outline>
    <contour>
      <point x="129" y="1462" type="line"/>
      <point x="129" y="625" type="line"/>
      <point x="-45" y="520" type="line"/>
      <point x="-45" y="442" type="line"/>
      <point x="-45" y="442" type="line"/>
      <point x="129" y="551" type="line"/>
      <point x="129" y="551" type="line"/>
      <point x="129" y="0" type="line"/>
      <point x="1049" y="0" type="line"/>
      <point x="1049" y="78" type="line"/>
      <point x="219" y="78" type="line"/>
      <point x="219" y="606" type="line"/>
      <point x="700" y="897" type="line"/>
      <point x="700" y="971" type="line"/>
      <point x="700" y="971" type="line"/>
      <point x="219" y="678" type="line"/>
      <point x="219" y="678" type="line"/>
      <point x="219" y="1462" type="line"/>
    </contour>
  </outline>
</glyph>
<glyph name="glyph148" format="2">
  <advance width="344"/>
  <unicode hex="0142"/>
  <outline>
    <contour>
      <point x="133" y="684" type="line"/>
      <point x="0" y="580" type="line"/>
      <point x="0" y="512" type="line"/>
      <point x="0" y="512" type="line"/>
      <point x="133" y="616" type="line"/>
      <point x="133" y="616" type="line"/>
      <point x="133" y="0" type="line"/>
      <point x="211" y="0" type="line"/>
      <point x="211" y="678" type="line"/>
      <point x="344" y="782" type="line"/>
      <point x="344" y="850" type="line"/>
      <point x="344" y="850" type="line"/>
      <point x="211" y="745" type="line"/>
      <point x="211" y="745" type="line"/>
      <point x="211" y="1462" type="line"/>
      <point x="133" y="1462" type="line"/>
    </contour>
  </outline>
</glyph>
